G75*
%MOIN*%
%OFA0B0*%
%FSLAX25Y25*%
%IPPOS*%
%LPD*%
%AMOC8*
5,1,8,0,0,1.08239X$1,22.5*
%
%ADD10C,0.00000*%
%ADD11C,0.08274*%
%ADD12C,0.01287*%
%ADD13R,0.04900X0.03900*%
%ADD14R,0.06900X0.06900*%
%ADD15C,0.06900*%
%ADD16C,0.07487*%
%ADD17R,0.01778X0.06306*%
%ADD18C,0.05124*%
%ADD19R,0.02762X0.06502*%
%ADD20R,0.05124X0.07487*%
%ADD21R,0.09061X0.02762*%
%ADD22R,0.03000X0.08400*%
%ADD23C,0.03900*%
%ADD24R,0.05400X0.02900*%
%ADD25C,0.00800*%
D10*
X0014157Y0019933D02*
X0014157Y0104733D01*
X0191322Y0104733D01*
X0191322Y0019933D01*
X0014157Y0019933D01*
X0018094Y0027807D02*
X0018096Y0027932D01*
X0018102Y0028057D01*
X0018112Y0028181D01*
X0018126Y0028305D01*
X0018143Y0028429D01*
X0018165Y0028552D01*
X0018191Y0028674D01*
X0018220Y0028796D01*
X0018253Y0028916D01*
X0018291Y0029035D01*
X0018331Y0029154D01*
X0018376Y0029270D01*
X0018424Y0029385D01*
X0018476Y0029499D01*
X0018532Y0029611D01*
X0018591Y0029721D01*
X0018653Y0029829D01*
X0018719Y0029936D01*
X0018788Y0030040D01*
X0018861Y0030141D01*
X0018936Y0030241D01*
X0019015Y0030338D01*
X0019097Y0030432D01*
X0019182Y0030524D01*
X0019269Y0030613D01*
X0019360Y0030699D01*
X0019453Y0030782D01*
X0019549Y0030863D01*
X0019647Y0030940D01*
X0019747Y0031014D01*
X0019850Y0031085D01*
X0019955Y0031152D01*
X0020063Y0031217D01*
X0020172Y0031277D01*
X0020283Y0031335D01*
X0020396Y0031388D01*
X0020510Y0031438D01*
X0020626Y0031485D01*
X0020743Y0031527D01*
X0020862Y0031566D01*
X0020982Y0031602D01*
X0021103Y0031633D01*
X0021225Y0031661D01*
X0021347Y0031684D01*
X0021471Y0031704D01*
X0021595Y0031720D01*
X0021719Y0031732D01*
X0021844Y0031740D01*
X0021969Y0031744D01*
X0022093Y0031744D01*
X0022218Y0031740D01*
X0022343Y0031732D01*
X0022467Y0031720D01*
X0022591Y0031704D01*
X0022715Y0031684D01*
X0022837Y0031661D01*
X0022959Y0031633D01*
X0023080Y0031602D01*
X0023200Y0031566D01*
X0023319Y0031527D01*
X0023436Y0031485D01*
X0023552Y0031438D01*
X0023666Y0031388D01*
X0023779Y0031335D01*
X0023890Y0031277D01*
X0024000Y0031217D01*
X0024107Y0031152D01*
X0024212Y0031085D01*
X0024315Y0031014D01*
X0024415Y0030940D01*
X0024513Y0030863D01*
X0024609Y0030782D01*
X0024702Y0030699D01*
X0024793Y0030613D01*
X0024880Y0030524D01*
X0024965Y0030432D01*
X0025047Y0030338D01*
X0025126Y0030241D01*
X0025201Y0030141D01*
X0025274Y0030040D01*
X0025343Y0029936D01*
X0025409Y0029829D01*
X0025471Y0029721D01*
X0025530Y0029611D01*
X0025586Y0029499D01*
X0025638Y0029385D01*
X0025686Y0029270D01*
X0025731Y0029154D01*
X0025771Y0029035D01*
X0025809Y0028916D01*
X0025842Y0028796D01*
X0025871Y0028674D01*
X0025897Y0028552D01*
X0025919Y0028429D01*
X0025936Y0028305D01*
X0025950Y0028181D01*
X0025960Y0028057D01*
X0025966Y0027932D01*
X0025968Y0027807D01*
X0025966Y0027682D01*
X0025960Y0027557D01*
X0025950Y0027433D01*
X0025936Y0027309D01*
X0025919Y0027185D01*
X0025897Y0027062D01*
X0025871Y0026940D01*
X0025842Y0026818D01*
X0025809Y0026698D01*
X0025771Y0026579D01*
X0025731Y0026460D01*
X0025686Y0026344D01*
X0025638Y0026229D01*
X0025586Y0026115D01*
X0025530Y0026003D01*
X0025471Y0025893D01*
X0025409Y0025785D01*
X0025343Y0025678D01*
X0025274Y0025574D01*
X0025201Y0025473D01*
X0025126Y0025373D01*
X0025047Y0025276D01*
X0024965Y0025182D01*
X0024880Y0025090D01*
X0024793Y0025001D01*
X0024702Y0024915D01*
X0024609Y0024832D01*
X0024513Y0024751D01*
X0024415Y0024674D01*
X0024315Y0024600D01*
X0024212Y0024529D01*
X0024107Y0024462D01*
X0023999Y0024397D01*
X0023890Y0024337D01*
X0023779Y0024279D01*
X0023666Y0024226D01*
X0023552Y0024176D01*
X0023436Y0024129D01*
X0023319Y0024087D01*
X0023200Y0024048D01*
X0023080Y0024012D01*
X0022959Y0023981D01*
X0022837Y0023953D01*
X0022715Y0023930D01*
X0022591Y0023910D01*
X0022467Y0023894D01*
X0022343Y0023882D01*
X0022218Y0023874D01*
X0022093Y0023870D01*
X0021969Y0023870D01*
X0021844Y0023874D01*
X0021719Y0023882D01*
X0021595Y0023894D01*
X0021471Y0023910D01*
X0021347Y0023930D01*
X0021225Y0023953D01*
X0021103Y0023981D01*
X0020982Y0024012D01*
X0020862Y0024048D01*
X0020743Y0024087D01*
X0020626Y0024129D01*
X0020510Y0024176D01*
X0020396Y0024226D01*
X0020283Y0024279D01*
X0020172Y0024337D01*
X0020062Y0024397D01*
X0019955Y0024462D01*
X0019850Y0024529D01*
X0019747Y0024600D01*
X0019647Y0024674D01*
X0019549Y0024751D01*
X0019453Y0024832D01*
X0019360Y0024915D01*
X0019269Y0025001D01*
X0019182Y0025090D01*
X0019097Y0025182D01*
X0019015Y0025276D01*
X0018936Y0025373D01*
X0018861Y0025473D01*
X0018788Y0025574D01*
X0018719Y0025678D01*
X0018653Y0025785D01*
X0018591Y0025893D01*
X0018532Y0026003D01*
X0018476Y0026115D01*
X0018424Y0026229D01*
X0018376Y0026344D01*
X0018331Y0026460D01*
X0018291Y0026579D01*
X0018253Y0026698D01*
X0018220Y0026818D01*
X0018191Y0026940D01*
X0018165Y0027062D01*
X0018143Y0027185D01*
X0018126Y0027309D01*
X0018112Y0027433D01*
X0018102Y0027557D01*
X0018096Y0027682D01*
X0018094Y0027807D01*
X0178094Y0027807D02*
X0178096Y0027932D01*
X0178102Y0028057D01*
X0178112Y0028181D01*
X0178126Y0028305D01*
X0178143Y0028429D01*
X0178165Y0028552D01*
X0178191Y0028674D01*
X0178220Y0028796D01*
X0178253Y0028916D01*
X0178291Y0029035D01*
X0178331Y0029154D01*
X0178376Y0029270D01*
X0178424Y0029385D01*
X0178476Y0029499D01*
X0178532Y0029611D01*
X0178591Y0029721D01*
X0178653Y0029829D01*
X0178719Y0029936D01*
X0178788Y0030040D01*
X0178861Y0030141D01*
X0178936Y0030241D01*
X0179015Y0030338D01*
X0179097Y0030432D01*
X0179182Y0030524D01*
X0179269Y0030613D01*
X0179360Y0030699D01*
X0179453Y0030782D01*
X0179549Y0030863D01*
X0179647Y0030940D01*
X0179747Y0031014D01*
X0179850Y0031085D01*
X0179955Y0031152D01*
X0180063Y0031217D01*
X0180172Y0031277D01*
X0180283Y0031335D01*
X0180396Y0031388D01*
X0180510Y0031438D01*
X0180626Y0031485D01*
X0180743Y0031527D01*
X0180862Y0031566D01*
X0180982Y0031602D01*
X0181103Y0031633D01*
X0181225Y0031661D01*
X0181347Y0031684D01*
X0181471Y0031704D01*
X0181595Y0031720D01*
X0181719Y0031732D01*
X0181844Y0031740D01*
X0181969Y0031744D01*
X0182093Y0031744D01*
X0182218Y0031740D01*
X0182343Y0031732D01*
X0182467Y0031720D01*
X0182591Y0031704D01*
X0182715Y0031684D01*
X0182837Y0031661D01*
X0182959Y0031633D01*
X0183080Y0031602D01*
X0183200Y0031566D01*
X0183319Y0031527D01*
X0183436Y0031485D01*
X0183552Y0031438D01*
X0183666Y0031388D01*
X0183779Y0031335D01*
X0183890Y0031277D01*
X0184000Y0031217D01*
X0184107Y0031152D01*
X0184212Y0031085D01*
X0184315Y0031014D01*
X0184415Y0030940D01*
X0184513Y0030863D01*
X0184609Y0030782D01*
X0184702Y0030699D01*
X0184793Y0030613D01*
X0184880Y0030524D01*
X0184965Y0030432D01*
X0185047Y0030338D01*
X0185126Y0030241D01*
X0185201Y0030141D01*
X0185274Y0030040D01*
X0185343Y0029936D01*
X0185409Y0029829D01*
X0185471Y0029721D01*
X0185530Y0029611D01*
X0185586Y0029499D01*
X0185638Y0029385D01*
X0185686Y0029270D01*
X0185731Y0029154D01*
X0185771Y0029035D01*
X0185809Y0028916D01*
X0185842Y0028796D01*
X0185871Y0028674D01*
X0185897Y0028552D01*
X0185919Y0028429D01*
X0185936Y0028305D01*
X0185950Y0028181D01*
X0185960Y0028057D01*
X0185966Y0027932D01*
X0185968Y0027807D01*
X0185966Y0027682D01*
X0185960Y0027557D01*
X0185950Y0027433D01*
X0185936Y0027309D01*
X0185919Y0027185D01*
X0185897Y0027062D01*
X0185871Y0026940D01*
X0185842Y0026818D01*
X0185809Y0026698D01*
X0185771Y0026579D01*
X0185731Y0026460D01*
X0185686Y0026344D01*
X0185638Y0026229D01*
X0185586Y0026115D01*
X0185530Y0026003D01*
X0185471Y0025893D01*
X0185409Y0025785D01*
X0185343Y0025678D01*
X0185274Y0025574D01*
X0185201Y0025473D01*
X0185126Y0025373D01*
X0185047Y0025276D01*
X0184965Y0025182D01*
X0184880Y0025090D01*
X0184793Y0025001D01*
X0184702Y0024915D01*
X0184609Y0024832D01*
X0184513Y0024751D01*
X0184415Y0024674D01*
X0184315Y0024600D01*
X0184212Y0024529D01*
X0184107Y0024462D01*
X0183999Y0024397D01*
X0183890Y0024337D01*
X0183779Y0024279D01*
X0183666Y0024226D01*
X0183552Y0024176D01*
X0183436Y0024129D01*
X0183319Y0024087D01*
X0183200Y0024048D01*
X0183080Y0024012D01*
X0182959Y0023981D01*
X0182837Y0023953D01*
X0182715Y0023930D01*
X0182591Y0023910D01*
X0182467Y0023894D01*
X0182343Y0023882D01*
X0182218Y0023874D01*
X0182093Y0023870D01*
X0181969Y0023870D01*
X0181844Y0023874D01*
X0181719Y0023882D01*
X0181595Y0023894D01*
X0181471Y0023910D01*
X0181347Y0023930D01*
X0181225Y0023953D01*
X0181103Y0023981D01*
X0180982Y0024012D01*
X0180862Y0024048D01*
X0180743Y0024087D01*
X0180626Y0024129D01*
X0180510Y0024176D01*
X0180396Y0024226D01*
X0180283Y0024279D01*
X0180172Y0024337D01*
X0180062Y0024397D01*
X0179955Y0024462D01*
X0179850Y0024529D01*
X0179747Y0024600D01*
X0179647Y0024674D01*
X0179549Y0024751D01*
X0179453Y0024832D01*
X0179360Y0024915D01*
X0179269Y0025001D01*
X0179182Y0025090D01*
X0179097Y0025182D01*
X0179015Y0025276D01*
X0178936Y0025373D01*
X0178861Y0025473D01*
X0178788Y0025574D01*
X0178719Y0025678D01*
X0178653Y0025785D01*
X0178591Y0025893D01*
X0178532Y0026003D01*
X0178476Y0026115D01*
X0178424Y0026229D01*
X0178376Y0026344D01*
X0178331Y0026460D01*
X0178291Y0026579D01*
X0178253Y0026698D01*
X0178220Y0026818D01*
X0178191Y0026940D01*
X0178165Y0027062D01*
X0178143Y0027185D01*
X0178126Y0027309D01*
X0178112Y0027433D01*
X0178102Y0027557D01*
X0178096Y0027682D01*
X0178094Y0027807D01*
D11*
X0182031Y0027807D03*
X0022031Y0027807D03*
D12*
X0037464Y0028826D02*
X0037464Y0031440D01*
X0037464Y0028826D02*
X0034850Y0028826D01*
X0034850Y0031440D01*
X0037464Y0031440D01*
X0037464Y0030049D02*
X0034850Y0030049D01*
X0034850Y0031272D02*
X0037464Y0031272D01*
X0040650Y0031440D02*
X0040650Y0028826D01*
X0040650Y0031440D02*
X0043264Y0031440D01*
X0043264Y0028826D01*
X0040650Y0028826D01*
X0040650Y0030049D02*
X0043264Y0030049D01*
X0043264Y0031272D02*
X0040650Y0031272D01*
X0046350Y0031540D02*
X0046350Y0028926D01*
X0046350Y0031540D02*
X0048964Y0031540D01*
X0048964Y0028926D01*
X0046350Y0028926D01*
X0046350Y0030149D02*
X0048964Y0030149D01*
X0048964Y0031372D02*
X0046350Y0031372D01*
X0046350Y0025540D02*
X0046350Y0022926D01*
X0046350Y0025540D02*
X0048964Y0025540D01*
X0048964Y0022926D01*
X0046350Y0022926D01*
X0046350Y0024149D02*
X0048964Y0024149D01*
X0048964Y0025372D02*
X0046350Y0025372D01*
X0040650Y0025440D02*
X0040650Y0022826D01*
X0040650Y0025440D02*
X0043264Y0025440D01*
X0043264Y0022826D01*
X0040650Y0022826D01*
X0040650Y0024049D02*
X0043264Y0024049D01*
X0043264Y0025272D02*
X0040650Y0025272D01*
X0037464Y0025440D02*
X0037464Y0022826D01*
X0034850Y0022826D01*
X0034850Y0025440D01*
X0037464Y0025440D01*
X0037464Y0024049D02*
X0034850Y0024049D01*
X0034850Y0025272D02*
X0037464Y0025272D01*
X0026364Y0039840D02*
X0023750Y0039840D01*
X0026364Y0039840D02*
X0026364Y0037226D01*
X0023750Y0037226D01*
X0023750Y0039840D01*
X0023750Y0038449D02*
X0026364Y0038449D01*
X0026364Y0039672D02*
X0023750Y0039672D01*
X0020364Y0039840D02*
X0017750Y0039840D01*
X0020364Y0039840D02*
X0020364Y0037226D01*
X0017750Y0037226D01*
X0017750Y0039840D01*
X0017750Y0038449D02*
X0020364Y0038449D01*
X0020364Y0039672D02*
X0017750Y0039672D01*
X0017750Y0045640D02*
X0020364Y0045640D01*
X0020364Y0043026D01*
X0017750Y0043026D01*
X0017750Y0045640D01*
X0017750Y0044249D02*
X0020364Y0044249D01*
X0020364Y0045472D02*
X0017750Y0045472D01*
X0023750Y0045640D02*
X0026364Y0045640D01*
X0026364Y0043026D01*
X0023750Y0043026D01*
X0023750Y0045640D01*
X0023750Y0044249D02*
X0026364Y0044249D01*
X0026364Y0045472D02*
X0023750Y0045472D01*
X0030250Y0046640D02*
X0030250Y0044026D01*
X0030250Y0046640D02*
X0032864Y0046640D01*
X0032864Y0044026D01*
X0030250Y0044026D01*
X0030250Y0045249D02*
X0032864Y0045249D01*
X0032864Y0046472D02*
X0030250Y0046472D01*
X0026364Y0051440D02*
X0023750Y0051440D01*
X0026364Y0051440D02*
X0026364Y0048826D01*
X0023750Y0048826D01*
X0023750Y0051440D01*
X0023750Y0050049D02*
X0026364Y0050049D01*
X0026364Y0051272D02*
X0023750Y0051272D01*
X0020364Y0051440D02*
X0017750Y0051440D01*
X0020364Y0051440D02*
X0020364Y0048826D01*
X0017750Y0048826D01*
X0017750Y0051440D01*
X0017750Y0050049D02*
X0020364Y0050049D01*
X0020364Y0051272D02*
X0017750Y0051272D01*
X0032550Y0050326D02*
X0035164Y0050326D01*
X0032550Y0050326D02*
X0032550Y0052940D01*
X0035164Y0052940D01*
X0035164Y0050326D01*
X0035164Y0051549D02*
X0032550Y0051549D01*
X0032550Y0052772D02*
X0035164Y0052772D01*
X0038550Y0050326D02*
X0041164Y0050326D01*
X0038550Y0050326D02*
X0038550Y0052940D01*
X0041164Y0052940D01*
X0041164Y0050326D01*
X0041164Y0051549D02*
X0038550Y0051549D01*
X0038550Y0052772D02*
X0041164Y0052772D01*
X0041750Y0046640D02*
X0041750Y0044026D01*
X0041750Y0046640D02*
X0044364Y0046640D01*
X0044364Y0044026D01*
X0041750Y0044026D01*
X0041750Y0045249D02*
X0044364Y0045249D01*
X0044364Y0046472D02*
X0041750Y0046472D01*
X0038664Y0046640D02*
X0038664Y0044026D01*
X0036050Y0044026D01*
X0036050Y0046640D01*
X0038664Y0046640D01*
X0038664Y0045249D02*
X0036050Y0045249D01*
X0036050Y0046472D02*
X0038664Y0046472D01*
X0047350Y0046640D02*
X0047350Y0044026D01*
X0047350Y0046640D02*
X0049964Y0046640D01*
X0049964Y0044026D01*
X0047350Y0044026D01*
X0047350Y0045249D02*
X0049964Y0045249D01*
X0049964Y0046472D02*
X0047350Y0046472D01*
X0047350Y0040640D02*
X0047350Y0038026D01*
X0047350Y0040640D02*
X0049964Y0040640D01*
X0049964Y0038026D01*
X0047350Y0038026D01*
X0047350Y0039249D02*
X0049964Y0039249D01*
X0049964Y0040472D02*
X0047350Y0040472D01*
X0041750Y0040640D02*
X0041750Y0038026D01*
X0041750Y0040640D02*
X0044364Y0040640D01*
X0044364Y0038026D01*
X0041750Y0038026D01*
X0041750Y0039249D02*
X0044364Y0039249D01*
X0044364Y0040472D02*
X0041750Y0040472D01*
X0038664Y0040640D02*
X0038664Y0038026D01*
X0036050Y0038026D01*
X0036050Y0040640D01*
X0038664Y0040640D01*
X0038664Y0039249D02*
X0036050Y0039249D01*
X0036050Y0040472D02*
X0038664Y0040472D01*
X0030250Y0040640D02*
X0030250Y0038026D01*
X0030250Y0040640D02*
X0032864Y0040640D01*
X0032864Y0038026D01*
X0030250Y0038026D01*
X0030250Y0039249D02*
X0032864Y0039249D01*
X0032864Y0040472D02*
X0030250Y0040472D01*
X0060350Y0044726D02*
X0060350Y0047340D01*
X0062964Y0047340D01*
X0062964Y0044726D01*
X0060350Y0044726D01*
X0060350Y0045949D02*
X0062964Y0045949D01*
X0062964Y0047172D02*
X0060350Y0047172D01*
X0060350Y0050726D02*
X0060350Y0053340D01*
X0062964Y0053340D01*
X0062964Y0050726D01*
X0060350Y0050726D01*
X0060350Y0051949D02*
X0062964Y0051949D01*
X0062964Y0053172D02*
X0060350Y0053172D01*
X0061550Y0064440D02*
X0064164Y0064440D01*
X0064164Y0061826D01*
X0061550Y0061826D01*
X0061550Y0064440D01*
X0061550Y0063049D02*
X0064164Y0063049D01*
X0064164Y0064272D02*
X0061550Y0064272D01*
X0061550Y0067526D02*
X0064164Y0067526D01*
X0061550Y0067526D02*
X0061550Y0070140D01*
X0064164Y0070140D01*
X0064164Y0067526D01*
X0064164Y0068749D02*
X0061550Y0068749D01*
X0061550Y0069972D02*
X0064164Y0069972D01*
X0067550Y0067526D02*
X0070164Y0067526D01*
X0067550Y0067526D02*
X0067550Y0070140D01*
X0070164Y0070140D01*
X0070164Y0067526D01*
X0070164Y0068749D02*
X0067550Y0068749D01*
X0067550Y0069972D02*
X0070164Y0069972D01*
X0070164Y0075940D02*
X0067550Y0075940D01*
X0070164Y0075940D02*
X0070164Y0073326D01*
X0067550Y0073326D01*
X0067550Y0075940D01*
X0067550Y0074549D02*
X0070164Y0074549D01*
X0070164Y0075772D02*
X0067550Y0075772D01*
X0064164Y0075940D02*
X0061550Y0075940D01*
X0064164Y0075940D02*
X0064164Y0073326D01*
X0061550Y0073326D01*
X0061550Y0075940D01*
X0061550Y0074549D02*
X0064164Y0074549D01*
X0064164Y0075772D02*
X0061550Y0075772D01*
X0061550Y0079026D02*
X0064164Y0079026D01*
X0061550Y0079026D02*
X0061550Y0081640D01*
X0064164Y0081640D01*
X0064164Y0079026D01*
X0064164Y0080249D02*
X0061550Y0080249D01*
X0061550Y0081472D02*
X0064164Y0081472D01*
X0067550Y0079026D02*
X0070164Y0079026D01*
X0067550Y0079026D02*
X0067550Y0081640D01*
X0070164Y0081640D01*
X0070164Y0079026D01*
X0070164Y0080249D02*
X0067550Y0080249D01*
X0067550Y0081472D02*
X0070164Y0081472D01*
X0070164Y0084726D02*
X0067550Y0084726D01*
X0067550Y0087340D01*
X0070164Y0087340D01*
X0070164Y0084726D01*
X0070164Y0085949D02*
X0067550Y0085949D01*
X0067550Y0087172D02*
X0070164Y0087172D01*
X0070064Y0093040D02*
X0067450Y0093040D01*
X0070064Y0093040D02*
X0070064Y0090426D01*
X0067450Y0090426D01*
X0067450Y0093040D01*
X0067450Y0091649D02*
X0070064Y0091649D01*
X0070064Y0092872D02*
X0067450Y0092872D01*
X0064064Y0093040D02*
X0061450Y0093040D01*
X0064064Y0093040D02*
X0064064Y0090426D01*
X0061450Y0090426D01*
X0061450Y0093040D01*
X0061450Y0091649D02*
X0064064Y0091649D01*
X0064064Y0092872D02*
X0061450Y0092872D01*
X0061450Y0096126D02*
X0064064Y0096126D01*
X0061450Y0096126D02*
X0061450Y0098740D01*
X0064064Y0098740D01*
X0064064Y0096126D01*
X0064064Y0097349D02*
X0061450Y0097349D01*
X0061450Y0098572D02*
X0064064Y0098572D01*
X0067450Y0096126D02*
X0070064Y0096126D01*
X0067450Y0096126D02*
X0067450Y0098740D01*
X0070064Y0098740D01*
X0070064Y0096126D01*
X0070064Y0097349D02*
X0067450Y0097349D01*
X0067450Y0098572D02*
X0070064Y0098572D01*
X0074350Y0097840D02*
X0076964Y0097840D01*
X0076964Y0095226D01*
X0074350Y0095226D01*
X0074350Y0097840D01*
X0074350Y0096449D02*
X0076964Y0096449D01*
X0076964Y0097672D02*
X0074350Y0097672D01*
X0080350Y0097840D02*
X0082964Y0097840D01*
X0082964Y0095226D01*
X0080350Y0095226D01*
X0080350Y0097840D01*
X0080350Y0096449D02*
X0082964Y0096449D01*
X0082964Y0097672D02*
X0080350Y0097672D01*
X0064164Y0084726D02*
X0061550Y0084726D01*
X0061550Y0087340D01*
X0064164Y0087340D01*
X0064164Y0084726D01*
X0064164Y0085949D02*
X0061550Y0085949D01*
X0061550Y0087172D02*
X0064164Y0087172D01*
X0039150Y0091426D02*
X0039150Y0094040D01*
X0041764Y0094040D01*
X0041764Y0091426D01*
X0039150Y0091426D01*
X0039150Y0092649D02*
X0041764Y0092649D01*
X0041764Y0093872D02*
X0039150Y0093872D01*
X0033550Y0094040D02*
X0033550Y0091426D01*
X0033550Y0094040D02*
X0036164Y0094040D01*
X0036164Y0091426D01*
X0033550Y0091426D01*
X0033550Y0092649D02*
X0036164Y0092649D01*
X0036164Y0093872D02*
X0033550Y0093872D01*
X0027950Y0094040D02*
X0027950Y0091426D01*
X0027950Y0094040D02*
X0030564Y0094040D01*
X0030564Y0091426D01*
X0027950Y0091426D01*
X0027950Y0092649D02*
X0030564Y0092649D01*
X0030564Y0093872D02*
X0027950Y0093872D01*
X0024864Y0094040D02*
X0024864Y0091426D01*
X0022250Y0091426D01*
X0022250Y0094040D01*
X0024864Y0094040D01*
X0024864Y0092649D02*
X0022250Y0092649D01*
X0022250Y0093872D02*
X0024864Y0093872D01*
X0016650Y0094040D02*
X0016650Y0091426D01*
X0016650Y0094040D02*
X0019264Y0094040D01*
X0019264Y0091426D01*
X0016650Y0091426D01*
X0016650Y0092649D02*
X0019264Y0092649D01*
X0019264Y0093872D02*
X0016650Y0093872D01*
X0016650Y0097426D02*
X0016650Y0100040D01*
X0019264Y0100040D01*
X0019264Y0097426D01*
X0016650Y0097426D01*
X0016650Y0098649D02*
X0019264Y0098649D01*
X0019264Y0099872D02*
X0016650Y0099872D01*
X0024864Y0100040D02*
X0024864Y0097426D01*
X0022250Y0097426D01*
X0022250Y0100040D01*
X0024864Y0100040D01*
X0024864Y0098649D02*
X0022250Y0098649D01*
X0022250Y0099872D02*
X0024864Y0099872D01*
X0027950Y0100040D02*
X0027950Y0097426D01*
X0027950Y0100040D02*
X0030564Y0100040D01*
X0030564Y0097426D01*
X0027950Y0097426D01*
X0027950Y0098649D02*
X0030564Y0098649D01*
X0030564Y0099872D02*
X0027950Y0099872D01*
X0033550Y0100040D02*
X0033550Y0097426D01*
X0033550Y0100040D02*
X0036164Y0100040D01*
X0036164Y0097426D01*
X0033550Y0097426D01*
X0033550Y0098649D02*
X0036164Y0098649D01*
X0036164Y0099872D02*
X0033550Y0099872D01*
X0039150Y0100040D02*
X0039150Y0097426D01*
X0039150Y0100040D02*
X0041764Y0100040D01*
X0041764Y0097426D01*
X0039150Y0097426D01*
X0039150Y0098649D02*
X0041764Y0098649D01*
X0041764Y0099872D02*
X0039150Y0099872D01*
X0067550Y0064440D02*
X0070164Y0064440D01*
X0070164Y0061826D01*
X0067550Y0061826D01*
X0067550Y0064440D01*
X0067550Y0063049D02*
X0070164Y0063049D01*
X0070164Y0064272D02*
X0067550Y0064272D01*
X0101250Y0048726D02*
X0103864Y0048726D01*
X0101250Y0048726D02*
X0101250Y0051340D01*
X0103864Y0051340D01*
X0103864Y0048726D01*
X0103864Y0049949D02*
X0101250Y0049949D01*
X0101250Y0051172D02*
X0103864Y0051172D01*
X0107250Y0048726D02*
X0109864Y0048726D01*
X0107250Y0048726D02*
X0107250Y0051340D01*
X0109864Y0051340D01*
X0109864Y0048726D01*
X0109864Y0049949D02*
X0107250Y0049949D01*
X0107250Y0051172D02*
X0109864Y0051172D01*
X0112950Y0048726D02*
X0115564Y0048726D01*
X0112950Y0048726D02*
X0112950Y0051340D01*
X0115564Y0051340D01*
X0115564Y0048726D01*
X0115564Y0049949D02*
X0112950Y0049949D01*
X0112950Y0051172D02*
X0115564Y0051172D01*
X0118950Y0048726D02*
X0121564Y0048726D01*
X0118950Y0048726D02*
X0118950Y0051340D01*
X0121564Y0051340D01*
X0121564Y0048726D01*
X0121564Y0049949D02*
X0118950Y0049949D01*
X0118950Y0051172D02*
X0121564Y0051172D01*
X0109864Y0045740D02*
X0107250Y0045740D01*
X0109864Y0045740D02*
X0109864Y0043126D01*
X0107250Y0043126D01*
X0107250Y0045740D01*
X0107250Y0044349D02*
X0109864Y0044349D01*
X0109864Y0045572D02*
X0107250Y0045572D01*
X0103864Y0045740D02*
X0101250Y0045740D01*
X0103864Y0045740D02*
X0103864Y0043126D01*
X0101250Y0043126D01*
X0101250Y0045740D01*
X0101250Y0044349D02*
X0103864Y0044349D01*
X0103864Y0045572D02*
X0101250Y0045572D01*
X0146042Y0059112D02*
X0148656Y0059112D01*
X0146042Y0059112D02*
X0146042Y0061726D01*
X0148656Y0061726D01*
X0148656Y0059112D01*
X0148656Y0060335D02*
X0146042Y0060335D01*
X0146042Y0061558D02*
X0148656Y0061558D01*
X0152042Y0059112D02*
X0154656Y0059112D01*
X0152042Y0059112D02*
X0152042Y0061726D01*
X0154656Y0061726D01*
X0154656Y0059112D01*
X0154656Y0060335D02*
X0152042Y0060335D01*
X0152042Y0061558D02*
X0154656Y0061558D01*
X0154608Y0064839D02*
X0154608Y0067453D01*
X0154608Y0064839D02*
X0151994Y0064839D01*
X0151994Y0067453D01*
X0154608Y0067453D01*
X0154608Y0066062D02*
X0151994Y0066062D01*
X0151994Y0067285D02*
X0154608Y0067285D01*
X0154608Y0070839D02*
X0154608Y0073453D01*
X0154608Y0070839D02*
X0151994Y0070839D01*
X0151994Y0073453D01*
X0154608Y0073453D01*
X0154608Y0072062D02*
X0151994Y0072062D01*
X0151994Y0073285D02*
X0154608Y0073285D01*
X0154608Y0076439D02*
X0154608Y0079053D01*
X0154608Y0076439D02*
X0151994Y0076439D01*
X0151994Y0079053D01*
X0154608Y0079053D01*
X0154608Y0077662D02*
X0151994Y0077662D01*
X0151994Y0078885D02*
X0154608Y0078885D01*
X0154608Y0082439D02*
X0154608Y0085053D01*
X0154608Y0082439D02*
X0151994Y0082439D01*
X0151994Y0085053D01*
X0154608Y0085053D01*
X0154608Y0083662D02*
X0151994Y0083662D01*
X0151994Y0084885D02*
X0154608Y0084885D01*
X0168530Y0098346D02*
X0171144Y0098346D01*
X0171144Y0095732D01*
X0168530Y0095732D01*
X0168530Y0098346D01*
X0168530Y0096955D02*
X0171144Y0096955D01*
X0171144Y0098178D02*
X0168530Y0098178D01*
X0174530Y0098346D02*
X0177144Y0098346D01*
X0177144Y0095732D01*
X0174530Y0095732D01*
X0174530Y0098346D01*
X0174530Y0096955D02*
X0177144Y0096955D01*
X0177144Y0098178D02*
X0174530Y0098178D01*
X0180169Y0098306D02*
X0182783Y0098306D01*
X0182783Y0095692D01*
X0180169Y0095692D01*
X0180169Y0098306D01*
X0180169Y0096915D02*
X0182783Y0096915D01*
X0182783Y0098138D02*
X0180169Y0098138D01*
X0186169Y0098306D02*
X0188783Y0098306D01*
X0188783Y0095692D01*
X0186169Y0095692D01*
X0186169Y0098306D01*
X0186169Y0096915D02*
X0188783Y0096915D01*
X0188783Y0098138D02*
X0186169Y0098138D01*
X0124687Y0089628D02*
X0122073Y0089628D01*
X0122073Y0092242D01*
X0124687Y0092242D01*
X0124687Y0089628D01*
X0124687Y0090851D02*
X0122073Y0090851D01*
X0122073Y0092074D02*
X0124687Y0092074D01*
X0118687Y0089628D02*
X0116073Y0089628D01*
X0116073Y0092242D01*
X0118687Y0092242D01*
X0118687Y0089628D01*
X0118687Y0090851D02*
X0116073Y0090851D01*
X0116073Y0092074D02*
X0118687Y0092074D01*
X0106964Y0090940D02*
X0106964Y0088326D01*
X0104350Y0088326D01*
X0104350Y0090940D01*
X0106964Y0090940D01*
X0106964Y0089549D02*
X0104350Y0089549D01*
X0104350Y0090772D02*
X0106964Y0090772D01*
X0106964Y0094326D02*
X0106964Y0096940D01*
X0106964Y0094326D02*
X0104350Y0094326D01*
X0104350Y0096940D01*
X0106964Y0096940D01*
X0106964Y0095549D02*
X0104350Y0095549D01*
X0104350Y0096772D02*
X0106964Y0096772D01*
X0153562Y0042153D02*
X0156176Y0042153D01*
X0153562Y0042153D02*
X0153562Y0044767D01*
X0156176Y0044767D01*
X0156176Y0042153D01*
X0156176Y0043376D02*
X0153562Y0043376D01*
X0153562Y0044599D02*
X0156176Y0044599D01*
X0159562Y0042153D02*
X0162176Y0042153D01*
X0159562Y0042153D02*
X0159562Y0044767D01*
X0162176Y0044767D01*
X0162176Y0042153D01*
X0162176Y0043376D02*
X0159562Y0043376D01*
X0159562Y0044599D02*
X0162176Y0044599D01*
X0162176Y0036453D02*
X0159562Y0036453D01*
X0159562Y0039067D01*
X0162176Y0039067D01*
X0162176Y0036453D01*
X0162176Y0037676D02*
X0159562Y0037676D01*
X0159562Y0038899D02*
X0162176Y0038899D01*
X0156176Y0036453D02*
X0153562Y0036453D01*
X0153562Y0039067D01*
X0156176Y0039067D01*
X0156176Y0036453D01*
X0156176Y0037676D02*
X0153562Y0037676D01*
X0153562Y0038899D02*
X0156176Y0038899D01*
D13*
X0089906Y0089950D03*
X0097906Y0093691D03*
X0089906Y0097431D03*
D14*
X0117574Y0025933D03*
D15*
X0107574Y0025933D03*
X0097574Y0025933D03*
X0087574Y0025933D03*
D16*
X0053527Y0052091D03*
X0053527Y0091461D03*
X0153920Y0091461D03*
X0153920Y0052091D03*
D17*
X0118528Y0057762D03*
X0115969Y0057762D03*
X0113410Y0057762D03*
X0110851Y0057762D03*
X0108292Y0057762D03*
X0105733Y0057762D03*
X0103174Y0057762D03*
X0100615Y0057762D03*
X0098056Y0057762D03*
X0095497Y0057762D03*
X0095497Y0081896D03*
X0098056Y0081896D03*
X0100615Y0081896D03*
X0103174Y0081896D03*
X0105733Y0081896D03*
X0108292Y0081896D03*
X0110792Y0081896D03*
X0113351Y0081896D03*
X0115910Y0081896D03*
X0118469Y0081896D03*
D18*
X0122446Y0037633D03*
X0110320Y0037633D03*
X0098194Y0037633D03*
X0086068Y0037633D03*
D19*
X0073175Y0034218D03*
X0069238Y0034218D03*
X0065301Y0034218D03*
X0061364Y0034218D03*
X0132772Y0034218D03*
X0136709Y0034218D03*
X0140646Y0034218D03*
X0144583Y0034218D03*
D20*
X0149702Y0024277D03*
X0127654Y0024277D03*
X0078293Y0024277D03*
X0056246Y0024277D03*
D21*
X0162813Y0052809D03*
X0162813Y0057809D03*
X0162813Y0062809D03*
X0162813Y0067809D03*
X0162813Y0072809D03*
X0162813Y0077809D03*
X0162813Y0082809D03*
X0162813Y0087809D03*
X0184860Y0087809D03*
X0184860Y0082809D03*
X0184860Y0077809D03*
X0184860Y0072809D03*
X0184860Y0067809D03*
X0184860Y0062809D03*
X0184860Y0057809D03*
X0184860Y0052809D03*
D22*
X0048857Y0059933D03*
X0043857Y0059933D03*
X0038857Y0059933D03*
X0033857Y0059933D03*
X0028857Y0059933D03*
X0023857Y0059933D03*
X0018857Y0059933D03*
X0018857Y0082283D03*
X0023857Y0082283D03*
X0028857Y0082283D03*
X0033857Y0082283D03*
X0038857Y0082283D03*
X0043857Y0082283D03*
X0048857Y0082283D03*
D23*
X0110457Y0095633D03*
D24*
X0168357Y0043833D03*
X0168357Y0040633D03*
X0168357Y0037433D03*
D25*
X0168357Y0037133D02*
X0168357Y0044033D01*
M02*
