G75*
%MOIN*%
%OFA0B0*%
%FSLAX25Y25*%
%IPPOS*%
%LPD*%
%AMOC8*
5,1,8,0,0,1.08239X$1,22.5*
%
%ADD10C,0.00000*%
%ADD11C,0.00875*%
%ADD12R,0.04500X0.03500*%
%ADD13R,0.01378X0.05906*%
%ADD14R,0.02362X0.06102*%
%ADD15R,0.04724X0.07087*%
%ADD16R,0.08661X0.02362*%
%ADD17R,0.02600X0.08000*%
D10*
X0014157Y0019933D02*
X0014157Y0104733D01*
X0191322Y0104733D01*
X0191322Y0019933D01*
X0014157Y0019933D01*
X0018094Y0027807D02*
X0018096Y0027932D01*
X0018102Y0028057D01*
X0018112Y0028181D01*
X0018126Y0028305D01*
X0018143Y0028429D01*
X0018165Y0028552D01*
X0018191Y0028674D01*
X0018220Y0028796D01*
X0018253Y0028916D01*
X0018291Y0029035D01*
X0018331Y0029154D01*
X0018376Y0029270D01*
X0018424Y0029385D01*
X0018476Y0029499D01*
X0018532Y0029611D01*
X0018591Y0029721D01*
X0018653Y0029829D01*
X0018719Y0029936D01*
X0018788Y0030040D01*
X0018861Y0030141D01*
X0018936Y0030241D01*
X0019015Y0030338D01*
X0019097Y0030432D01*
X0019182Y0030524D01*
X0019269Y0030613D01*
X0019360Y0030699D01*
X0019453Y0030782D01*
X0019549Y0030863D01*
X0019647Y0030940D01*
X0019747Y0031014D01*
X0019850Y0031085D01*
X0019955Y0031152D01*
X0020063Y0031217D01*
X0020172Y0031277D01*
X0020283Y0031335D01*
X0020396Y0031388D01*
X0020510Y0031438D01*
X0020626Y0031485D01*
X0020743Y0031527D01*
X0020862Y0031566D01*
X0020982Y0031602D01*
X0021103Y0031633D01*
X0021225Y0031661D01*
X0021347Y0031684D01*
X0021471Y0031704D01*
X0021595Y0031720D01*
X0021719Y0031732D01*
X0021844Y0031740D01*
X0021969Y0031744D01*
X0022093Y0031744D01*
X0022218Y0031740D01*
X0022343Y0031732D01*
X0022467Y0031720D01*
X0022591Y0031704D01*
X0022715Y0031684D01*
X0022837Y0031661D01*
X0022959Y0031633D01*
X0023080Y0031602D01*
X0023200Y0031566D01*
X0023319Y0031527D01*
X0023436Y0031485D01*
X0023552Y0031438D01*
X0023666Y0031388D01*
X0023779Y0031335D01*
X0023890Y0031277D01*
X0024000Y0031217D01*
X0024107Y0031152D01*
X0024212Y0031085D01*
X0024315Y0031014D01*
X0024415Y0030940D01*
X0024513Y0030863D01*
X0024609Y0030782D01*
X0024702Y0030699D01*
X0024793Y0030613D01*
X0024880Y0030524D01*
X0024965Y0030432D01*
X0025047Y0030338D01*
X0025126Y0030241D01*
X0025201Y0030141D01*
X0025274Y0030040D01*
X0025343Y0029936D01*
X0025409Y0029829D01*
X0025471Y0029721D01*
X0025530Y0029611D01*
X0025586Y0029499D01*
X0025638Y0029385D01*
X0025686Y0029270D01*
X0025731Y0029154D01*
X0025771Y0029035D01*
X0025809Y0028916D01*
X0025842Y0028796D01*
X0025871Y0028674D01*
X0025897Y0028552D01*
X0025919Y0028429D01*
X0025936Y0028305D01*
X0025950Y0028181D01*
X0025960Y0028057D01*
X0025966Y0027932D01*
X0025968Y0027807D01*
X0025966Y0027682D01*
X0025960Y0027557D01*
X0025950Y0027433D01*
X0025936Y0027309D01*
X0025919Y0027185D01*
X0025897Y0027062D01*
X0025871Y0026940D01*
X0025842Y0026818D01*
X0025809Y0026698D01*
X0025771Y0026579D01*
X0025731Y0026460D01*
X0025686Y0026344D01*
X0025638Y0026229D01*
X0025586Y0026115D01*
X0025530Y0026003D01*
X0025471Y0025893D01*
X0025409Y0025785D01*
X0025343Y0025678D01*
X0025274Y0025574D01*
X0025201Y0025473D01*
X0025126Y0025373D01*
X0025047Y0025276D01*
X0024965Y0025182D01*
X0024880Y0025090D01*
X0024793Y0025001D01*
X0024702Y0024915D01*
X0024609Y0024832D01*
X0024513Y0024751D01*
X0024415Y0024674D01*
X0024315Y0024600D01*
X0024212Y0024529D01*
X0024107Y0024462D01*
X0023999Y0024397D01*
X0023890Y0024337D01*
X0023779Y0024279D01*
X0023666Y0024226D01*
X0023552Y0024176D01*
X0023436Y0024129D01*
X0023319Y0024087D01*
X0023200Y0024048D01*
X0023080Y0024012D01*
X0022959Y0023981D01*
X0022837Y0023953D01*
X0022715Y0023930D01*
X0022591Y0023910D01*
X0022467Y0023894D01*
X0022343Y0023882D01*
X0022218Y0023874D01*
X0022093Y0023870D01*
X0021969Y0023870D01*
X0021844Y0023874D01*
X0021719Y0023882D01*
X0021595Y0023894D01*
X0021471Y0023910D01*
X0021347Y0023930D01*
X0021225Y0023953D01*
X0021103Y0023981D01*
X0020982Y0024012D01*
X0020862Y0024048D01*
X0020743Y0024087D01*
X0020626Y0024129D01*
X0020510Y0024176D01*
X0020396Y0024226D01*
X0020283Y0024279D01*
X0020172Y0024337D01*
X0020062Y0024397D01*
X0019955Y0024462D01*
X0019850Y0024529D01*
X0019747Y0024600D01*
X0019647Y0024674D01*
X0019549Y0024751D01*
X0019453Y0024832D01*
X0019360Y0024915D01*
X0019269Y0025001D01*
X0019182Y0025090D01*
X0019097Y0025182D01*
X0019015Y0025276D01*
X0018936Y0025373D01*
X0018861Y0025473D01*
X0018788Y0025574D01*
X0018719Y0025678D01*
X0018653Y0025785D01*
X0018591Y0025893D01*
X0018532Y0026003D01*
X0018476Y0026115D01*
X0018424Y0026229D01*
X0018376Y0026344D01*
X0018331Y0026460D01*
X0018291Y0026579D01*
X0018253Y0026698D01*
X0018220Y0026818D01*
X0018191Y0026940D01*
X0018165Y0027062D01*
X0018143Y0027185D01*
X0018126Y0027309D01*
X0018112Y0027433D01*
X0018102Y0027557D01*
X0018096Y0027682D01*
X0018094Y0027807D01*
X0178094Y0027807D02*
X0178096Y0027932D01*
X0178102Y0028057D01*
X0178112Y0028181D01*
X0178126Y0028305D01*
X0178143Y0028429D01*
X0178165Y0028552D01*
X0178191Y0028674D01*
X0178220Y0028796D01*
X0178253Y0028916D01*
X0178291Y0029035D01*
X0178331Y0029154D01*
X0178376Y0029270D01*
X0178424Y0029385D01*
X0178476Y0029499D01*
X0178532Y0029611D01*
X0178591Y0029721D01*
X0178653Y0029829D01*
X0178719Y0029936D01*
X0178788Y0030040D01*
X0178861Y0030141D01*
X0178936Y0030241D01*
X0179015Y0030338D01*
X0179097Y0030432D01*
X0179182Y0030524D01*
X0179269Y0030613D01*
X0179360Y0030699D01*
X0179453Y0030782D01*
X0179549Y0030863D01*
X0179647Y0030940D01*
X0179747Y0031014D01*
X0179850Y0031085D01*
X0179955Y0031152D01*
X0180063Y0031217D01*
X0180172Y0031277D01*
X0180283Y0031335D01*
X0180396Y0031388D01*
X0180510Y0031438D01*
X0180626Y0031485D01*
X0180743Y0031527D01*
X0180862Y0031566D01*
X0180982Y0031602D01*
X0181103Y0031633D01*
X0181225Y0031661D01*
X0181347Y0031684D01*
X0181471Y0031704D01*
X0181595Y0031720D01*
X0181719Y0031732D01*
X0181844Y0031740D01*
X0181969Y0031744D01*
X0182093Y0031744D01*
X0182218Y0031740D01*
X0182343Y0031732D01*
X0182467Y0031720D01*
X0182591Y0031704D01*
X0182715Y0031684D01*
X0182837Y0031661D01*
X0182959Y0031633D01*
X0183080Y0031602D01*
X0183200Y0031566D01*
X0183319Y0031527D01*
X0183436Y0031485D01*
X0183552Y0031438D01*
X0183666Y0031388D01*
X0183779Y0031335D01*
X0183890Y0031277D01*
X0184000Y0031217D01*
X0184107Y0031152D01*
X0184212Y0031085D01*
X0184315Y0031014D01*
X0184415Y0030940D01*
X0184513Y0030863D01*
X0184609Y0030782D01*
X0184702Y0030699D01*
X0184793Y0030613D01*
X0184880Y0030524D01*
X0184965Y0030432D01*
X0185047Y0030338D01*
X0185126Y0030241D01*
X0185201Y0030141D01*
X0185274Y0030040D01*
X0185343Y0029936D01*
X0185409Y0029829D01*
X0185471Y0029721D01*
X0185530Y0029611D01*
X0185586Y0029499D01*
X0185638Y0029385D01*
X0185686Y0029270D01*
X0185731Y0029154D01*
X0185771Y0029035D01*
X0185809Y0028916D01*
X0185842Y0028796D01*
X0185871Y0028674D01*
X0185897Y0028552D01*
X0185919Y0028429D01*
X0185936Y0028305D01*
X0185950Y0028181D01*
X0185960Y0028057D01*
X0185966Y0027932D01*
X0185968Y0027807D01*
X0185966Y0027682D01*
X0185960Y0027557D01*
X0185950Y0027433D01*
X0185936Y0027309D01*
X0185919Y0027185D01*
X0185897Y0027062D01*
X0185871Y0026940D01*
X0185842Y0026818D01*
X0185809Y0026698D01*
X0185771Y0026579D01*
X0185731Y0026460D01*
X0185686Y0026344D01*
X0185638Y0026229D01*
X0185586Y0026115D01*
X0185530Y0026003D01*
X0185471Y0025893D01*
X0185409Y0025785D01*
X0185343Y0025678D01*
X0185274Y0025574D01*
X0185201Y0025473D01*
X0185126Y0025373D01*
X0185047Y0025276D01*
X0184965Y0025182D01*
X0184880Y0025090D01*
X0184793Y0025001D01*
X0184702Y0024915D01*
X0184609Y0024832D01*
X0184513Y0024751D01*
X0184415Y0024674D01*
X0184315Y0024600D01*
X0184212Y0024529D01*
X0184107Y0024462D01*
X0183999Y0024397D01*
X0183890Y0024337D01*
X0183779Y0024279D01*
X0183666Y0024226D01*
X0183552Y0024176D01*
X0183436Y0024129D01*
X0183319Y0024087D01*
X0183200Y0024048D01*
X0183080Y0024012D01*
X0182959Y0023981D01*
X0182837Y0023953D01*
X0182715Y0023930D01*
X0182591Y0023910D01*
X0182467Y0023894D01*
X0182343Y0023882D01*
X0182218Y0023874D01*
X0182093Y0023870D01*
X0181969Y0023870D01*
X0181844Y0023874D01*
X0181719Y0023882D01*
X0181595Y0023894D01*
X0181471Y0023910D01*
X0181347Y0023930D01*
X0181225Y0023953D01*
X0181103Y0023981D01*
X0180982Y0024012D01*
X0180862Y0024048D01*
X0180743Y0024087D01*
X0180626Y0024129D01*
X0180510Y0024176D01*
X0180396Y0024226D01*
X0180283Y0024279D01*
X0180172Y0024337D01*
X0180062Y0024397D01*
X0179955Y0024462D01*
X0179850Y0024529D01*
X0179747Y0024600D01*
X0179647Y0024674D01*
X0179549Y0024751D01*
X0179453Y0024832D01*
X0179360Y0024915D01*
X0179269Y0025001D01*
X0179182Y0025090D01*
X0179097Y0025182D01*
X0179015Y0025276D01*
X0178936Y0025373D01*
X0178861Y0025473D01*
X0178788Y0025574D01*
X0178719Y0025678D01*
X0178653Y0025785D01*
X0178591Y0025893D01*
X0178532Y0026003D01*
X0178476Y0026115D01*
X0178424Y0026229D01*
X0178376Y0026344D01*
X0178331Y0026460D01*
X0178291Y0026579D01*
X0178253Y0026698D01*
X0178220Y0026818D01*
X0178191Y0026940D01*
X0178165Y0027062D01*
X0178143Y0027185D01*
X0178126Y0027309D01*
X0178112Y0027433D01*
X0178102Y0027557D01*
X0178096Y0027682D01*
X0178094Y0027807D01*
D11*
X0162182Y0036447D02*
X0159556Y0036447D01*
X0159556Y0039073D01*
X0162182Y0039073D01*
X0162182Y0036447D01*
X0162182Y0037278D02*
X0159556Y0037278D01*
X0159556Y0038109D02*
X0162182Y0038109D01*
X0162182Y0038940D02*
X0159556Y0038940D01*
X0156182Y0036447D02*
X0153556Y0036447D01*
X0153556Y0039073D01*
X0156182Y0039073D01*
X0156182Y0036447D01*
X0156182Y0037278D02*
X0153556Y0037278D01*
X0153556Y0038109D02*
X0156182Y0038109D01*
X0156182Y0038940D02*
X0153556Y0038940D01*
X0153556Y0042147D02*
X0156182Y0042147D01*
X0153556Y0042147D02*
X0153556Y0044773D01*
X0156182Y0044773D01*
X0156182Y0042147D01*
X0156182Y0042978D02*
X0153556Y0042978D01*
X0153556Y0043809D02*
X0156182Y0043809D01*
X0156182Y0044640D02*
X0153556Y0044640D01*
X0159556Y0042147D02*
X0162182Y0042147D01*
X0159556Y0042147D02*
X0159556Y0044773D01*
X0162182Y0044773D01*
X0162182Y0042147D01*
X0162182Y0042978D02*
X0159556Y0042978D01*
X0159556Y0043809D02*
X0162182Y0043809D01*
X0162182Y0044640D02*
X0159556Y0044640D01*
X0154662Y0059106D02*
X0152036Y0059106D01*
X0152036Y0061732D01*
X0154662Y0061732D01*
X0154662Y0059106D01*
X0154662Y0059937D02*
X0152036Y0059937D01*
X0152036Y0060768D02*
X0154662Y0060768D01*
X0154662Y0061599D02*
X0152036Y0061599D01*
X0148662Y0059106D02*
X0146036Y0059106D01*
X0146036Y0061732D01*
X0148662Y0061732D01*
X0148662Y0059106D01*
X0148662Y0059937D02*
X0146036Y0059937D01*
X0146036Y0060768D02*
X0148662Y0060768D01*
X0148662Y0061599D02*
X0146036Y0061599D01*
X0154614Y0064833D02*
X0154614Y0067459D01*
X0154614Y0064833D02*
X0151988Y0064833D01*
X0151988Y0067459D01*
X0154614Y0067459D01*
X0154614Y0065664D02*
X0151988Y0065664D01*
X0151988Y0066495D02*
X0154614Y0066495D01*
X0154614Y0067326D02*
X0151988Y0067326D01*
X0154614Y0070833D02*
X0154614Y0073459D01*
X0154614Y0070833D02*
X0151988Y0070833D01*
X0151988Y0073459D01*
X0154614Y0073459D01*
X0154614Y0071664D02*
X0151988Y0071664D01*
X0151988Y0072495D02*
X0154614Y0072495D01*
X0154614Y0073326D02*
X0151988Y0073326D01*
X0154614Y0076433D02*
X0154614Y0079059D01*
X0154614Y0076433D02*
X0151988Y0076433D01*
X0151988Y0079059D01*
X0154614Y0079059D01*
X0154614Y0077264D02*
X0151988Y0077264D01*
X0151988Y0078095D02*
X0154614Y0078095D01*
X0154614Y0078926D02*
X0151988Y0078926D01*
X0154614Y0082433D02*
X0154614Y0085059D01*
X0154614Y0082433D02*
X0151988Y0082433D01*
X0151988Y0085059D01*
X0154614Y0085059D01*
X0154614Y0083264D02*
X0151988Y0083264D01*
X0151988Y0084095D02*
X0154614Y0084095D01*
X0154614Y0084926D02*
X0151988Y0084926D01*
X0168524Y0098352D02*
X0171150Y0098352D01*
X0171150Y0095726D01*
X0168524Y0095726D01*
X0168524Y0098352D01*
X0168524Y0096557D02*
X0171150Y0096557D01*
X0171150Y0097388D02*
X0168524Y0097388D01*
X0168524Y0098219D02*
X0171150Y0098219D01*
X0174524Y0098352D02*
X0177150Y0098352D01*
X0177150Y0095726D01*
X0174524Y0095726D01*
X0174524Y0098352D01*
X0174524Y0096557D02*
X0177150Y0096557D01*
X0177150Y0097388D02*
X0174524Y0097388D01*
X0174524Y0098219D02*
X0177150Y0098219D01*
X0180163Y0098312D02*
X0182789Y0098312D01*
X0182789Y0095686D01*
X0180163Y0095686D01*
X0180163Y0098312D01*
X0180163Y0096517D02*
X0182789Y0096517D01*
X0182789Y0097348D02*
X0180163Y0097348D01*
X0180163Y0098179D02*
X0182789Y0098179D01*
X0186163Y0098312D02*
X0188789Y0098312D01*
X0188789Y0095686D01*
X0186163Y0095686D01*
X0186163Y0098312D01*
X0186163Y0096517D02*
X0188789Y0096517D01*
X0188789Y0097348D02*
X0186163Y0097348D01*
X0186163Y0098179D02*
X0188789Y0098179D01*
X0124693Y0089622D02*
X0122067Y0089622D01*
X0122067Y0092248D01*
X0124693Y0092248D01*
X0124693Y0089622D01*
X0124693Y0090453D02*
X0122067Y0090453D01*
X0122067Y0091284D02*
X0124693Y0091284D01*
X0124693Y0092115D02*
X0122067Y0092115D01*
X0118693Y0089622D02*
X0116067Y0089622D01*
X0116067Y0092248D01*
X0118693Y0092248D01*
X0118693Y0089622D01*
X0118693Y0090453D02*
X0116067Y0090453D01*
X0116067Y0091284D02*
X0118693Y0091284D01*
X0118693Y0092115D02*
X0116067Y0092115D01*
X0106970Y0090946D02*
X0106970Y0088320D01*
X0104344Y0088320D01*
X0104344Y0090946D01*
X0106970Y0090946D01*
X0106970Y0089151D02*
X0104344Y0089151D01*
X0104344Y0089982D02*
X0106970Y0089982D01*
X0106970Y0090813D02*
X0104344Y0090813D01*
X0106970Y0094320D02*
X0106970Y0096946D01*
X0106970Y0094320D02*
X0104344Y0094320D01*
X0104344Y0096946D01*
X0106970Y0096946D01*
X0106970Y0095151D02*
X0104344Y0095151D01*
X0104344Y0095982D02*
X0106970Y0095982D01*
X0106970Y0096813D02*
X0104344Y0096813D01*
X0082970Y0097846D02*
X0080344Y0097846D01*
X0082970Y0097846D02*
X0082970Y0095220D01*
X0080344Y0095220D01*
X0080344Y0097846D01*
X0080344Y0096051D02*
X0082970Y0096051D01*
X0082970Y0096882D02*
X0080344Y0096882D01*
X0080344Y0097713D02*
X0082970Y0097713D01*
X0076970Y0097846D02*
X0074344Y0097846D01*
X0076970Y0097846D02*
X0076970Y0095220D01*
X0074344Y0095220D01*
X0074344Y0097846D01*
X0074344Y0096051D02*
X0076970Y0096051D01*
X0076970Y0096882D02*
X0074344Y0096882D01*
X0074344Y0097713D02*
X0076970Y0097713D01*
X0070070Y0096120D02*
X0067444Y0096120D01*
X0067444Y0098746D01*
X0070070Y0098746D01*
X0070070Y0096120D01*
X0070070Y0096951D02*
X0067444Y0096951D01*
X0067444Y0097782D02*
X0070070Y0097782D01*
X0070070Y0098613D02*
X0067444Y0098613D01*
X0064070Y0096120D02*
X0061444Y0096120D01*
X0061444Y0098746D01*
X0064070Y0098746D01*
X0064070Y0096120D01*
X0064070Y0096951D02*
X0061444Y0096951D01*
X0061444Y0097782D02*
X0064070Y0097782D01*
X0064070Y0098613D02*
X0061444Y0098613D01*
X0061444Y0093046D02*
X0064070Y0093046D01*
X0064070Y0090420D01*
X0061444Y0090420D01*
X0061444Y0093046D01*
X0061444Y0091251D02*
X0064070Y0091251D01*
X0064070Y0092082D02*
X0061444Y0092082D01*
X0061444Y0092913D02*
X0064070Y0092913D01*
X0067444Y0093046D02*
X0070070Y0093046D01*
X0070070Y0090420D01*
X0067444Y0090420D01*
X0067444Y0093046D01*
X0067444Y0091251D02*
X0070070Y0091251D01*
X0070070Y0092082D02*
X0067444Y0092082D01*
X0067444Y0092913D02*
X0070070Y0092913D01*
X0070170Y0084720D02*
X0067544Y0084720D01*
X0067544Y0087346D01*
X0070170Y0087346D01*
X0070170Y0084720D01*
X0070170Y0085551D02*
X0067544Y0085551D01*
X0067544Y0086382D02*
X0070170Y0086382D01*
X0070170Y0087213D02*
X0067544Y0087213D01*
X0064170Y0084720D02*
X0061544Y0084720D01*
X0061544Y0087346D01*
X0064170Y0087346D01*
X0064170Y0084720D01*
X0064170Y0085551D02*
X0061544Y0085551D01*
X0061544Y0086382D02*
X0064170Y0086382D01*
X0064170Y0087213D02*
X0061544Y0087213D01*
X0061544Y0079020D02*
X0064170Y0079020D01*
X0061544Y0079020D02*
X0061544Y0081646D01*
X0064170Y0081646D01*
X0064170Y0079020D01*
X0064170Y0079851D02*
X0061544Y0079851D01*
X0061544Y0080682D02*
X0064170Y0080682D01*
X0064170Y0081513D02*
X0061544Y0081513D01*
X0067544Y0079020D02*
X0070170Y0079020D01*
X0067544Y0079020D02*
X0067544Y0081646D01*
X0070170Y0081646D01*
X0070170Y0079020D01*
X0070170Y0079851D02*
X0067544Y0079851D01*
X0067544Y0080682D02*
X0070170Y0080682D01*
X0070170Y0081513D02*
X0067544Y0081513D01*
X0067544Y0075946D02*
X0070170Y0075946D01*
X0070170Y0073320D01*
X0067544Y0073320D01*
X0067544Y0075946D01*
X0067544Y0074151D02*
X0070170Y0074151D01*
X0070170Y0074982D02*
X0067544Y0074982D01*
X0067544Y0075813D02*
X0070170Y0075813D01*
X0064170Y0075946D02*
X0061544Y0075946D01*
X0064170Y0075946D02*
X0064170Y0073320D01*
X0061544Y0073320D01*
X0061544Y0075946D01*
X0061544Y0074151D02*
X0064170Y0074151D01*
X0064170Y0074982D02*
X0061544Y0074982D01*
X0061544Y0075813D02*
X0064170Y0075813D01*
X0064170Y0067520D02*
X0061544Y0067520D01*
X0061544Y0070146D01*
X0064170Y0070146D01*
X0064170Y0067520D01*
X0064170Y0068351D02*
X0061544Y0068351D01*
X0061544Y0069182D02*
X0064170Y0069182D01*
X0064170Y0070013D02*
X0061544Y0070013D01*
X0067544Y0067520D02*
X0070170Y0067520D01*
X0067544Y0067520D02*
X0067544Y0070146D01*
X0070170Y0070146D01*
X0070170Y0067520D01*
X0070170Y0068351D02*
X0067544Y0068351D01*
X0067544Y0069182D02*
X0070170Y0069182D01*
X0070170Y0070013D02*
X0067544Y0070013D01*
X0067544Y0064446D02*
X0070170Y0064446D01*
X0070170Y0061820D01*
X0067544Y0061820D01*
X0067544Y0064446D01*
X0067544Y0062651D02*
X0070170Y0062651D01*
X0070170Y0063482D02*
X0067544Y0063482D01*
X0067544Y0064313D02*
X0070170Y0064313D01*
X0064170Y0064446D02*
X0061544Y0064446D01*
X0064170Y0064446D02*
X0064170Y0061820D01*
X0061544Y0061820D01*
X0061544Y0064446D01*
X0061544Y0062651D02*
X0064170Y0062651D01*
X0064170Y0063482D02*
X0061544Y0063482D01*
X0061544Y0064313D02*
X0064170Y0064313D01*
X0060344Y0053346D02*
X0060344Y0050720D01*
X0060344Y0053346D02*
X0062970Y0053346D01*
X0062970Y0050720D01*
X0060344Y0050720D01*
X0060344Y0051551D02*
X0062970Y0051551D01*
X0062970Y0052382D02*
X0060344Y0052382D01*
X0060344Y0053213D02*
X0062970Y0053213D01*
X0060344Y0047346D02*
X0060344Y0044720D01*
X0060344Y0047346D02*
X0062970Y0047346D01*
X0062970Y0044720D01*
X0060344Y0044720D01*
X0060344Y0045551D02*
X0062970Y0045551D01*
X0062970Y0046382D02*
X0060344Y0046382D01*
X0060344Y0047213D02*
X0062970Y0047213D01*
X0047344Y0046646D02*
X0047344Y0044020D01*
X0047344Y0046646D02*
X0049970Y0046646D01*
X0049970Y0044020D01*
X0047344Y0044020D01*
X0047344Y0044851D02*
X0049970Y0044851D01*
X0049970Y0045682D02*
X0047344Y0045682D01*
X0047344Y0046513D02*
X0049970Y0046513D01*
X0041744Y0046646D02*
X0041744Y0044020D01*
X0041744Y0046646D02*
X0044370Y0046646D01*
X0044370Y0044020D01*
X0041744Y0044020D01*
X0041744Y0044851D02*
X0044370Y0044851D01*
X0044370Y0045682D02*
X0041744Y0045682D01*
X0041744Y0046513D02*
X0044370Y0046513D01*
X0038670Y0046646D02*
X0038670Y0044020D01*
X0036044Y0044020D01*
X0036044Y0046646D01*
X0038670Y0046646D01*
X0038670Y0044851D02*
X0036044Y0044851D01*
X0036044Y0045682D02*
X0038670Y0045682D01*
X0038670Y0046513D02*
X0036044Y0046513D01*
X0030244Y0046646D02*
X0030244Y0044020D01*
X0030244Y0046646D02*
X0032870Y0046646D01*
X0032870Y0044020D01*
X0030244Y0044020D01*
X0030244Y0044851D02*
X0032870Y0044851D01*
X0032870Y0045682D02*
X0030244Y0045682D01*
X0030244Y0046513D02*
X0032870Y0046513D01*
X0032544Y0050320D02*
X0035170Y0050320D01*
X0032544Y0050320D02*
X0032544Y0052946D01*
X0035170Y0052946D01*
X0035170Y0050320D01*
X0035170Y0051151D02*
X0032544Y0051151D01*
X0032544Y0051982D02*
X0035170Y0051982D01*
X0035170Y0052813D02*
X0032544Y0052813D01*
X0038544Y0050320D02*
X0041170Y0050320D01*
X0038544Y0050320D02*
X0038544Y0052946D01*
X0041170Y0052946D01*
X0041170Y0050320D01*
X0041170Y0051151D02*
X0038544Y0051151D01*
X0038544Y0051982D02*
X0041170Y0051982D01*
X0041170Y0052813D02*
X0038544Y0052813D01*
X0026370Y0051446D02*
X0023744Y0051446D01*
X0026370Y0051446D02*
X0026370Y0048820D01*
X0023744Y0048820D01*
X0023744Y0051446D01*
X0023744Y0049651D02*
X0026370Y0049651D01*
X0026370Y0050482D02*
X0023744Y0050482D01*
X0023744Y0051313D02*
X0026370Y0051313D01*
X0020370Y0051446D02*
X0017744Y0051446D01*
X0020370Y0051446D02*
X0020370Y0048820D01*
X0017744Y0048820D01*
X0017744Y0051446D01*
X0017744Y0049651D02*
X0020370Y0049651D01*
X0020370Y0050482D02*
X0017744Y0050482D01*
X0017744Y0051313D02*
X0020370Y0051313D01*
X0020370Y0045646D02*
X0017744Y0045646D01*
X0020370Y0045646D02*
X0020370Y0043020D01*
X0017744Y0043020D01*
X0017744Y0045646D01*
X0017744Y0043851D02*
X0020370Y0043851D01*
X0020370Y0044682D02*
X0017744Y0044682D01*
X0017744Y0045513D02*
X0020370Y0045513D01*
X0023744Y0045646D02*
X0026370Y0045646D01*
X0026370Y0043020D01*
X0023744Y0043020D01*
X0023744Y0045646D01*
X0023744Y0043851D02*
X0026370Y0043851D01*
X0026370Y0044682D02*
X0023744Y0044682D01*
X0023744Y0045513D02*
X0026370Y0045513D01*
X0030244Y0040646D02*
X0030244Y0038020D01*
X0030244Y0040646D02*
X0032870Y0040646D01*
X0032870Y0038020D01*
X0030244Y0038020D01*
X0030244Y0038851D02*
X0032870Y0038851D01*
X0032870Y0039682D02*
X0030244Y0039682D01*
X0030244Y0040513D02*
X0032870Y0040513D01*
X0038670Y0040646D02*
X0038670Y0038020D01*
X0036044Y0038020D01*
X0036044Y0040646D01*
X0038670Y0040646D01*
X0038670Y0038851D02*
X0036044Y0038851D01*
X0036044Y0039682D02*
X0038670Y0039682D01*
X0038670Y0040513D02*
X0036044Y0040513D01*
X0041744Y0040646D02*
X0041744Y0038020D01*
X0041744Y0040646D02*
X0044370Y0040646D01*
X0044370Y0038020D01*
X0041744Y0038020D01*
X0041744Y0038851D02*
X0044370Y0038851D01*
X0044370Y0039682D02*
X0041744Y0039682D01*
X0041744Y0040513D02*
X0044370Y0040513D01*
X0047344Y0040646D02*
X0047344Y0038020D01*
X0047344Y0040646D02*
X0049970Y0040646D01*
X0049970Y0038020D01*
X0047344Y0038020D01*
X0047344Y0038851D02*
X0049970Y0038851D01*
X0049970Y0039682D02*
X0047344Y0039682D01*
X0047344Y0040513D02*
X0049970Y0040513D01*
X0046344Y0031546D02*
X0046344Y0028920D01*
X0046344Y0031546D02*
X0048970Y0031546D01*
X0048970Y0028920D01*
X0046344Y0028920D01*
X0046344Y0029751D02*
X0048970Y0029751D01*
X0048970Y0030582D02*
X0046344Y0030582D01*
X0046344Y0031413D02*
X0048970Y0031413D01*
X0040644Y0031446D02*
X0040644Y0028820D01*
X0040644Y0031446D02*
X0043270Y0031446D01*
X0043270Y0028820D01*
X0040644Y0028820D01*
X0040644Y0029651D02*
X0043270Y0029651D01*
X0043270Y0030482D02*
X0040644Y0030482D01*
X0040644Y0031313D02*
X0043270Y0031313D01*
X0037470Y0031446D02*
X0037470Y0028820D01*
X0034844Y0028820D01*
X0034844Y0031446D01*
X0037470Y0031446D01*
X0037470Y0029651D02*
X0034844Y0029651D01*
X0034844Y0030482D02*
X0037470Y0030482D01*
X0037470Y0031313D02*
X0034844Y0031313D01*
X0037470Y0025446D02*
X0037470Y0022820D01*
X0034844Y0022820D01*
X0034844Y0025446D01*
X0037470Y0025446D01*
X0037470Y0023651D02*
X0034844Y0023651D01*
X0034844Y0024482D02*
X0037470Y0024482D01*
X0037470Y0025313D02*
X0034844Y0025313D01*
X0040644Y0025446D02*
X0040644Y0022820D01*
X0040644Y0025446D02*
X0043270Y0025446D01*
X0043270Y0022820D01*
X0040644Y0022820D01*
X0040644Y0023651D02*
X0043270Y0023651D01*
X0043270Y0024482D02*
X0040644Y0024482D01*
X0040644Y0025313D02*
X0043270Y0025313D01*
X0046344Y0025546D02*
X0046344Y0022920D01*
X0046344Y0025546D02*
X0048970Y0025546D01*
X0048970Y0022920D01*
X0046344Y0022920D01*
X0046344Y0023751D02*
X0048970Y0023751D01*
X0048970Y0024582D02*
X0046344Y0024582D01*
X0046344Y0025413D02*
X0048970Y0025413D01*
X0026370Y0039846D02*
X0023744Y0039846D01*
X0026370Y0039846D02*
X0026370Y0037220D01*
X0023744Y0037220D01*
X0023744Y0039846D01*
X0023744Y0038051D02*
X0026370Y0038051D01*
X0026370Y0038882D02*
X0023744Y0038882D01*
X0023744Y0039713D02*
X0026370Y0039713D01*
X0020370Y0039846D02*
X0017744Y0039846D01*
X0020370Y0039846D02*
X0020370Y0037220D01*
X0017744Y0037220D01*
X0017744Y0039846D01*
X0017744Y0038051D02*
X0020370Y0038051D01*
X0020370Y0038882D02*
X0017744Y0038882D01*
X0017744Y0039713D02*
X0020370Y0039713D01*
X0101244Y0045746D02*
X0103870Y0045746D01*
X0103870Y0043120D01*
X0101244Y0043120D01*
X0101244Y0045746D01*
X0101244Y0043951D02*
X0103870Y0043951D01*
X0103870Y0044782D02*
X0101244Y0044782D01*
X0101244Y0045613D02*
X0103870Y0045613D01*
X0107244Y0045746D02*
X0109870Y0045746D01*
X0109870Y0043120D01*
X0107244Y0043120D01*
X0107244Y0045746D01*
X0107244Y0043951D02*
X0109870Y0043951D01*
X0109870Y0044782D02*
X0107244Y0044782D01*
X0107244Y0045613D02*
X0109870Y0045613D01*
X0109870Y0048720D02*
X0107244Y0048720D01*
X0107244Y0051346D01*
X0109870Y0051346D01*
X0109870Y0048720D01*
X0109870Y0049551D02*
X0107244Y0049551D01*
X0107244Y0050382D02*
X0109870Y0050382D01*
X0109870Y0051213D02*
X0107244Y0051213D01*
X0103870Y0048720D02*
X0101244Y0048720D01*
X0101244Y0051346D01*
X0103870Y0051346D01*
X0103870Y0048720D01*
X0103870Y0049551D02*
X0101244Y0049551D01*
X0101244Y0050382D02*
X0103870Y0050382D01*
X0103870Y0051213D02*
X0101244Y0051213D01*
X0112944Y0048720D02*
X0115570Y0048720D01*
X0112944Y0048720D02*
X0112944Y0051346D01*
X0115570Y0051346D01*
X0115570Y0048720D01*
X0115570Y0049551D02*
X0112944Y0049551D01*
X0112944Y0050382D02*
X0115570Y0050382D01*
X0115570Y0051213D02*
X0112944Y0051213D01*
X0118944Y0048720D02*
X0121570Y0048720D01*
X0118944Y0048720D02*
X0118944Y0051346D01*
X0121570Y0051346D01*
X0121570Y0048720D01*
X0121570Y0049551D02*
X0118944Y0049551D01*
X0118944Y0050382D02*
X0121570Y0050382D01*
X0121570Y0051213D02*
X0118944Y0051213D01*
X0039144Y0091420D02*
X0039144Y0094046D01*
X0041770Y0094046D01*
X0041770Y0091420D01*
X0039144Y0091420D01*
X0039144Y0092251D02*
X0041770Y0092251D01*
X0041770Y0093082D02*
X0039144Y0093082D01*
X0039144Y0093913D02*
X0041770Y0093913D01*
X0033544Y0094046D02*
X0033544Y0091420D01*
X0033544Y0094046D02*
X0036170Y0094046D01*
X0036170Y0091420D01*
X0033544Y0091420D01*
X0033544Y0092251D02*
X0036170Y0092251D01*
X0036170Y0093082D02*
X0033544Y0093082D01*
X0033544Y0093913D02*
X0036170Y0093913D01*
X0027944Y0094046D02*
X0027944Y0091420D01*
X0027944Y0094046D02*
X0030570Y0094046D01*
X0030570Y0091420D01*
X0027944Y0091420D01*
X0027944Y0092251D02*
X0030570Y0092251D01*
X0030570Y0093082D02*
X0027944Y0093082D01*
X0027944Y0093913D02*
X0030570Y0093913D01*
X0027944Y0097420D02*
X0027944Y0100046D01*
X0030570Y0100046D01*
X0030570Y0097420D01*
X0027944Y0097420D01*
X0027944Y0098251D02*
X0030570Y0098251D01*
X0030570Y0099082D02*
X0027944Y0099082D01*
X0027944Y0099913D02*
X0030570Y0099913D01*
X0033544Y0100046D02*
X0033544Y0097420D01*
X0033544Y0100046D02*
X0036170Y0100046D01*
X0036170Y0097420D01*
X0033544Y0097420D01*
X0033544Y0098251D02*
X0036170Y0098251D01*
X0036170Y0099082D02*
X0033544Y0099082D01*
X0033544Y0099913D02*
X0036170Y0099913D01*
X0039144Y0100046D02*
X0039144Y0097420D01*
X0039144Y0100046D02*
X0041770Y0100046D01*
X0041770Y0097420D01*
X0039144Y0097420D01*
X0039144Y0098251D02*
X0041770Y0098251D01*
X0041770Y0099082D02*
X0039144Y0099082D01*
X0039144Y0099913D02*
X0041770Y0099913D01*
X0024870Y0100046D02*
X0024870Y0097420D01*
X0022244Y0097420D01*
X0022244Y0100046D01*
X0024870Y0100046D01*
X0024870Y0098251D02*
X0022244Y0098251D01*
X0022244Y0099082D02*
X0024870Y0099082D01*
X0024870Y0099913D02*
X0022244Y0099913D01*
X0016644Y0100046D02*
X0016644Y0097420D01*
X0016644Y0100046D02*
X0019270Y0100046D01*
X0019270Y0097420D01*
X0016644Y0097420D01*
X0016644Y0098251D02*
X0019270Y0098251D01*
X0019270Y0099082D02*
X0016644Y0099082D01*
X0016644Y0099913D02*
X0019270Y0099913D01*
X0016644Y0094046D02*
X0016644Y0091420D01*
X0016644Y0094046D02*
X0019270Y0094046D01*
X0019270Y0091420D01*
X0016644Y0091420D01*
X0016644Y0092251D02*
X0019270Y0092251D01*
X0019270Y0093082D02*
X0016644Y0093082D01*
X0016644Y0093913D02*
X0019270Y0093913D01*
X0024870Y0094046D02*
X0024870Y0091420D01*
X0022244Y0091420D01*
X0022244Y0094046D01*
X0024870Y0094046D01*
X0024870Y0092251D02*
X0022244Y0092251D01*
X0022244Y0093082D02*
X0024870Y0093082D01*
X0024870Y0093913D02*
X0022244Y0093913D01*
D12*
X0089906Y0097431D03*
X0097906Y0093691D03*
X0089906Y0089950D03*
D13*
X0095497Y0081896D03*
X0098056Y0081896D03*
X0100615Y0081896D03*
X0103174Y0081896D03*
X0105733Y0081896D03*
X0108292Y0081896D03*
X0110792Y0081896D03*
X0113351Y0081896D03*
X0115910Y0081896D03*
X0118469Y0081896D03*
X0118528Y0057762D03*
X0115969Y0057762D03*
X0113410Y0057762D03*
X0110851Y0057762D03*
X0108292Y0057762D03*
X0105733Y0057762D03*
X0103174Y0057762D03*
X0100615Y0057762D03*
X0098056Y0057762D03*
X0095497Y0057762D03*
D14*
X0073175Y0034218D03*
X0069238Y0034218D03*
X0065301Y0034218D03*
X0061364Y0034218D03*
X0132772Y0034218D03*
X0136709Y0034218D03*
X0140646Y0034218D03*
X0144583Y0034218D03*
D15*
X0149702Y0024277D03*
X0127654Y0024277D03*
X0078293Y0024277D03*
X0056246Y0024277D03*
D16*
X0162813Y0052809D03*
X0162813Y0057809D03*
X0162813Y0062809D03*
X0162813Y0067809D03*
X0162813Y0072809D03*
X0162813Y0077809D03*
X0162813Y0082809D03*
X0162813Y0087809D03*
X0184860Y0087809D03*
X0184860Y0082809D03*
X0184860Y0077809D03*
X0184860Y0072809D03*
X0184860Y0067809D03*
X0184860Y0062809D03*
X0184860Y0057809D03*
X0184860Y0052809D03*
D17*
X0048857Y0059933D03*
X0043857Y0059933D03*
X0038857Y0059933D03*
X0033857Y0059933D03*
X0028857Y0059933D03*
X0023857Y0059933D03*
X0018857Y0059933D03*
X0018857Y0082283D03*
X0023857Y0082283D03*
X0028857Y0082283D03*
X0033857Y0082283D03*
X0038857Y0082283D03*
X0043857Y0082283D03*
X0048857Y0082283D03*
M02*
