G75*
%MOIN*%
%OFA0B0*%
%FSLAX25Y25*%
%IPPOS*%
%LPD*%
%AMOC8*
5,1,8,0,0,1.08239X$1,22.5*
%
%ADD10C,0.00000*%
D10*
X0014157Y0019933D02*
X0014157Y0104733D01*
X0191322Y0104733D01*
X0191322Y0019933D01*
X0014157Y0019933D01*
X0018094Y0027807D02*
X0018096Y0027932D01*
X0018102Y0028057D01*
X0018112Y0028181D01*
X0018126Y0028305D01*
X0018143Y0028429D01*
X0018165Y0028552D01*
X0018191Y0028674D01*
X0018220Y0028796D01*
X0018253Y0028916D01*
X0018291Y0029035D01*
X0018331Y0029154D01*
X0018376Y0029270D01*
X0018424Y0029385D01*
X0018476Y0029499D01*
X0018532Y0029611D01*
X0018591Y0029721D01*
X0018653Y0029829D01*
X0018719Y0029936D01*
X0018788Y0030040D01*
X0018861Y0030141D01*
X0018936Y0030241D01*
X0019015Y0030338D01*
X0019097Y0030432D01*
X0019182Y0030524D01*
X0019269Y0030613D01*
X0019360Y0030699D01*
X0019453Y0030782D01*
X0019549Y0030863D01*
X0019647Y0030940D01*
X0019747Y0031014D01*
X0019850Y0031085D01*
X0019955Y0031152D01*
X0020063Y0031217D01*
X0020172Y0031277D01*
X0020283Y0031335D01*
X0020396Y0031388D01*
X0020510Y0031438D01*
X0020626Y0031485D01*
X0020743Y0031527D01*
X0020862Y0031566D01*
X0020982Y0031602D01*
X0021103Y0031633D01*
X0021225Y0031661D01*
X0021347Y0031684D01*
X0021471Y0031704D01*
X0021595Y0031720D01*
X0021719Y0031732D01*
X0021844Y0031740D01*
X0021969Y0031744D01*
X0022093Y0031744D01*
X0022218Y0031740D01*
X0022343Y0031732D01*
X0022467Y0031720D01*
X0022591Y0031704D01*
X0022715Y0031684D01*
X0022837Y0031661D01*
X0022959Y0031633D01*
X0023080Y0031602D01*
X0023200Y0031566D01*
X0023319Y0031527D01*
X0023436Y0031485D01*
X0023552Y0031438D01*
X0023666Y0031388D01*
X0023779Y0031335D01*
X0023890Y0031277D01*
X0024000Y0031217D01*
X0024107Y0031152D01*
X0024212Y0031085D01*
X0024315Y0031014D01*
X0024415Y0030940D01*
X0024513Y0030863D01*
X0024609Y0030782D01*
X0024702Y0030699D01*
X0024793Y0030613D01*
X0024880Y0030524D01*
X0024965Y0030432D01*
X0025047Y0030338D01*
X0025126Y0030241D01*
X0025201Y0030141D01*
X0025274Y0030040D01*
X0025343Y0029936D01*
X0025409Y0029829D01*
X0025471Y0029721D01*
X0025530Y0029611D01*
X0025586Y0029499D01*
X0025638Y0029385D01*
X0025686Y0029270D01*
X0025731Y0029154D01*
X0025771Y0029035D01*
X0025809Y0028916D01*
X0025842Y0028796D01*
X0025871Y0028674D01*
X0025897Y0028552D01*
X0025919Y0028429D01*
X0025936Y0028305D01*
X0025950Y0028181D01*
X0025960Y0028057D01*
X0025966Y0027932D01*
X0025968Y0027807D01*
X0025966Y0027682D01*
X0025960Y0027557D01*
X0025950Y0027433D01*
X0025936Y0027309D01*
X0025919Y0027185D01*
X0025897Y0027062D01*
X0025871Y0026940D01*
X0025842Y0026818D01*
X0025809Y0026698D01*
X0025771Y0026579D01*
X0025731Y0026460D01*
X0025686Y0026344D01*
X0025638Y0026229D01*
X0025586Y0026115D01*
X0025530Y0026003D01*
X0025471Y0025893D01*
X0025409Y0025785D01*
X0025343Y0025678D01*
X0025274Y0025574D01*
X0025201Y0025473D01*
X0025126Y0025373D01*
X0025047Y0025276D01*
X0024965Y0025182D01*
X0024880Y0025090D01*
X0024793Y0025001D01*
X0024702Y0024915D01*
X0024609Y0024832D01*
X0024513Y0024751D01*
X0024415Y0024674D01*
X0024315Y0024600D01*
X0024212Y0024529D01*
X0024107Y0024462D01*
X0023999Y0024397D01*
X0023890Y0024337D01*
X0023779Y0024279D01*
X0023666Y0024226D01*
X0023552Y0024176D01*
X0023436Y0024129D01*
X0023319Y0024087D01*
X0023200Y0024048D01*
X0023080Y0024012D01*
X0022959Y0023981D01*
X0022837Y0023953D01*
X0022715Y0023930D01*
X0022591Y0023910D01*
X0022467Y0023894D01*
X0022343Y0023882D01*
X0022218Y0023874D01*
X0022093Y0023870D01*
X0021969Y0023870D01*
X0021844Y0023874D01*
X0021719Y0023882D01*
X0021595Y0023894D01*
X0021471Y0023910D01*
X0021347Y0023930D01*
X0021225Y0023953D01*
X0021103Y0023981D01*
X0020982Y0024012D01*
X0020862Y0024048D01*
X0020743Y0024087D01*
X0020626Y0024129D01*
X0020510Y0024176D01*
X0020396Y0024226D01*
X0020283Y0024279D01*
X0020172Y0024337D01*
X0020062Y0024397D01*
X0019955Y0024462D01*
X0019850Y0024529D01*
X0019747Y0024600D01*
X0019647Y0024674D01*
X0019549Y0024751D01*
X0019453Y0024832D01*
X0019360Y0024915D01*
X0019269Y0025001D01*
X0019182Y0025090D01*
X0019097Y0025182D01*
X0019015Y0025276D01*
X0018936Y0025373D01*
X0018861Y0025473D01*
X0018788Y0025574D01*
X0018719Y0025678D01*
X0018653Y0025785D01*
X0018591Y0025893D01*
X0018532Y0026003D01*
X0018476Y0026115D01*
X0018424Y0026229D01*
X0018376Y0026344D01*
X0018331Y0026460D01*
X0018291Y0026579D01*
X0018253Y0026698D01*
X0018220Y0026818D01*
X0018191Y0026940D01*
X0018165Y0027062D01*
X0018143Y0027185D01*
X0018126Y0027309D01*
X0018112Y0027433D01*
X0018102Y0027557D01*
X0018096Y0027682D01*
X0018094Y0027807D01*
X0178094Y0027807D02*
X0178096Y0027932D01*
X0178102Y0028057D01*
X0178112Y0028181D01*
X0178126Y0028305D01*
X0178143Y0028429D01*
X0178165Y0028552D01*
X0178191Y0028674D01*
X0178220Y0028796D01*
X0178253Y0028916D01*
X0178291Y0029035D01*
X0178331Y0029154D01*
X0178376Y0029270D01*
X0178424Y0029385D01*
X0178476Y0029499D01*
X0178532Y0029611D01*
X0178591Y0029721D01*
X0178653Y0029829D01*
X0178719Y0029936D01*
X0178788Y0030040D01*
X0178861Y0030141D01*
X0178936Y0030241D01*
X0179015Y0030338D01*
X0179097Y0030432D01*
X0179182Y0030524D01*
X0179269Y0030613D01*
X0179360Y0030699D01*
X0179453Y0030782D01*
X0179549Y0030863D01*
X0179647Y0030940D01*
X0179747Y0031014D01*
X0179850Y0031085D01*
X0179955Y0031152D01*
X0180063Y0031217D01*
X0180172Y0031277D01*
X0180283Y0031335D01*
X0180396Y0031388D01*
X0180510Y0031438D01*
X0180626Y0031485D01*
X0180743Y0031527D01*
X0180862Y0031566D01*
X0180982Y0031602D01*
X0181103Y0031633D01*
X0181225Y0031661D01*
X0181347Y0031684D01*
X0181471Y0031704D01*
X0181595Y0031720D01*
X0181719Y0031732D01*
X0181844Y0031740D01*
X0181969Y0031744D01*
X0182093Y0031744D01*
X0182218Y0031740D01*
X0182343Y0031732D01*
X0182467Y0031720D01*
X0182591Y0031704D01*
X0182715Y0031684D01*
X0182837Y0031661D01*
X0182959Y0031633D01*
X0183080Y0031602D01*
X0183200Y0031566D01*
X0183319Y0031527D01*
X0183436Y0031485D01*
X0183552Y0031438D01*
X0183666Y0031388D01*
X0183779Y0031335D01*
X0183890Y0031277D01*
X0184000Y0031217D01*
X0184107Y0031152D01*
X0184212Y0031085D01*
X0184315Y0031014D01*
X0184415Y0030940D01*
X0184513Y0030863D01*
X0184609Y0030782D01*
X0184702Y0030699D01*
X0184793Y0030613D01*
X0184880Y0030524D01*
X0184965Y0030432D01*
X0185047Y0030338D01*
X0185126Y0030241D01*
X0185201Y0030141D01*
X0185274Y0030040D01*
X0185343Y0029936D01*
X0185409Y0029829D01*
X0185471Y0029721D01*
X0185530Y0029611D01*
X0185586Y0029499D01*
X0185638Y0029385D01*
X0185686Y0029270D01*
X0185731Y0029154D01*
X0185771Y0029035D01*
X0185809Y0028916D01*
X0185842Y0028796D01*
X0185871Y0028674D01*
X0185897Y0028552D01*
X0185919Y0028429D01*
X0185936Y0028305D01*
X0185950Y0028181D01*
X0185960Y0028057D01*
X0185966Y0027932D01*
X0185968Y0027807D01*
X0185966Y0027682D01*
X0185960Y0027557D01*
X0185950Y0027433D01*
X0185936Y0027309D01*
X0185919Y0027185D01*
X0185897Y0027062D01*
X0185871Y0026940D01*
X0185842Y0026818D01*
X0185809Y0026698D01*
X0185771Y0026579D01*
X0185731Y0026460D01*
X0185686Y0026344D01*
X0185638Y0026229D01*
X0185586Y0026115D01*
X0185530Y0026003D01*
X0185471Y0025893D01*
X0185409Y0025785D01*
X0185343Y0025678D01*
X0185274Y0025574D01*
X0185201Y0025473D01*
X0185126Y0025373D01*
X0185047Y0025276D01*
X0184965Y0025182D01*
X0184880Y0025090D01*
X0184793Y0025001D01*
X0184702Y0024915D01*
X0184609Y0024832D01*
X0184513Y0024751D01*
X0184415Y0024674D01*
X0184315Y0024600D01*
X0184212Y0024529D01*
X0184107Y0024462D01*
X0183999Y0024397D01*
X0183890Y0024337D01*
X0183779Y0024279D01*
X0183666Y0024226D01*
X0183552Y0024176D01*
X0183436Y0024129D01*
X0183319Y0024087D01*
X0183200Y0024048D01*
X0183080Y0024012D01*
X0182959Y0023981D01*
X0182837Y0023953D01*
X0182715Y0023930D01*
X0182591Y0023910D01*
X0182467Y0023894D01*
X0182343Y0023882D01*
X0182218Y0023874D01*
X0182093Y0023870D01*
X0181969Y0023870D01*
X0181844Y0023874D01*
X0181719Y0023882D01*
X0181595Y0023894D01*
X0181471Y0023910D01*
X0181347Y0023930D01*
X0181225Y0023953D01*
X0181103Y0023981D01*
X0180982Y0024012D01*
X0180862Y0024048D01*
X0180743Y0024087D01*
X0180626Y0024129D01*
X0180510Y0024176D01*
X0180396Y0024226D01*
X0180283Y0024279D01*
X0180172Y0024337D01*
X0180062Y0024397D01*
X0179955Y0024462D01*
X0179850Y0024529D01*
X0179747Y0024600D01*
X0179647Y0024674D01*
X0179549Y0024751D01*
X0179453Y0024832D01*
X0179360Y0024915D01*
X0179269Y0025001D01*
X0179182Y0025090D01*
X0179097Y0025182D01*
X0179015Y0025276D01*
X0178936Y0025373D01*
X0178861Y0025473D01*
X0178788Y0025574D01*
X0178719Y0025678D01*
X0178653Y0025785D01*
X0178591Y0025893D01*
X0178532Y0026003D01*
X0178476Y0026115D01*
X0178424Y0026229D01*
X0178376Y0026344D01*
X0178331Y0026460D01*
X0178291Y0026579D01*
X0178253Y0026698D01*
X0178220Y0026818D01*
X0178191Y0026940D01*
X0178165Y0027062D01*
X0178143Y0027185D01*
X0178126Y0027309D01*
X0178112Y0027433D01*
X0178102Y0027557D01*
X0178096Y0027682D01*
X0178094Y0027807D01*
M02*
