%
M48
M72
T01C0.01200
T02C0.03500
T03C0.04724
T04C0.07874
%
T01
X30457Y25433
X33257Y32933
X33707Y37233
X47657Y33433
X57357Y35533
X61364Y39840
X65398Y40480
X76357Y46433
X81357Y46433
X86357Y46433
X95457Y47433
X116060Y53683
X118557Y62033
X100157Y64933
X103457Y76433
X99457Y87433
X112057Y90533
X80339Y92251
X72857Y74533
X58457Y63433
X52457Y60433
X38857Y66133
X38457Y70433
X31857Y75033
X25957Y75033
X24457Y70433
X24457Y66433
X19057Y54633
X36457Y48433
X47657Y48933
X17457Y34433
X52057Y24633
X62457Y24533
X73057Y24333
X83357Y34033
X92657Y30933
X102457Y28433
X102457Y23433
X112157Y29333
X124457Y33433
X138357Y40233
X135483Y43460
X145457Y47433
X173857Y40533
X186457Y40433
X186457Y44433
X186457Y48433
X177657Y57733
X177057Y61333
X170357Y77833
X174457Y91733
X187757Y101233
X140657Y25933
X44257Y92633
X45057Y97733
X29257Y101433
T02
X87574Y25933
X97574Y25933
X107574Y25933
X117574Y25933
T03
X153920Y52091
X153920Y91461
X53527Y91461
X53527Y52091
T04
X22031Y27807
X182031Y27807
M30
