G75*
%MOIN*%
%OFA0B0*%
%FSLAX25Y25*%
%IPPOS*%
%LPD*%
%AMOC8*
5,1,8,0,0,1.08239X$1,22.5*
%
%ADD10C,0.00000*%
%ADD11C,0.00875*%
%ADD12R,0.04500X0.03500*%
%ADD13R,0.06500X0.06500*%
%ADD14C,0.06500*%
%ADD15C,0.07087*%
%ADD16R,0.01378X0.05906*%
%ADD17C,0.04724*%
%ADD18R,0.02362X0.06102*%
%ADD19R,0.04724X0.07087*%
%ADD20R,0.08661X0.02362*%
%ADD21R,0.02600X0.08000*%
%ADD22C,0.03500*%
%ADD23R,0.05000X0.02500*%
%ADD24C,0.00800*%
%ADD25C,0.02400*%
%ADD26C,0.01200*%
%ADD27C,0.01000*%
%ADD28C,0.01500*%
%ADD29C,0.02000*%
D10*
X0014157Y0019933D02*
X0014157Y0104733D01*
X0191322Y0104733D01*
X0191322Y0019933D01*
X0014157Y0019933D01*
X0018094Y0027807D02*
X0018096Y0027932D01*
X0018102Y0028057D01*
X0018112Y0028181D01*
X0018126Y0028305D01*
X0018143Y0028429D01*
X0018165Y0028552D01*
X0018191Y0028674D01*
X0018220Y0028796D01*
X0018253Y0028916D01*
X0018291Y0029035D01*
X0018331Y0029154D01*
X0018376Y0029270D01*
X0018424Y0029385D01*
X0018476Y0029499D01*
X0018532Y0029611D01*
X0018591Y0029721D01*
X0018653Y0029829D01*
X0018719Y0029936D01*
X0018788Y0030040D01*
X0018861Y0030141D01*
X0018936Y0030241D01*
X0019015Y0030338D01*
X0019097Y0030432D01*
X0019182Y0030524D01*
X0019269Y0030613D01*
X0019360Y0030699D01*
X0019453Y0030782D01*
X0019549Y0030863D01*
X0019647Y0030940D01*
X0019747Y0031014D01*
X0019850Y0031085D01*
X0019955Y0031152D01*
X0020063Y0031217D01*
X0020172Y0031277D01*
X0020283Y0031335D01*
X0020396Y0031388D01*
X0020510Y0031438D01*
X0020626Y0031485D01*
X0020743Y0031527D01*
X0020862Y0031566D01*
X0020982Y0031602D01*
X0021103Y0031633D01*
X0021225Y0031661D01*
X0021347Y0031684D01*
X0021471Y0031704D01*
X0021595Y0031720D01*
X0021719Y0031732D01*
X0021844Y0031740D01*
X0021969Y0031744D01*
X0022093Y0031744D01*
X0022218Y0031740D01*
X0022343Y0031732D01*
X0022467Y0031720D01*
X0022591Y0031704D01*
X0022715Y0031684D01*
X0022837Y0031661D01*
X0022959Y0031633D01*
X0023080Y0031602D01*
X0023200Y0031566D01*
X0023319Y0031527D01*
X0023436Y0031485D01*
X0023552Y0031438D01*
X0023666Y0031388D01*
X0023779Y0031335D01*
X0023890Y0031277D01*
X0024000Y0031217D01*
X0024107Y0031152D01*
X0024212Y0031085D01*
X0024315Y0031014D01*
X0024415Y0030940D01*
X0024513Y0030863D01*
X0024609Y0030782D01*
X0024702Y0030699D01*
X0024793Y0030613D01*
X0024880Y0030524D01*
X0024965Y0030432D01*
X0025047Y0030338D01*
X0025126Y0030241D01*
X0025201Y0030141D01*
X0025274Y0030040D01*
X0025343Y0029936D01*
X0025409Y0029829D01*
X0025471Y0029721D01*
X0025530Y0029611D01*
X0025586Y0029499D01*
X0025638Y0029385D01*
X0025686Y0029270D01*
X0025731Y0029154D01*
X0025771Y0029035D01*
X0025809Y0028916D01*
X0025842Y0028796D01*
X0025871Y0028674D01*
X0025897Y0028552D01*
X0025919Y0028429D01*
X0025936Y0028305D01*
X0025950Y0028181D01*
X0025960Y0028057D01*
X0025966Y0027932D01*
X0025968Y0027807D01*
X0025966Y0027682D01*
X0025960Y0027557D01*
X0025950Y0027433D01*
X0025936Y0027309D01*
X0025919Y0027185D01*
X0025897Y0027062D01*
X0025871Y0026940D01*
X0025842Y0026818D01*
X0025809Y0026698D01*
X0025771Y0026579D01*
X0025731Y0026460D01*
X0025686Y0026344D01*
X0025638Y0026229D01*
X0025586Y0026115D01*
X0025530Y0026003D01*
X0025471Y0025893D01*
X0025409Y0025785D01*
X0025343Y0025678D01*
X0025274Y0025574D01*
X0025201Y0025473D01*
X0025126Y0025373D01*
X0025047Y0025276D01*
X0024965Y0025182D01*
X0024880Y0025090D01*
X0024793Y0025001D01*
X0024702Y0024915D01*
X0024609Y0024832D01*
X0024513Y0024751D01*
X0024415Y0024674D01*
X0024315Y0024600D01*
X0024212Y0024529D01*
X0024107Y0024462D01*
X0023999Y0024397D01*
X0023890Y0024337D01*
X0023779Y0024279D01*
X0023666Y0024226D01*
X0023552Y0024176D01*
X0023436Y0024129D01*
X0023319Y0024087D01*
X0023200Y0024048D01*
X0023080Y0024012D01*
X0022959Y0023981D01*
X0022837Y0023953D01*
X0022715Y0023930D01*
X0022591Y0023910D01*
X0022467Y0023894D01*
X0022343Y0023882D01*
X0022218Y0023874D01*
X0022093Y0023870D01*
X0021969Y0023870D01*
X0021844Y0023874D01*
X0021719Y0023882D01*
X0021595Y0023894D01*
X0021471Y0023910D01*
X0021347Y0023930D01*
X0021225Y0023953D01*
X0021103Y0023981D01*
X0020982Y0024012D01*
X0020862Y0024048D01*
X0020743Y0024087D01*
X0020626Y0024129D01*
X0020510Y0024176D01*
X0020396Y0024226D01*
X0020283Y0024279D01*
X0020172Y0024337D01*
X0020062Y0024397D01*
X0019955Y0024462D01*
X0019850Y0024529D01*
X0019747Y0024600D01*
X0019647Y0024674D01*
X0019549Y0024751D01*
X0019453Y0024832D01*
X0019360Y0024915D01*
X0019269Y0025001D01*
X0019182Y0025090D01*
X0019097Y0025182D01*
X0019015Y0025276D01*
X0018936Y0025373D01*
X0018861Y0025473D01*
X0018788Y0025574D01*
X0018719Y0025678D01*
X0018653Y0025785D01*
X0018591Y0025893D01*
X0018532Y0026003D01*
X0018476Y0026115D01*
X0018424Y0026229D01*
X0018376Y0026344D01*
X0018331Y0026460D01*
X0018291Y0026579D01*
X0018253Y0026698D01*
X0018220Y0026818D01*
X0018191Y0026940D01*
X0018165Y0027062D01*
X0018143Y0027185D01*
X0018126Y0027309D01*
X0018112Y0027433D01*
X0018102Y0027557D01*
X0018096Y0027682D01*
X0018094Y0027807D01*
X0178094Y0027807D02*
X0178096Y0027932D01*
X0178102Y0028057D01*
X0178112Y0028181D01*
X0178126Y0028305D01*
X0178143Y0028429D01*
X0178165Y0028552D01*
X0178191Y0028674D01*
X0178220Y0028796D01*
X0178253Y0028916D01*
X0178291Y0029035D01*
X0178331Y0029154D01*
X0178376Y0029270D01*
X0178424Y0029385D01*
X0178476Y0029499D01*
X0178532Y0029611D01*
X0178591Y0029721D01*
X0178653Y0029829D01*
X0178719Y0029936D01*
X0178788Y0030040D01*
X0178861Y0030141D01*
X0178936Y0030241D01*
X0179015Y0030338D01*
X0179097Y0030432D01*
X0179182Y0030524D01*
X0179269Y0030613D01*
X0179360Y0030699D01*
X0179453Y0030782D01*
X0179549Y0030863D01*
X0179647Y0030940D01*
X0179747Y0031014D01*
X0179850Y0031085D01*
X0179955Y0031152D01*
X0180063Y0031217D01*
X0180172Y0031277D01*
X0180283Y0031335D01*
X0180396Y0031388D01*
X0180510Y0031438D01*
X0180626Y0031485D01*
X0180743Y0031527D01*
X0180862Y0031566D01*
X0180982Y0031602D01*
X0181103Y0031633D01*
X0181225Y0031661D01*
X0181347Y0031684D01*
X0181471Y0031704D01*
X0181595Y0031720D01*
X0181719Y0031732D01*
X0181844Y0031740D01*
X0181969Y0031744D01*
X0182093Y0031744D01*
X0182218Y0031740D01*
X0182343Y0031732D01*
X0182467Y0031720D01*
X0182591Y0031704D01*
X0182715Y0031684D01*
X0182837Y0031661D01*
X0182959Y0031633D01*
X0183080Y0031602D01*
X0183200Y0031566D01*
X0183319Y0031527D01*
X0183436Y0031485D01*
X0183552Y0031438D01*
X0183666Y0031388D01*
X0183779Y0031335D01*
X0183890Y0031277D01*
X0184000Y0031217D01*
X0184107Y0031152D01*
X0184212Y0031085D01*
X0184315Y0031014D01*
X0184415Y0030940D01*
X0184513Y0030863D01*
X0184609Y0030782D01*
X0184702Y0030699D01*
X0184793Y0030613D01*
X0184880Y0030524D01*
X0184965Y0030432D01*
X0185047Y0030338D01*
X0185126Y0030241D01*
X0185201Y0030141D01*
X0185274Y0030040D01*
X0185343Y0029936D01*
X0185409Y0029829D01*
X0185471Y0029721D01*
X0185530Y0029611D01*
X0185586Y0029499D01*
X0185638Y0029385D01*
X0185686Y0029270D01*
X0185731Y0029154D01*
X0185771Y0029035D01*
X0185809Y0028916D01*
X0185842Y0028796D01*
X0185871Y0028674D01*
X0185897Y0028552D01*
X0185919Y0028429D01*
X0185936Y0028305D01*
X0185950Y0028181D01*
X0185960Y0028057D01*
X0185966Y0027932D01*
X0185968Y0027807D01*
X0185966Y0027682D01*
X0185960Y0027557D01*
X0185950Y0027433D01*
X0185936Y0027309D01*
X0185919Y0027185D01*
X0185897Y0027062D01*
X0185871Y0026940D01*
X0185842Y0026818D01*
X0185809Y0026698D01*
X0185771Y0026579D01*
X0185731Y0026460D01*
X0185686Y0026344D01*
X0185638Y0026229D01*
X0185586Y0026115D01*
X0185530Y0026003D01*
X0185471Y0025893D01*
X0185409Y0025785D01*
X0185343Y0025678D01*
X0185274Y0025574D01*
X0185201Y0025473D01*
X0185126Y0025373D01*
X0185047Y0025276D01*
X0184965Y0025182D01*
X0184880Y0025090D01*
X0184793Y0025001D01*
X0184702Y0024915D01*
X0184609Y0024832D01*
X0184513Y0024751D01*
X0184415Y0024674D01*
X0184315Y0024600D01*
X0184212Y0024529D01*
X0184107Y0024462D01*
X0183999Y0024397D01*
X0183890Y0024337D01*
X0183779Y0024279D01*
X0183666Y0024226D01*
X0183552Y0024176D01*
X0183436Y0024129D01*
X0183319Y0024087D01*
X0183200Y0024048D01*
X0183080Y0024012D01*
X0182959Y0023981D01*
X0182837Y0023953D01*
X0182715Y0023930D01*
X0182591Y0023910D01*
X0182467Y0023894D01*
X0182343Y0023882D01*
X0182218Y0023874D01*
X0182093Y0023870D01*
X0181969Y0023870D01*
X0181844Y0023874D01*
X0181719Y0023882D01*
X0181595Y0023894D01*
X0181471Y0023910D01*
X0181347Y0023930D01*
X0181225Y0023953D01*
X0181103Y0023981D01*
X0180982Y0024012D01*
X0180862Y0024048D01*
X0180743Y0024087D01*
X0180626Y0024129D01*
X0180510Y0024176D01*
X0180396Y0024226D01*
X0180283Y0024279D01*
X0180172Y0024337D01*
X0180062Y0024397D01*
X0179955Y0024462D01*
X0179850Y0024529D01*
X0179747Y0024600D01*
X0179647Y0024674D01*
X0179549Y0024751D01*
X0179453Y0024832D01*
X0179360Y0024915D01*
X0179269Y0025001D01*
X0179182Y0025090D01*
X0179097Y0025182D01*
X0179015Y0025276D01*
X0178936Y0025373D01*
X0178861Y0025473D01*
X0178788Y0025574D01*
X0178719Y0025678D01*
X0178653Y0025785D01*
X0178591Y0025893D01*
X0178532Y0026003D01*
X0178476Y0026115D01*
X0178424Y0026229D01*
X0178376Y0026344D01*
X0178331Y0026460D01*
X0178291Y0026579D01*
X0178253Y0026698D01*
X0178220Y0026818D01*
X0178191Y0026940D01*
X0178165Y0027062D01*
X0178143Y0027185D01*
X0178126Y0027309D01*
X0178112Y0027433D01*
X0178102Y0027557D01*
X0178096Y0027682D01*
X0178094Y0027807D01*
D11*
X0162182Y0036447D02*
X0159556Y0036447D01*
X0159556Y0039073D01*
X0162182Y0039073D01*
X0162182Y0036447D01*
X0162182Y0037278D02*
X0159556Y0037278D01*
X0159556Y0038109D02*
X0162182Y0038109D01*
X0162182Y0038940D02*
X0159556Y0038940D01*
X0156182Y0036447D02*
X0153556Y0036447D01*
X0153556Y0039073D01*
X0156182Y0039073D01*
X0156182Y0036447D01*
X0156182Y0037278D02*
X0153556Y0037278D01*
X0153556Y0038109D02*
X0156182Y0038109D01*
X0156182Y0038940D02*
X0153556Y0038940D01*
X0153556Y0042147D02*
X0156182Y0042147D01*
X0153556Y0042147D02*
X0153556Y0044773D01*
X0156182Y0044773D01*
X0156182Y0042147D01*
X0156182Y0042978D02*
X0153556Y0042978D01*
X0153556Y0043809D02*
X0156182Y0043809D01*
X0156182Y0044640D02*
X0153556Y0044640D01*
X0159556Y0042147D02*
X0162182Y0042147D01*
X0159556Y0042147D02*
X0159556Y0044773D01*
X0162182Y0044773D01*
X0162182Y0042147D01*
X0162182Y0042978D02*
X0159556Y0042978D01*
X0159556Y0043809D02*
X0162182Y0043809D01*
X0162182Y0044640D02*
X0159556Y0044640D01*
X0154662Y0059106D02*
X0152036Y0059106D01*
X0152036Y0061732D01*
X0154662Y0061732D01*
X0154662Y0059106D01*
X0154662Y0059937D02*
X0152036Y0059937D01*
X0152036Y0060768D02*
X0154662Y0060768D01*
X0154662Y0061599D02*
X0152036Y0061599D01*
X0148662Y0059106D02*
X0146036Y0059106D01*
X0146036Y0061732D01*
X0148662Y0061732D01*
X0148662Y0059106D01*
X0148662Y0059937D02*
X0146036Y0059937D01*
X0146036Y0060768D02*
X0148662Y0060768D01*
X0148662Y0061599D02*
X0146036Y0061599D01*
X0154614Y0064833D02*
X0154614Y0067459D01*
X0154614Y0064833D02*
X0151988Y0064833D01*
X0151988Y0067459D01*
X0154614Y0067459D01*
X0154614Y0065664D02*
X0151988Y0065664D01*
X0151988Y0066495D02*
X0154614Y0066495D01*
X0154614Y0067326D02*
X0151988Y0067326D01*
X0154614Y0070833D02*
X0154614Y0073459D01*
X0154614Y0070833D02*
X0151988Y0070833D01*
X0151988Y0073459D01*
X0154614Y0073459D01*
X0154614Y0071664D02*
X0151988Y0071664D01*
X0151988Y0072495D02*
X0154614Y0072495D01*
X0154614Y0073326D02*
X0151988Y0073326D01*
X0154614Y0076433D02*
X0154614Y0079059D01*
X0154614Y0076433D02*
X0151988Y0076433D01*
X0151988Y0079059D01*
X0154614Y0079059D01*
X0154614Y0077264D02*
X0151988Y0077264D01*
X0151988Y0078095D02*
X0154614Y0078095D01*
X0154614Y0078926D02*
X0151988Y0078926D01*
X0154614Y0082433D02*
X0154614Y0085059D01*
X0154614Y0082433D02*
X0151988Y0082433D01*
X0151988Y0085059D01*
X0154614Y0085059D01*
X0154614Y0083264D02*
X0151988Y0083264D01*
X0151988Y0084095D02*
X0154614Y0084095D01*
X0154614Y0084926D02*
X0151988Y0084926D01*
X0168524Y0098352D02*
X0171150Y0098352D01*
X0171150Y0095726D01*
X0168524Y0095726D01*
X0168524Y0098352D01*
X0168524Y0096557D02*
X0171150Y0096557D01*
X0171150Y0097388D02*
X0168524Y0097388D01*
X0168524Y0098219D02*
X0171150Y0098219D01*
X0174524Y0098352D02*
X0177150Y0098352D01*
X0177150Y0095726D01*
X0174524Y0095726D01*
X0174524Y0098352D01*
X0174524Y0096557D02*
X0177150Y0096557D01*
X0177150Y0097388D02*
X0174524Y0097388D01*
X0174524Y0098219D02*
X0177150Y0098219D01*
X0180163Y0098312D02*
X0182789Y0098312D01*
X0182789Y0095686D01*
X0180163Y0095686D01*
X0180163Y0098312D01*
X0180163Y0096517D02*
X0182789Y0096517D01*
X0182789Y0097348D02*
X0180163Y0097348D01*
X0180163Y0098179D02*
X0182789Y0098179D01*
X0186163Y0098312D02*
X0188789Y0098312D01*
X0188789Y0095686D01*
X0186163Y0095686D01*
X0186163Y0098312D01*
X0186163Y0096517D02*
X0188789Y0096517D01*
X0188789Y0097348D02*
X0186163Y0097348D01*
X0186163Y0098179D02*
X0188789Y0098179D01*
X0124693Y0089622D02*
X0122067Y0089622D01*
X0122067Y0092248D01*
X0124693Y0092248D01*
X0124693Y0089622D01*
X0124693Y0090453D02*
X0122067Y0090453D01*
X0122067Y0091284D02*
X0124693Y0091284D01*
X0124693Y0092115D02*
X0122067Y0092115D01*
X0118693Y0089622D02*
X0116067Y0089622D01*
X0116067Y0092248D01*
X0118693Y0092248D01*
X0118693Y0089622D01*
X0118693Y0090453D02*
X0116067Y0090453D01*
X0116067Y0091284D02*
X0118693Y0091284D01*
X0118693Y0092115D02*
X0116067Y0092115D01*
X0106970Y0090946D02*
X0106970Y0088320D01*
X0104344Y0088320D01*
X0104344Y0090946D01*
X0106970Y0090946D01*
X0106970Y0089151D02*
X0104344Y0089151D01*
X0104344Y0089982D02*
X0106970Y0089982D01*
X0106970Y0090813D02*
X0104344Y0090813D01*
X0106970Y0094320D02*
X0106970Y0096946D01*
X0106970Y0094320D02*
X0104344Y0094320D01*
X0104344Y0096946D01*
X0106970Y0096946D01*
X0106970Y0095151D02*
X0104344Y0095151D01*
X0104344Y0095982D02*
X0106970Y0095982D01*
X0106970Y0096813D02*
X0104344Y0096813D01*
X0082970Y0097846D02*
X0080344Y0097846D01*
X0082970Y0097846D02*
X0082970Y0095220D01*
X0080344Y0095220D01*
X0080344Y0097846D01*
X0080344Y0096051D02*
X0082970Y0096051D01*
X0082970Y0096882D02*
X0080344Y0096882D01*
X0080344Y0097713D02*
X0082970Y0097713D01*
X0076970Y0097846D02*
X0074344Y0097846D01*
X0076970Y0097846D02*
X0076970Y0095220D01*
X0074344Y0095220D01*
X0074344Y0097846D01*
X0074344Y0096051D02*
X0076970Y0096051D01*
X0076970Y0096882D02*
X0074344Y0096882D01*
X0074344Y0097713D02*
X0076970Y0097713D01*
X0070070Y0096120D02*
X0067444Y0096120D01*
X0067444Y0098746D01*
X0070070Y0098746D01*
X0070070Y0096120D01*
X0070070Y0096951D02*
X0067444Y0096951D01*
X0067444Y0097782D02*
X0070070Y0097782D01*
X0070070Y0098613D02*
X0067444Y0098613D01*
X0064070Y0096120D02*
X0061444Y0096120D01*
X0061444Y0098746D01*
X0064070Y0098746D01*
X0064070Y0096120D01*
X0064070Y0096951D02*
X0061444Y0096951D01*
X0061444Y0097782D02*
X0064070Y0097782D01*
X0064070Y0098613D02*
X0061444Y0098613D01*
X0061444Y0093046D02*
X0064070Y0093046D01*
X0064070Y0090420D01*
X0061444Y0090420D01*
X0061444Y0093046D01*
X0061444Y0091251D02*
X0064070Y0091251D01*
X0064070Y0092082D02*
X0061444Y0092082D01*
X0061444Y0092913D02*
X0064070Y0092913D01*
X0067444Y0093046D02*
X0070070Y0093046D01*
X0070070Y0090420D01*
X0067444Y0090420D01*
X0067444Y0093046D01*
X0067444Y0091251D02*
X0070070Y0091251D01*
X0070070Y0092082D02*
X0067444Y0092082D01*
X0067444Y0092913D02*
X0070070Y0092913D01*
X0070170Y0084720D02*
X0067544Y0084720D01*
X0067544Y0087346D01*
X0070170Y0087346D01*
X0070170Y0084720D01*
X0070170Y0085551D02*
X0067544Y0085551D01*
X0067544Y0086382D02*
X0070170Y0086382D01*
X0070170Y0087213D02*
X0067544Y0087213D01*
X0064170Y0084720D02*
X0061544Y0084720D01*
X0061544Y0087346D01*
X0064170Y0087346D01*
X0064170Y0084720D01*
X0064170Y0085551D02*
X0061544Y0085551D01*
X0061544Y0086382D02*
X0064170Y0086382D01*
X0064170Y0087213D02*
X0061544Y0087213D01*
X0061544Y0079020D02*
X0064170Y0079020D01*
X0061544Y0079020D02*
X0061544Y0081646D01*
X0064170Y0081646D01*
X0064170Y0079020D01*
X0064170Y0079851D02*
X0061544Y0079851D01*
X0061544Y0080682D02*
X0064170Y0080682D01*
X0064170Y0081513D02*
X0061544Y0081513D01*
X0067544Y0079020D02*
X0070170Y0079020D01*
X0067544Y0079020D02*
X0067544Y0081646D01*
X0070170Y0081646D01*
X0070170Y0079020D01*
X0070170Y0079851D02*
X0067544Y0079851D01*
X0067544Y0080682D02*
X0070170Y0080682D01*
X0070170Y0081513D02*
X0067544Y0081513D01*
X0067544Y0075946D02*
X0070170Y0075946D01*
X0070170Y0073320D01*
X0067544Y0073320D01*
X0067544Y0075946D01*
X0067544Y0074151D02*
X0070170Y0074151D01*
X0070170Y0074982D02*
X0067544Y0074982D01*
X0067544Y0075813D02*
X0070170Y0075813D01*
X0064170Y0075946D02*
X0061544Y0075946D01*
X0064170Y0075946D02*
X0064170Y0073320D01*
X0061544Y0073320D01*
X0061544Y0075946D01*
X0061544Y0074151D02*
X0064170Y0074151D01*
X0064170Y0074982D02*
X0061544Y0074982D01*
X0061544Y0075813D02*
X0064170Y0075813D01*
X0064170Y0067520D02*
X0061544Y0067520D01*
X0061544Y0070146D01*
X0064170Y0070146D01*
X0064170Y0067520D01*
X0064170Y0068351D02*
X0061544Y0068351D01*
X0061544Y0069182D02*
X0064170Y0069182D01*
X0064170Y0070013D02*
X0061544Y0070013D01*
X0067544Y0067520D02*
X0070170Y0067520D01*
X0067544Y0067520D02*
X0067544Y0070146D01*
X0070170Y0070146D01*
X0070170Y0067520D01*
X0070170Y0068351D02*
X0067544Y0068351D01*
X0067544Y0069182D02*
X0070170Y0069182D01*
X0070170Y0070013D02*
X0067544Y0070013D01*
X0067544Y0064446D02*
X0070170Y0064446D01*
X0070170Y0061820D01*
X0067544Y0061820D01*
X0067544Y0064446D01*
X0067544Y0062651D02*
X0070170Y0062651D01*
X0070170Y0063482D02*
X0067544Y0063482D01*
X0067544Y0064313D02*
X0070170Y0064313D01*
X0064170Y0064446D02*
X0061544Y0064446D01*
X0064170Y0064446D02*
X0064170Y0061820D01*
X0061544Y0061820D01*
X0061544Y0064446D01*
X0061544Y0062651D02*
X0064170Y0062651D01*
X0064170Y0063482D02*
X0061544Y0063482D01*
X0061544Y0064313D02*
X0064170Y0064313D01*
X0060344Y0053346D02*
X0060344Y0050720D01*
X0060344Y0053346D02*
X0062970Y0053346D01*
X0062970Y0050720D01*
X0060344Y0050720D01*
X0060344Y0051551D02*
X0062970Y0051551D01*
X0062970Y0052382D02*
X0060344Y0052382D01*
X0060344Y0053213D02*
X0062970Y0053213D01*
X0060344Y0047346D02*
X0060344Y0044720D01*
X0060344Y0047346D02*
X0062970Y0047346D01*
X0062970Y0044720D01*
X0060344Y0044720D01*
X0060344Y0045551D02*
X0062970Y0045551D01*
X0062970Y0046382D02*
X0060344Y0046382D01*
X0060344Y0047213D02*
X0062970Y0047213D01*
X0047344Y0046646D02*
X0047344Y0044020D01*
X0047344Y0046646D02*
X0049970Y0046646D01*
X0049970Y0044020D01*
X0047344Y0044020D01*
X0047344Y0044851D02*
X0049970Y0044851D01*
X0049970Y0045682D02*
X0047344Y0045682D01*
X0047344Y0046513D02*
X0049970Y0046513D01*
X0041744Y0046646D02*
X0041744Y0044020D01*
X0041744Y0046646D02*
X0044370Y0046646D01*
X0044370Y0044020D01*
X0041744Y0044020D01*
X0041744Y0044851D02*
X0044370Y0044851D01*
X0044370Y0045682D02*
X0041744Y0045682D01*
X0041744Y0046513D02*
X0044370Y0046513D01*
X0038670Y0046646D02*
X0038670Y0044020D01*
X0036044Y0044020D01*
X0036044Y0046646D01*
X0038670Y0046646D01*
X0038670Y0044851D02*
X0036044Y0044851D01*
X0036044Y0045682D02*
X0038670Y0045682D01*
X0038670Y0046513D02*
X0036044Y0046513D01*
X0030244Y0046646D02*
X0030244Y0044020D01*
X0030244Y0046646D02*
X0032870Y0046646D01*
X0032870Y0044020D01*
X0030244Y0044020D01*
X0030244Y0044851D02*
X0032870Y0044851D01*
X0032870Y0045682D02*
X0030244Y0045682D01*
X0030244Y0046513D02*
X0032870Y0046513D01*
X0032544Y0050320D02*
X0035170Y0050320D01*
X0032544Y0050320D02*
X0032544Y0052946D01*
X0035170Y0052946D01*
X0035170Y0050320D01*
X0035170Y0051151D02*
X0032544Y0051151D01*
X0032544Y0051982D02*
X0035170Y0051982D01*
X0035170Y0052813D02*
X0032544Y0052813D01*
X0038544Y0050320D02*
X0041170Y0050320D01*
X0038544Y0050320D02*
X0038544Y0052946D01*
X0041170Y0052946D01*
X0041170Y0050320D01*
X0041170Y0051151D02*
X0038544Y0051151D01*
X0038544Y0051982D02*
X0041170Y0051982D01*
X0041170Y0052813D02*
X0038544Y0052813D01*
X0026370Y0051446D02*
X0023744Y0051446D01*
X0026370Y0051446D02*
X0026370Y0048820D01*
X0023744Y0048820D01*
X0023744Y0051446D01*
X0023744Y0049651D02*
X0026370Y0049651D01*
X0026370Y0050482D02*
X0023744Y0050482D01*
X0023744Y0051313D02*
X0026370Y0051313D01*
X0020370Y0051446D02*
X0017744Y0051446D01*
X0020370Y0051446D02*
X0020370Y0048820D01*
X0017744Y0048820D01*
X0017744Y0051446D01*
X0017744Y0049651D02*
X0020370Y0049651D01*
X0020370Y0050482D02*
X0017744Y0050482D01*
X0017744Y0051313D02*
X0020370Y0051313D01*
X0020370Y0045646D02*
X0017744Y0045646D01*
X0020370Y0045646D02*
X0020370Y0043020D01*
X0017744Y0043020D01*
X0017744Y0045646D01*
X0017744Y0043851D02*
X0020370Y0043851D01*
X0020370Y0044682D02*
X0017744Y0044682D01*
X0017744Y0045513D02*
X0020370Y0045513D01*
X0023744Y0045646D02*
X0026370Y0045646D01*
X0026370Y0043020D01*
X0023744Y0043020D01*
X0023744Y0045646D01*
X0023744Y0043851D02*
X0026370Y0043851D01*
X0026370Y0044682D02*
X0023744Y0044682D01*
X0023744Y0045513D02*
X0026370Y0045513D01*
X0030244Y0040646D02*
X0030244Y0038020D01*
X0030244Y0040646D02*
X0032870Y0040646D01*
X0032870Y0038020D01*
X0030244Y0038020D01*
X0030244Y0038851D02*
X0032870Y0038851D01*
X0032870Y0039682D02*
X0030244Y0039682D01*
X0030244Y0040513D02*
X0032870Y0040513D01*
X0038670Y0040646D02*
X0038670Y0038020D01*
X0036044Y0038020D01*
X0036044Y0040646D01*
X0038670Y0040646D01*
X0038670Y0038851D02*
X0036044Y0038851D01*
X0036044Y0039682D02*
X0038670Y0039682D01*
X0038670Y0040513D02*
X0036044Y0040513D01*
X0041744Y0040646D02*
X0041744Y0038020D01*
X0041744Y0040646D02*
X0044370Y0040646D01*
X0044370Y0038020D01*
X0041744Y0038020D01*
X0041744Y0038851D02*
X0044370Y0038851D01*
X0044370Y0039682D02*
X0041744Y0039682D01*
X0041744Y0040513D02*
X0044370Y0040513D01*
X0047344Y0040646D02*
X0047344Y0038020D01*
X0047344Y0040646D02*
X0049970Y0040646D01*
X0049970Y0038020D01*
X0047344Y0038020D01*
X0047344Y0038851D02*
X0049970Y0038851D01*
X0049970Y0039682D02*
X0047344Y0039682D01*
X0047344Y0040513D02*
X0049970Y0040513D01*
X0046344Y0031546D02*
X0046344Y0028920D01*
X0046344Y0031546D02*
X0048970Y0031546D01*
X0048970Y0028920D01*
X0046344Y0028920D01*
X0046344Y0029751D02*
X0048970Y0029751D01*
X0048970Y0030582D02*
X0046344Y0030582D01*
X0046344Y0031413D02*
X0048970Y0031413D01*
X0040644Y0031446D02*
X0040644Y0028820D01*
X0040644Y0031446D02*
X0043270Y0031446D01*
X0043270Y0028820D01*
X0040644Y0028820D01*
X0040644Y0029651D02*
X0043270Y0029651D01*
X0043270Y0030482D02*
X0040644Y0030482D01*
X0040644Y0031313D02*
X0043270Y0031313D01*
X0037470Y0031446D02*
X0037470Y0028820D01*
X0034844Y0028820D01*
X0034844Y0031446D01*
X0037470Y0031446D01*
X0037470Y0029651D02*
X0034844Y0029651D01*
X0034844Y0030482D02*
X0037470Y0030482D01*
X0037470Y0031313D02*
X0034844Y0031313D01*
X0037470Y0025446D02*
X0037470Y0022820D01*
X0034844Y0022820D01*
X0034844Y0025446D01*
X0037470Y0025446D01*
X0037470Y0023651D02*
X0034844Y0023651D01*
X0034844Y0024482D02*
X0037470Y0024482D01*
X0037470Y0025313D02*
X0034844Y0025313D01*
X0040644Y0025446D02*
X0040644Y0022820D01*
X0040644Y0025446D02*
X0043270Y0025446D01*
X0043270Y0022820D01*
X0040644Y0022820D01*
X0040644Y0023651D02*
X0043270Y0023651D01*
X0043270Y0024482D02*
X0040644Y0024482D01*
X0040644Y0025313D02*
X0043270Y0025313D01*
X0046344Y0025546D02*
X0046344Y0022920D01*
X0046344Y0025546D02*
X0048970Y0025546D01*
X0048970Y0022920D01*
X0046344Y0022920D01*
X0046344Y0023751D02*
X0048970Y0023751D01*
X0048970Y0024582D02*
X0046344Y0024582D01*
X0046344Y0025413D02*
X0048970Y0025413D01*
X0026370Y0039846D02*
X0023744Y0039846D01*
X0026370Y0039846D02*
X0026370Y0037220D01*
X0023744Y0037220D01*
X0023744Y0039846D01*
X0023744Y0038051D02*
X0026370Y0038051D01*
X0026370Y0038882D02*
X0023744Y0038882D01*
X0023744Y0039713D02*
X0026370Y0039713D01*
X0020370Y0039846D02*
X0017744Y0039846D01*
X0020370Y0039846D02*
X0020370Y0037220D01*
X0017744Y0037220D01*
X0017744Y0039846D01*
X0017744Y0038051D02*
X0020370Y0038051D01*
X0020370Y0038882D02*
X0017744Y0038882D01*
X0017744Y0039713D02*
X0020370Y0039713D01*
X0101244Y0045746D02*
X0103870Y0045746D01*
X0103870Y0043120D01*
X0101244Y0043120D01*
X0101244Y0045746D01*
X0101244Y0043951D02*
X0103870Y0043951D01*
X0103870Y0044782D02*
X0101244Y0044782D01*
X0101244Y0045613D02*
X0103870Y0045613D01*
X0107244Y0045746D02*
X0109870Y0045746D01*
X0109870Y0043120D01*
X0107244Y0043120D01*
X0107244Y0045746D01*
X0107244Y0043951D02*
X0109870Y0043951D01*
X0109870Y0044782D02*
X0107244Y0044782D01*
X0107244Y0045613D02*
X0109870Y0045613D01*
X0109870Y0048720D02*
X0107244Y0048720D01*
X0107244Y0051346D01*
X0109870Y0051346D01*
X0109870Y0048720D01*
X0109870Y0049551D02*
X0107244Y0049551D01*
X0107244Y0050382D02*
X0109870Y0050382D01*
X0109870Y0051213D02*
X0107244Y0051213D01*
X0103870Y0048720D02*
X0101244Y0048720D01*
X0101244Y0051346D01*
X0103870Y0051346D01*
X0103870Y0048720D01*
X0103870Y0049551D02*
X0101244Y0049551D01*
X0101244Y0050382D02*
X0103870Y0050382D01*
X0103870Y0051213D02*
X0101244Y0051213D01*
X0112944Y0048720D02*
X0115570Y0048720D01*
X0112944Y0048720D02*
X0112944Y0051346D01*
X0115570Y0051346D01*
X0115570Y0048720D01*
X0115570Y0049551D02*
X0112944Y0049551D01*
X0112944Y0050382D02*
X0115570Y0050382D01*
X0115570Y0051213D02*
X0112944Y0051213D01*
X0118944Y0048720D02*
X0121570Y0048720D01*
X0118944Y0048720D02*
X0118944Y0051346D01*
X0121570Y0051346D01*
X0121570Y0048720D01*
X0121570Y0049551D02*
X0118944Y0049551D01*
X0118944Y0050382D02*
X0121570Y0050382D01*
X0121570Y0051213D02*
X0118944Y0051213D01*
X0039144Y0091420D02*
X0039144Y0094046D01*
X0041770Y0094046D01*
X0041770Y0091420D01*
X0039144Y0091420D01*
X0039144Y0092251D02*
X0041770Y0092251D01*
X0041770Y0093082D02*
X0039144Y0093082D01*
X0039144Y0093913D02*
X0041770Y0093913D01*
X0033544Y0094046D02*
X0033544Y0091420D01*
X0033544Y0094046D02*
X0036170Y0094046D01*
X0036170Y0091420D01*
X0033544Y0091420D01*
X0033544Y0092251D02*
X0036170Y0092251D01*
X0036170Y0093082D02*
X0033544Y0093082D01*
X0033544Y0093913D02*
X0036170Y0093913D01*
X0027944Y0094046D02*
X0027944Y0091420D01*
X0027944Y0094046D02*
X0030570Y0094046D01*
X0030570Y0091420D01*
X0027944Y0091420D01*
X0027944Y0092251D02*
X0030570Y0092251D01*
X0030570Y0093082D02*
X0027944Y0093082D01*
X0027944Y0093913D02*
X0030570Y0093913D01*
X0027944Y0097420D02*
X0027944Y0100046D01*
X0030570Y0100046D01*
X0030570Y0097420D01*
X0027944Y0097420D01*
X0027944Y0098251D02*
X0030570Y0098251D01*
X0030570Y0099082D02*
X0027944Y0099082D01*
X0027944Y0099913D02*
X0030570Y0099913D01*
X0033544Y0100046D02*
X0033544Y0097420D01*
X0033544Y0100046D02*
X0036170Y0100046D01*
X0036170Y0097420D01*
X0033544Y0097420D01*
X0033544Y0098251D02*
X0036170Y0098251D01*
X0036170Y0099082D02*
X0033544Y0099082D01*
X0033544Y0099913D02*
X0036170Y0099913D01*
X0039144Y0100046D02*
X0039144Y0097420D01*
X0039144Y0100046D02*
X0041770Y0100046D01*
X0041770Y0097420D01*
X0039144Y0097420D01*
X0039144Y0098251D02*
X0041770Y0098251D01*
X0041770Y0099082D02*
X0039144Y0099082D01*
X0039144Y0099913D02*
X0041770Y0099913D01*
X0024870Y0100046D02*
X0024870Y0097420D01*
X0022244Y0097420D01*
X0022244Y0100046D01*
X0024870Y0100046D01*
X0024870Y0098251D02*
X0022244Y0098251D01*
X0022244Y0099082D02*
X0024870Y0099082D01*
X0024870Y0099913D02*
X0022244Y0099913D01*
X0016644Y0100046D02*
X0016644Y0097420D01*
X0016644Y0100046D02*
X0019270Y0100046D01*
X0019270Y0097420D01*
X0016644Y0097420D01*
X0016644Y0098251D02*
X0019270Y0098251D01*
X0019270Y0099082D02*
X0016644Y0099082D01*
X0016644Y0099913D02*
X0019270Y0099913D01*
X0016644Y0094046D02*
X0016644Y0091420D01*
X0016644Y0094046D02*
X0019270Y0094046D01*
X0019270Y0091420D01*
X0016644Y0091420D01*
X0016644Y0092251D02*
X0019270Y0092251D01*
X0019270Y0093082D02*
X0016644Y0093082D01*
X0016644Y0093913D02*
X0019270Y0093913D01*
X0024870Y0094046D02*
X0024870Y0091420D01*
X0022244Y0091420D01*
X0022244Y0094046D01*
X0024870Y0094046D01*
X0024870Y0092251D02*
X0022244Y0092251D01*
X0022244Y0093082D02*
X0024870Y0093082D01*
X0024870Y0093913D02*
X0022244Y0093913D01*
D12*
X0089906Y0097431D03*
X0097906Y0093691D03*
X0089906Y0089950D03*
D13*
X0117574Y0025933D03*
D14*
X0107574Y0025933D03*
X0097574Y0025933D03*
X0087574Y0025933D03*
D15*
X0053527Y0052091D03*
X0053527Y0091461D03*
X0153920Y0091461D03*
X0153920Y0052091D03*
D16*
X0118528Y0057762D03*
X0115969Y0057762D03*
X0113410Y0057762D03*
X0110851Y0057762D03*
X0108292Y0057762D03*
X0105733Y0057762D03*
X0103174Y0057762D03*
X0100615Y0057762D03*
X0098056Y0057762D03*
X0095497Y0057762D03*
X0095497Y0081896D03*
X0098056Y0081896D03*
X0100615Y0081896D03*
X0103174Y0081896D03*
X0105733Y0081896D03*
X0108292Y0081896D03*
X0110792Y0081896D03*
X0113351Y0081896D03*
X0115910Y0081896D03*
X0118469Y0081896D03*
D17*
X0122446Y0037633D03*
X0110320Y0037633D03*
X0098194Y0037633D03*
X0086068Y0037633D03*
D18*
X0073175Y0034218D03*
X0069238Y0034218D03*
X0065301Y0034218D03*
X0061364Y0034218D03*
X0132772Y0034218D03*
X0136709Y0034218D03*
X0140646Y0034218D03*
X0144583Y0034218D03*
D19*
X0149702Y0024277D03*
X0127654Y0024277D03*
X0078293Y0024277D03*
X0056246Y0024277D03*
D20*
X0162813Y0052809D03*
X0162813Y0057809D03*
X0162813Y0062809D03*
X0162813Y0067809D03*
X0162813Y0072809D03*
X0162813Y0077809D03*
X0162813Y0082809D03*
X0162813Y0087809D03*
X0184860Y0087809D03*
X0184860Y0082809D03*
X0184860Y0077809D03*
X0184860Y0072809D03*
X0184860Y0067809D03*
X0184860Y0062809D03*
X0184860Y0057809D03*
X0184860Y0052809D03*
D21*
X0048857Y0059933D03*
X0043857Y0059933D03*
X0038857Y0059933D03*
X0033857Y0059933D03*
X0028857Y0059933D03*
X0023857Y0059933D03*
X0018857Y0059933D03*
X0018857Y0082283D03*
X0023857Y0082283D03*
X0028857Y0082283D03*
X0033857Y0082283D03*
X0038857Y0082283D03*
X0043857Y0082283D03*
X0048857Y0082283D03*
D22*
X0110457Y0095633D03*
D23*
X0168357Y0043833D03*
X0168357Y0040633D03*
X0168357Y0037433D03*
D24*
X0168357Y0037233D02*
X0168357Y0040633D01*
X0168357Y0043933D01*
X0171957Y0043874D02*
X0188922Y0043874D01*
X0188922Y0044672D02*
X0171957Y0044672D01*
X0171957Y0045471D02*
X0188922Y0045471D01*
X0188922Y0046269D02*
X0162859Y0046269D01*
X0162819Y0046310D02*
X0158920Y0046310D01*
X0158019Y0045409D01*
X0158019Y0041510D01*
X0158920Y0040610D01*
X0162819Y0040610D01*
X0163719Y0041510D01*
X0163719Y0041760D01*
X0164757Y0041760D01*
X0164757Y0039460D01*
X0163719Y0039460D01*
X0163719Y0039709D01*
X0162819Y0040610D01*
X0158920Y0040610D01*
X0158019Y0039709D01*
X0158019Y0035810D01*
X0158920Y0034910D01*
X0162819Y0034910D01*
X0163719Y0035810D01*
X0163719Y0036060D01*
X0164757Y0036060D01*
X0164757Y0035727D01*
X0165401Y0035083D01*
X0171312Y0035083D01*
X0171957Y0035727D01*
X0171957Y0038783D01*
X0172354Y0038783D01*
X0172904Y0038233D01*
X0174809Y0038233D01*
X0176157Y0039580D01*
X0176157Y0041486D01*
X0174809Y0042833D01*
X0172904Y0042833D01*
X0172554Y0042483D01*
X0171957Y0042483D01*
X0171957Y0045539D01*
X0171312Y0046183D01*
X0165401Y0046183D01*
X0164757Y0045539D01*
X0164757Y0045160D01*
X0163719Y0045160D01*
X0163719Y0045409D01*
X0162819Y0046310D01*
X0163658Y0045471D02*
X0164757Y0045471D01*
X0164757Y0041478D02*
X0163687Y0041478D01*
X0162888Y0040679D02*
X0164757Y0040679D01*
X0164757Y0039881D02*
X0163548Y0039881D01*
X0163719Y0035888D02*
X0164757Y0035888D01*
X0165394Y0035090D02*
X0162999Y0035090D01*
X0158740Y0035090D02*
X0156999Y0035090D01*
X0156819Y0034910D02*
X0157719Y0035810D01*
X0157719Y0039709D01*
X0156819Y0040610D01*
X0157719Y0041510D01*
X0157719Y0045409D01*
X0156819Y0046310D01*
X0152920Y0046310D01*
X0152019Y0045409D01*
X0152019Y0045060D01*
X0137136Y0045060D01*
X0136436Y0045760D01*
X0134531Y0045760D01*
X0133183Y0044413D01*
X0133183Y0043423D01*
X0131172Y0041412D01*
X0131172Y0038369D01*
X0131136Y0038369D01*
X0130491Y0037725D01*
X0130491Y0030711D01*
X0131136Y0030067D01*
X0134409Y0030067D01*
X0134741Y0030399D01*
X0135073Y0030067D01*
X0138346Y0030067D01*
X0138678Y0030399D01*
X0138796Y0030280D01*
X0138796Y0027326D01*
X0138357Y0026886D01*
X0138357Y0024980D01*
X0139704Y0023633D01*
X0141609Y0023633D01*
X0142957Y0024980D01*
X0142957Y0026886D01*
X0142496Y0027346D01*
X0142496Y0030280D01*
X0142928Y0030711D01*
X0142928Y0037725D01*
X0142283Y0038369D01*
X0139746Y0038369D01*
X0140009Y0038633D01*
X0151733Y0038633D01*
X0152019Y0038347D01*
X0152019Y0035810D01*
X0152920Y0034910D01*
X0156819Y0034910D01*
X0157719Y0035888D02*
X0158019Y0035888D01*
X0158019Y0036687D02*
X0157719Y0036687D01*
X0157719Y0037485D02*
X0158019Y0037485D01*
X0158019Y0038284D02*
X0157719Y0038284D01*
X0157719Y0039082D02*
X0158019Y0039082D01*
X0158191Y0039881D02*
X0157548Y0039881D01*
X0156819Y0040610D02*
X0154282Y0040610D01*
X0156819Y0040610D01*
X0156888Y0040679D02*
X0158850Y0040679D01*
X0158052Y0041478D02*
X0157687Y0041478D01*
X0157719Y0042277D02*
X0158019Y0042277D01*
X0158019Y0043075D02*
X0157719Y0043075D01*
X0157719Y0043874D02*
X0158019Y0043874D01*
X0158019Y0044672D02*
X0157719Y0044672D01*
X0157658Y0045471D02*
X0158081Y0045471D01*
X0158879Y0046269D02*
X0156859Y0046269D01*
X0155855Y0047866D02*
X0188922Y0047866D01*
X0188922Y0047068D02*
X0130995Y0047068D01*
X0131794Y0047866D02*
X0151986Y0047866D01*
X0151290Y0048154D02*
X0152997Y0047447D01*
X0154844Y0047447D01*
X0156551Y0048154D01*
X0157857Y0049460D01*
X0158299Y0050528D01*
X0167599Y0050528D01*
X0168243Y0051173D01*
X0168243Y0054446D01*
X0167599Y0055091D01*
X0159890Y0055091D01*
X0160328Y0055528D01*
X0167599Y0055528D01*
X0168243Y0056173D01*
X0168243Y0059446D01*
X0167599Y0060091D01*
X0158026Y0060091D01*
X0157382Y0059446D01*
X0157382Y0058522D01*
X0155374Y0056514D01*
X0154844Y0056734D01*
X0152997Y0056734D01*
X0151290Y0056027D01*
X0149984Y0054721D01*
X0149277Y0053014D01*
X0149277Y0051167D01*
X0149984Y0049460D01*
X0151290Y0048154D01*
X0150780Y0048665D02*
X0132592Y0048665D01*
X0132761Y0048833D02*
X0133757Y0049829D01*
X0133757Y0097029D01*
X0134161Y0097433D01*
X0165361Y0097433D01*
X0166357Y0098429D01*
X0167061Y0099133D01*
X0167132Y0099133D01*
X0166987Y0098988D01*
X0166987Y0095089D01*
X0167888Y0094189D01*
X0167987Y0094189D01*
X0167987Y0089702D01*
X0167599Y0090091D01*
X0158379Y0090091D01*
X0158564Y0090537D01*
X0158564Y0092384D01*
X0157857Y0094091D01*
X0156551Y0095397D01*
X0154844Y0096104D01*
X0152997Y0096104D01*
X0151290Y0095397D01*
X0149984Y0094091D01*
X0149277Y0092384D01*
X0149277Y0090537D01*
X0149984Y0088830D01*
X0151290Y0087524D01*
X0152997Y0086817D01*
X0154844Y0086817D01*
X0156518Y0087511D01*
X0155427Y0086419D01*
X0155250Y0086596D01*
X0151351Y0086596D01*
X0150451Y0085695D01*
X0150451Y0081796D01*
X0151351Y0080896D01*
X0155250Y0080896D01*
X0156151Y0081796D01*
X0156151Y0081911D01*
X0157382Y0083142D01*
X0157382Y0081173D01*
X0158026Y0080528D01*
X0167599Y0080528D01*
X0168243Y0081173D01*
X0168243Y0081403D01*
X0171687Y0084847D01*
X0171687Y0094189D01*
X0171786Y0094189D01*
X0172687Y0095089D01*
X0172687Y0097784D01*
X0172987Y0097484D01*
X0172987Y0095089D01*
X0173888Y0094189D01*
X0177786Y0094189D01*
X0178637Y0095039D01*
X0179527Y0094149D01*
X0181710Y0094149D01*
X0183010Y0092849D01*
X0183010Y0090091D01*
X0180073Y0090091D01*
X0179429Y0089446D01*
X0179429Y0086173D01*
X0180073Y0085528D01*
X0188922Y0085528D01*
X0188922Y0080091D01*
X0180073Y0080091D01*
X0179892Y0079909D01*
X0171533Y0079909D01*
X0171309Y0080133D01*
X0169404Y0080133D01*
X0168243Y0078972D01*
X0168243Y0079446D01*
X0167599Y0080091D01*
X0158026Y0080091D01*
X0157531Y0079596D01*
X0156151Y0079596D01*
X0156151Y0079695D01*
X0155250Y0080596D01*
X0151351Y0080596D01*
X0150451Y0079695D01*
X0150451Y0075796D01*
X0151301Y0074946D01*
X0150451Y0074095D01*
X0150451Y0070196D01*
X0151351Y0069296D01*
X0153835Y0069296D01*
X0153535Y0068996D01*
X0151351Y0068996D01*
X0150451Y0068095D01*
X0150451Y0064196D01*
X0151351Y0063296D01*
X0153609Y0063296D01*
X0153583Y0063269D01*
X0151399Y0063269D01*
X0150499Y0062368D01*
X0150499Y0058470D01*
X0151399Y0057569D01*
X0155298Y0057569D01*
X0156199Y0058470D01*
X0156199Y0060653D01*
X0156506Y0060959D01*
X0157595Y0060959D01*
X0158026Y0060528D01*
X0167599Y0060528D01*
X0168243Y0061173D01*
X0168243Y0064446D01*
X0167599Y0065091D01*
X0158026Y0065091D01*
X0157595Y0064659D01*
X0156151Y0064659D01*
X0156151Y0065959D01*
X0157595Y0065959D01*
X0158026Y0065528D01*
X0167599Y0065528D01*
X0168243Y0066173D01*
X0168243Y0069446D01*
X0167599Y0070091D01*
X0158026Y0070091D01*
X0157595Y0069659D01*
X0155614Y0069659D01*
X0156151Y0070196D01*
X0156151Y0070959D01*
X0157595Y0070959D01*
X0158026Y0070528D01*
X0167599Y0070528D01*
X0168243Y0071173D01*
X0168243Y0074446D01*
X0167599Y0075091D01*
X0158026Y0075091D01*
X0157595Y0074659D01*
X0155586Y0074659D01*
X0155300Y0074946D01*
X0156151Y0075796D01*
X0156151Y0075896D01*
X0157659Y0075896D01*
X0158026Y0075528D01*
X0167599Y0075528D01*
X0168243Y0076173D01*
X0168243Y0076694D01*
X0169404Y0075533D01*
X0171309Y0075533D01*
X0171486Y0075709D01*
X0179892Y0075709D01*
X0180073Y0075528D01*
X0188922Y0075528D01*
X0188922Y0075091D01*
X0180073Y0075091D01*
X0179429Y0074446D01*
X0179429Y0071173D01*
X0180073Y0070528D01*
X0188922Y0070528D01*
X0188922Y0070091D01*
X0180073Y0070091D01*
X0179429Y0069446D01*
X0179429Y0066173D01*
X0180073Y0065528D01*
X0188922Y0065528D01*
X0188922Y0065091D01*
X0180073Y0065091D01*
X0179492Y0064509D01*
X0177829Y0064509D01*
X0176953Y0063633D01*
X0176104Y0063633D01*
X0174757Y0062286D01*
X0174757Y0060380D01*
X0175904Y0059233D01*
X0175357Y0058686D01*
X0175357Y0056780D01*
X0176704Y0055433D01*
X0178609Y0055433D01*
X0179209Y0056033D01*
X0179569Y0056033D01*
X0180073Y0055528D01*
X0188922Y0055528D01*
X0188922Y0055091D01*
X0180073Y0055091D01*
X0179429Y0054446D01*
X0179429Y0051173D01*
X0180073Y0050528D01*
X0188922Y0050528D01*
X0188922Y0022333D01*
X0185375Y0022333D01*
X0185620Y0022435D01*
X0187403Y0024217D01*
X0188368Y0026547D01*
X0188368Y0029068D01*
X0187403Y0031397D01*
X0185620Y0033179D01*
X0183291Y0034144D01*
X0180770Y0034144D01*
X0178441Y0033179D01*
X0176658Y0031397D01*
X0175694Y0029068D01*
X0175694Y0026547D01*
X0176658Y0024217D01*
X0178441Y0022435D01*
X0178687Y0022333D01*
X0121924Y0022333D01*
X0121924Y0029639D01*
X0121280Y0030283D01*
X0119424Y0030283D01*
X0119424Y0044879D01*
X0119561Y0045016D01*
X0128944Y0045016D01*
X0132761Y0048833D01*
X0133391Y0049463D02*
X0149983Y0049463D01*
X0149652Y0050262D02*
X0133757Y0050262D01*
X0133757Y0051060D02*
X0149321Y0051060D01*
X0149277Y0051859D02*
X0133757Y0051859D01*
X0133757Y0052657D02*
X0149277Y0052657D01*
X0149460Y0053456D02*
X0133757Y0053456D01*
X0133757Y0054254D02*
X0149791Y0054254D01*
X0150316Y0055053D02*
X0133757Y0055053D01*
X0133757Y0055851D02*
X0151115Y0055851D01*
X0152794Y0056650D02*
X0133757Y0056650D01*
X0133757Y0057448D02*
X0156308Y0057448D01*
X0155976Y0058247D02*
X0157107Y0058247D01*
X0157382Y0059045D02*
X0156199Y0059045D01*
X0156199Y0059844D02*
X0157779Y0059844D01*
X0157912Y0060642D02*
X0156199Y0060642D01*
X0151168Y0063038D02*
X0133757Y0063038D01*
X0133757Y0063836D02*
X0150811Y0063836D01*
X0150451Y0064635D02*
X0133757Y0064635D01*
X0133757Y0065433D02*
X0150451Y0065433D01*
X0150451Y0066232D02*
X0133757Y0066232D01*
X0133757Y0067030D02*
X0150451Y0067030D01*
X0150451Y0067829D02*
X0133757Y0067829D01*
X0133757Y0068627D02*
X0150983Y0068627D01*
X0151221Y0069426D02*
X0133757Y0069426D01*
X0133757Y0070224D02*
X0150451Y0070224D01*
X0150451Y0071023D02*
X0133757Y0071023D01*
X0133757Y0071821D02*
X0150451Y0071821D01*
X0150451Y0072620D02*
X0133757Y0072620D01*
X0133757Y0073418D02*
X0150451Y0073418D01*
X0150573Y0074217D02*
X0133757Y0074217D01*
X0133757Y0075015D02*
X0151232Y0075015D01*
X0150451Y0075814D02*
X0133757Y0075814D01*
X0133757Y0076612D02*
X0150451Y0076612D01*
X0150451Y0077411D02*
X0133757Y0077411D01*
X0133757Y0078210D02*
X0150451Y0078210D01*
X0150451Y0079008D02*
X0133757Y0079008D01*
X0133757Y0079807D02*
X0150562Y0079807D01*
X0150844Y0081404D02*
X0133757Y0081404D01*
X0133757Y0082202D02*
X0150451Y0082202D01*
X0150451Y0083001D02*
X0133757Y0083001D01*
X0133757Y0083799D02*
X0150451Y0083799D01*
X0150451Y0084598D02*
X0133757Y0084598D01*
X0133757Y0085396D02*
X0150451Y0085396D01*
X0150950Y0086195D02*
X0133757Y0086195D01*
X0133757Y0086993D02*
X0152572Y0086993D01*
X0151023Y0087792D02*
X0133757Y0087792D01*
X0133757Y0088590D02*
X0150224Y0088590D01*
X0149753Y0089389D02*
X0133757Y0089389D01*
X0133757Y0090187D02*
X0149422Y0090187D01*
X0149277Y0090986D02*
X0133757Y0090986D01*
X0133757Y0091784D02*
X0149277Y0091784D01*
X0149359Y0092583D02*
X0133757Y0092583D01*
X0133757Y0093381D02*
X0149690Y0093381D01*
X0150073Y0094180D02*
X0133757Y0094180D01*
X0133757Y0094978D02*
X0150871Y0094978D01*
X0152207Y0095777D02*
X0133757Y0095777D01*
X0133757Y0096575D02*
X0166987Y0096575D01*
X0166987Y0095777D02*
X0155634Y0095777D01*
X0156969Y0094978D02*
X0167098Y0094978D01*
X0167987Y0094180D02*
X0157768Y0094180D01*
X0158151Y0093381D02*
X0167987Y0093381D01*
X0167987Y0092583D02*
X0158482Y0092583D01*
X0158564Y0091784D02*
X0167987Y0091784D01*
X0167987Y0090986D02*
X0158564Y0090986D01*
X0158419Y0090187D02*
X0167987Y0090187D01*
X0171687Y0090187D02*
X0183010Y0090187D01*
X0183010Y0090986D02*
X0171687Y0090986D01*
X0171687Y0091784D02*
X0183010Y0091784D01*
X0183010Y0092583D02*
X0171687Y0092583D01*
X0171687Y0093381D02*
X0182478Y0093381D01*
X0179497Y0094180D02*
X0171687Y0094180D01*
X0172576Y0094978D02*
X0173098Y0094978D01*
X0172987Y0095777D02*
X0172687Y0095777D01*
X0172687Y0096575D02*
X0172987Y0096575D01*
X0172987Y0097374D02*
X0172687Y0097374D01*
X0175391Y0099889D02*
X0172947Y0102333D01*
X0188922Y0102333D01*
X0188922Y0090091D01*
X0186710Y0090091D01*
X0186710Y0094382D01*
X0184326Y0096766D01*
X0184326Y0098949D01*
X0183426Y0099849D01*
X0179527Y0099849D01*
X0178676Y0098999D01*
X0177786Y0099889D01*
X0175391Y0099889D01*
X0174712Y0100568D02*
X0188922Y0100568D01*
X0188922Y0101366D02*
X0173913Y0101366D01*
X0173115Y0102165D02*
X0188922Y0102165D01*
X0188922Y0099769D02*
X0183506Y0099769D01*
X0184304Y0098971D02*
X0188922Y0098971D01*
X0188922Y0098172D02*
X0184326Y0098172D01*
X0184326Y0097374D02*
X0188922Y0097374D01*
X0188922Y0096575D02*
X0184517Y0096575D01*
X0185315Y0095777D02*
X0188922Y0095777D01*
X0188922Y0094978D02*
X0186114Y0094978D01*
X0186710Y0094180D02*
X0188922Y0094180D01*
X0188922Y0093381D02*
X0186710Y0093381D01*
X0186710Y0092583D02*
X0188922Y0092583D01*
X0188922Y0091784D02*
X0186710Y0091784D01*
X0186710Y0090986D02*
X0188922Y0090986D01*
X0188922Y0090187D02*
X0186710Y0090187D01*
X0179429Y0089389D02*
X0171687Y0089389D01*
X0171687Y0088590D02*
X0179429Y0088590D01*
X0179429Y0087792D02*
X0171687Y0087792D01*
X0171687Y0086993D02*
X0179429Y0086993D01*
X0179429Y0086195D02*
X0171687Y0086195D01*
X0171687Y0085396D02*
X0188922Y0085396D01*
X0188922Y0084598D02*
X0171438Y0084598D01*
X0170639Y0083799D02*
X0188922Y0083799D01*
X0188922Y0083001D02*
X0169840Y0083001D01*
X0169042Y0082202D02*
X0188922Y0082202D01*
X0188922Y0081404D02*
X0168243Y0081404D01*
X0167676Y0080605D02*
X0188922Y0080605D01*
X0179998Y0075015D02*
X0167674Y0075015D01*
X0167885Y0075814D02*
X0169123Y0075814D01*
X0168325Y0076612D02*
X0168243Y0076612D01*
X0168243Y0074217D02*
X0179429Y0074217D01*
X0179429Y0073418D02*
X0168243Y0073418D01*
X0168243Y0072620D02*
X0179429Y0072620D01*
X0179429Y0071821D02*
X0168243Y0071821D01*
X0168094Y0071023D02*
X0179579Y0071023D01*
X0179429Y0069426D02*
X0168243Y0069426D01*
X0168243Y0068627D02*
X0179429Y0068627D01*
X0179429Y0067829D02*
X0168243Y0067829D01*
X0168243Y0067030D02*
X0179429Y0067030D01*
X0179429Y0066232D02*
X0168243Y0066232D01*
X0168055Y0064635D02*
X0179618Y0064635D01*
X0177156Y0063836D02*
X0168243Y0063836D01*
X0168243Y0063038D02*
X0175509Y0063038D01*
X0174757Y0062239D02*
X0168243Y0062239D01*
X0168243Y0061441D02*
X0174757Y0061441D01*
X0174757Y0060642D02*
X0167713Y0060642D01*
X0167846Y0059844D02*
X0175293Y0059844D01*
X0175716Y0059045D02*
X0168243Y0059045D01*
X0168243Y0058247D02*
X0175357Y0058247D01*
X0175357Y0057448D02*
X0168243Y0057448D01*
X0168243Y0056650D02*
X0175487Y0056650D01*
X0176286Y0055851D02*
X0167922Y0055851D01*
X0167637Y0055053D02*
X0180036Y0055053D01*
X0179751Y0055851D02*
X0179028Y0055851D01*
X0179429Y0054254D02*
X0168243Y0054254D01*
X0168243Y0053456D02*
X0179429Y0053456D01*
X0179429Y0052657D02*
X0168243Y0052657D01*
X0168243Y0051859D02*
X0179429Y0051859D01*
X0179542Y0051060D02*
X0168131Y0051060D01*
X0158189Y0050262D02*
X0188922Y0050262D01*
X0188922Y0049463D02*
X0157858Y0049463D01*
X0157061Y0048665D02*
X0188922Y0048665D01*
X0188922Y0043075D02*
X0171957Y0043075D01*
X0175366Y0042277D02*
X0188922Y0042277D01*
X0188922Y0041478D02*
X0176157Y0041478D01*
X0176157Y0040679D02*
X0188922Y0040679D01*
X0188922Y0039881D02*
X0176157Y0039881D01*
X0175659Y0039082D02*
X0188922Y0039082D01*
X0188922Y0038284D02*
X0174860Y0038284D01*
X0172853Y0038284D02*
X0171957Y0038284D01*
X0171957Y0037485D02*
X0188922Y0037485D01*
X0188922Y0036687D02*
X0171957Y0036687D01*
X0171957Y0035888D02*
X0188922Y0035888D01*
X0188922Y0035090D02*
X0171319Y0035090D01*
X0176534Y0031097D02*
X0142928Y0031097D01*
X0142928Y0031896D02*
X0177158Y0031896D01*
X0177956Y0032694D02*
X0142928Y0032694D01*
X0142928Y0033493D02*
X0179198Y0033493D01*
X0184863Y0033493D02*
X0188922Y0033493D01*
X0188922Y0034291D02*
X0142928Y0034291D01*
X0142928Y0035090D02*
X0152740Y0035090D01*
X0152019Y0035888D02*
X0142928Y0035888D01*
X0142928Y0036687D02*
X0152019Y0036687D01*
X0152019Y0037485D02*
X0142928Y0037485D01*
X0142369Y0038284D02*
X0152019Y0038284D01*
X0154282Y0040610D02*
X0154282Y0040610D01*
X0152081Y0045471D02*
X0136725Y0045471D01*
X0134241Y0045471D02*
X0129398Y0045471D01*
X0130197Y0046269D02*
X0152879Y0046269D01*
X0155047Y0056650D02*
X0155510Y0056650D01*
X0150722Y0058247D02*
X0133757Y0058247D01*
X0133757Y0059045D02*
X0150499Y0059045D01*
X0150499Y0059844D02*
X0133757Y0059844D01*
X0133757Y0060642D02*
X0150499Y0060642D01*
X0150499Y0061441D02*
X0133757Y0061441D01*
X0133757Y0062239D02*
X0150499Y0062239D01*
X0156151Y0065433D02*
X0188922Y0065433D01*
X0188922Y0070224D02*
X0156151Y0070224D01*
X0155370Y0075015D02*
X0157951Y0075015D01*
X0157741Y0075814D02*
X0156151Y0075814D01*
X0156039Y0079807D02*
X0157742Y0079807D01*
X0157950Y0080605D02*
X0133757Y0080605D01*
X0130357Y0080605D02*
X0120258Y0080605D01*
X0120258Y0079807D02*
X0130357Y0079807D01*
X0130357Y0079008D02*
X0120258Y0079008D01*
X0120258Y0078488D02*
X0120258Y0085304D01*
X0119614Y0085949D01*
X0117325Y0085949D01*
X0117190Y0085814D01*
X0117055Y0085949D01*
X0115051Y0085949D01*
X0115051Y0086202D01*
X0116934Y0088085D01*
X0119329Y0088085D01*
X0120230Y0088985D01*
X0120230Y0092884D01*
X0119329Y0093785D01*
X0115430Y0093785D01*
X0114530Y0092884D01*
X0114530Y0090489D01*
X0114357Y0090316D01*
X0114357Y0091486D01*
X0113009Y0092833D01*
X0111144Y0092833D01*
X0112071Y0093217D01*
X0112873Y0094019D01*
X0113307Y0095066D01*
X0113307Y0096200D01*
X0112873Y0097247D01*
X0112687Y0097433D01*
X0129953Y0097433D01*
X0130357Y0097029D01*
X0130357Y0051237D01*
X0127535Y0048416D01*
X0118490Y0048416D01*
X0117107Y0049799D01*
X0117107Y0051477D01*
X0118360Y0052730D01*
X0118360Y0053709D01*
X0119673Y0053709D01*
X0120317Y0054354D01*
X0120317Y0060541D01*
X0120857Y0061080D01*
X0120857Y0062986D01*
X0119509Y0064333D01*
X0117604Y0064333D01*
X0116257Y0062986D01*
X0116257Y0061815D01*
X0114825Y0061815D01*
X0114690Y0061680D01*
X0114555Y0061815D01*
X0112266Y0061815D01*
X0111621Y0061171D01*
X0111621Y0058590D01*
X0111560Y0058528D01*
X0111560Y0052136D01*
X0111407Y0051982D01*
X0111407Y0051883D01*
X0111407Y0051883D01*
X0111407Y0051982D01*
X0110506Y0052883D01*
X0106607Y0052883D01*
X0105707Y0051982D01*
X0105707Y0048084D01*
X0106607Y0047183D01*
X0110506Y0047183D01*
X0111407Y0048084D01*
X0112307Y0047183D01*
X0114490Y0047183D01*
X0115724Y0045949D01*
X0115724Y0030283D01*
X0113868Y0030283D01*
X0113224Y0029639D01*
X0113224Y0022333D01*
X0110126Y0022333D01*
X0111262Y0023469D01*
X0111924Y0025068D01*
X0111924Y0026798D01*
X0111262Y0028397D01*
X0110038Y0029621D01*
X0108439Y0030283D01*
X0106709Y0030283D01*
X0105110Y0029621D01*
X0103886Y0028397D01*
X0103224Y0026798D01*
X0103224Y0025068D01*
X0103886Y0023469D01*
X0105022Y0022333D01*
X0100126Y0022333D01*
X0101262Y0023469D01*
X0101924Y0025068D01*
X0101924Y0026798D01*
X0101262Y0028397D01*
X0100038Y0029621D01*
X0099274Y0029937D01*
X0099274Y0033263D01*
X0098367Y0034171D01*
X0098882Y0034171D01*
X0100155Y0034698D01*
X0101129Y0035672D01*
X0101656Y0036944D01*
X0101656Y0038322D01*
X0101129Y0039594D01*
X0100155Y0040568D01*
X0099894Y0040676D01*
X0099894Y0042297D01*
X0100607Y0041583D01*
X0103003Y0041583D01*
X0106857Y0037728D01*
X0106857Y0036944D01*
X0107385Y0035672D01*
X0108359Y0034698D01*
X0109631Y0034171D01*
X0111008Y0034171D01*
X0112281Y0034698D01*
X0113255Y0035672D01*
X0113782Y0036944D01*
X0113782Y0038322D01*
X0113255Y0039594D01*
X0112281Y0040568D01*
X0111008Y0041095D01*
X0109631Y0041095D01*
X0108689Y0040705D01*
X0105407Y0043987D01*
X0105407Y0046382D01*
X0104556Y0047233D01*
X0105407Y0048084D01*
X0105407Y0051982D01*
X0104874Y0052515D01*
X0104874Y0053709D01*
X0106878Y0053709D01*
X0107013Y0053844D01*
X0107148Y0053709D01*
X0109437Y0053709D01*
X0110081Y0054354D01*
X0110081Y0061171D01*
X0109437Y0061815D01*
X0107148Y0061815D01*
X0107013Y0061680D01*
X0106878Y0061815D01*
X0104588Y0061815D01*
X0104454Y0061680D01*
X0104319Y0061815D01*
X0102029Y0061815D01*
X0101894Y0061680D01*
X0101760Y0061815D01*
X0099470Y0061815D01*
X0099335Y0061680D01*
X0099201Y0061815D01*
X0096911Y0061815D01*
X0096776Y0061680D01*
X0096641Y0061815D01*
X0094930Y0061815D01*
X0102948Y0069833D01*
X0111361Y0069833D01*
X0117610Y0076082D01*
X0117610Y0077843D01*
X0119614Y0077843D01*
X0120258Y0078488D01*
X0119980Y0078210D02*
X0130357Y0078210D01*
X0130357Y0077411D02*
X0117610Y0077411D01*
X0117610Y0076612D02*
X0130357Y0076612D01*
X0130357Y0075814D02*
X0117342Y0075814D01*
X0116543Y0075015D02*
X0130357Y0075015D01*
X0130357Y0074217D02*
X0115745Y0074217D01*
X0114946Y0073418D02*
X0130357Y0073418D01*
X0130357Y0072620D02*
X0114148Y0072620D01*
X0113349Y0071821D02*
X0130357Y0071821D01*
X0130357Y0071023D02*
X0112551Y0071023D01*
X0111752Y0070224D02*
X0130357Y0070224D01*
X0130357Y0069426D02*
X0102541Y0069426D01*
X0101742Y0068627D02*
X0130357Y0068627D01*
X0130357Y0067829D02*
X0100944Y0067829D01*
X0100145Y0067030D02*
X0130357Y0067030D01*
X0130357Y0066232D02*
X0099347Y0066232D01*
X0098548Y0065433D02*
X0130357Y0065433D01*
X0130357Y0064635D02*
X0097750Y0064635D01*
X0096951Y0063836D02*
X0117107Y0063836D01*
X0116309Y0063038D02*
X0096153Y0063038D01*
X0095354Y0062239D02*
X0116257Y0062239D01*
X0120006Y0063836D02*
X0130357Y0063836D01*
X0130357Y0063038D02*
X0120805Y0063038D01*
X0120857Y0062239D02*
X0130357Y0062239D01*
X0130357Y0061441D02*
X0120857Y0061441D01*
X0120419Y0060642D02*
X0130357Y0060642D01*
X0130357Y0059844D02*
X0120317Y0059844D01*
X0120317Y0059045D02*
X0130357Y0059045D01*
X0130357Y0058247D02*
X0120317Y0058247D01*
X0120317Y0057448D02*
X0130357Y0057448D01*
X0130357Y0056650D02*
X0120317Y0056650D01*
X0120317Y0055851D02*
X0130357Y0055851D01*
X0130357Y0055053D02*
X0120317Y0055053D01*
X0120218Y0054254D02*
X0130357Y0054254D01*
X0130357Y0053456D02*
X0118360Y0053456D01*
X0118287Y0052657D02*
X0130357Y0052657D01*
X0130357Y0051859D02*
X0117488Y0051859D01*
X0117107Y0051060D02*
X0130180Y0051060D01*
X0129381Y0050262D02*
X0117107Y0050262D01*
X0117443Y0049463D02*
X0128583Y0049463D01*
X0127784Y0048665D02*
X0118241Y0048665D01*
X0115404Y0046269D02*
X0105407Y0046269D01*
X0105407Y0045471D02*
X0115724Y0045471D01*
X0115724Y0044672D02*
X0105407Y0044672D01*
X0105520Y0043874D02*
X0115724Y0043874D01*
X0115724Y0043075D02*
X0106319Y0043075D01*
X0107117Y0042277D02*
X0115724Y0042277D01*
X0115724Y0041478D02*
X0107916Y0041478D01*
X0105503Y0039082D02*
X0101341Y0039082D01*
X0101656Y0038284D02*
X0106302Y0038284D01*
X0106857Y0037485D02*
X0101656Y0037485D01*
X0101549Y0036687D02*
X0106964Y0036687D01*
X0107295Y0035888D02*
X0101218Y0035888D01*
X0100547Y0035090D02*
X0107967Y0035090D01*
X0109340Y0034291D02*
X0099173Y0034291D01*
X0099045Y0033493D02*
X0115724Y0033493D01*
X0115724Y0034291D02*
X0111299Y0034291D01*
X0112673Y0035090D02*
X0115724Y0035090D01*
X0115724Y0035888D02*
X0113344Y0035888D01*
X0113675Y0036687D02*
X0115724Y0036687D01*
X0115724Y0037485D02*
X0113782Y0037485D01*
X0113782Y0038284D02*
X0115724Y0038284D01*
X0115724Y0039082D02*
X0113467Y0039082D01*
X0112968Y0039881D02*
X0115724Y0039881D01*
X0115724Y0040679D02*
X0112012Y0040679D01*
X0119424Y0040679D02*
X0131172Y0040679D01*
X0131172Y0039881D02*
X0119424Y0039881D01*
X0119424Y0039082D02*
X0131172Y0039082D01*
X0131050Y0038284D02*
X0119424Y0038284D01*
X0119424Y0037485D02*
X0130491Y0037485D01*
X0130491Y0036687D02*
X0119424Y0036687D01*
X0119424Y0035888D02*
X0130491Y0035888D01*
X0130491Y0035090D02*
X0119424Y0035090D01*
X0119424Y0034291D02*
X0130491Y0034291D01*
X0130491Y0033493D02*
X0119424Y0033493D01*
X0119424Y0032694D02*
X0130491Y0032694D01*
X0130491Y0031896D02*
X0119424Y0031896D01*
X0119424Y0031097D02*
X0130491Y0031097D01*
X0130904Y0030299D02*
X0119424Y0030299D01*
X0121924Y0029500D02*
X0138796Y0029500D01*
X0138796Y0028702D02*
X0121924Y0028702D01*
X0121924Y0027903D02*
X0138796Y0027903D01*
X0138576Y0027105D02*
X0121924Y0027105D01*
X0121924Y0026306D02*
X0138357Y0026306D01*
X0138357Y0025508D02*
X0121924Y0025508D01*
X0121924Y0024709D02*
X0138628Y0024709D01*
X0139426Y0023911D02*
X0121924Y0023911D01*
X0121924Y0023112D02*
X0177764Y0023112D01*
X0176965Y0023911D02*
X0141887Y0023911D01*
X0142686Y0024709D02*
X0176455Y0024709D01*
X0176124Y0025508D02*
X0142957Y0025508D01*
X0142957Y0026306D02*
X0175793Y0026306D01*
X0175694Y0027105D02*
X0142738Y0027105D01*
X0142496Y0027903D02*
X0175694Y0027903D01*
X0175694Y0028702D02*
X0142496Y0028702D01*
X0142496Y0029500D02*
X0175873Y0029500D01*
X0176204Y0030299D02*
X0142515Y0030299D01*
X0138778Y0030299D02*
X0138578Y0030299D01*
X0134841Y0030299D02*
X0134641Y0030299D01*
X0115724Y0030299D02*
X0099274Y0030299D01*
X0099274Y0031097D02*
X0115724Y0031097D01*
X0115724Y0031896D02*
X0099274Y0031896D01*
X0099274Y0032694D02*
X0115724Y0032694D01*
X0113224Y0029500D02*
X0110159Y0029500D01*
X0110957Y0028702D02*
X0113224Y0028702D01*
X0113224Y0027903D02*
X0111466Y0027903D01*
X0111797Y0027105D02*
X0113224Y0027105D01*
X0113224Y0026306D02*
X0111924Y0026306D01*
X0111924Y0025508D02*
X0113224Y0025508D01*
X0113224Y0024709D02*
X0111776Y0024709D01*
X0111445Y0023911D02*
X0113224Y0023911D01*
X0113224Y0023112D02*
X0110905Y0023112D01*
X0104243Y0023112D02*
X0100905Y0023112D01*
X0101445Y0023911D02*
X0103703Y0023911D01*
X0103373Y0024709D02*
X0101776Y0024709D01*
X0101924Y0025508D02*
X0103224Y0025508D01*
X0103224Y0026306D02*
X0101924Y0026306D01*
X0101797Y0027105D02*
X0103351Y0027105D01*
X0103682Y0027903D02*
X0101466Y0027903D01*
X0100957Y0028702D02*
X0104191Y0028702D01*
X0104989Y0029500D02*
X0100159Y0029500D01*
X0095874Y0029937D02*
X0095874Y0031855D01*
X0091857Y0035872D01*
X0091857Y0034137D01*
X0092761Y0033233D01*
X0093609Y0033233D01*
X0094957Y0031886D01*
X0094957Y0029980D01*
X0093609Y0028633D01*
X0091704Y0028633D01*
X0090357Y0029980D01*
X0090357Y0030829D01*
X0089453Y0031733D01*
X0088457Y0032729D01*
X0088457Y0035126D01*
X0088029Y0034698D01*
X0086756Y0034171D01*
X0086111Y0034171D01*
X0085657Y0033717D01*
X0085657Y0033080D01*
X0084309Y0031733D01*
X0083673Y0031733D01*
X0080607Y0028667D01*
X0079523Y0027583D01*
X0069872Y0027583D01*
X0068788Y0028667D01*
X0067388Y0030067D01*
X0067388Y0030280D01*
X0067269Y0030399D01*
X0066938Y0030067D01*
X0063664Y0030067D01*
X0063332Y0030399D01*
X0063001Y0030067D01*
X0059727Y0030067D01*
X0059083Y0030711D01*
X0059083Y0037725D01*
X0059655Y0038297D01*
X0059064Y0038887D01*
X0059064Y0040793D01*
X0060411Y0042140D01*
X0061401Y0042140D01*
X0062444Y0043183D01*
X0061211Y0043183D01*
X0053257Y0035229D01*
X0052261Y0034233D01*
X0049957Y0034233D01*
X0049957Y0032732D01*
X0050507Y0032182D01*
X0050507Y0028284D01*
X0049606Y0027383D01*
X0045707Y0027383D01*
X0044807Y0028284D01*
X0044807Y0032182D01*
X0045357Y0032732D01*
X0045357Y0034233D01*
X0044453Y0034233D01*
X0043657Y0035029D01*
X0043657Y0032983D01*
X0043906Y0032983D01*
X0044807Y0032082D01*
X0044807Y0028184D01*
X0043906Y0027283D01*
X0040007Y0027283D01*
X0039107Y0028184D01*
X0039107Y0032082D01*
X0040007Y0032983D01*
X0040257Y0032983D01*
X0040257Y0034029D01*
X0037803Y0036483D01*
X0036007Y0036483D01*
X0036007Y0036280D01*
X0034659Y0034933D01*
X0034509Y0034933D01*
X0035557Y0033886D01*
X0035557Y0033137D01*
X0035711Y0032983D01*
X0038106Y0032983D01*
X0039007Y0032082D01*
X0039007Y0028184D01*
X0038106Y0027283D01*
X0036211Y0027283D01*
X0036511Y0026983D01*
X0038106Y0026983D01*
X0039007Y0026082D01*
X0039007Y0025833D01*
X0039107Y0025833D01*
X0039107Y0026082D01*
X0040007Y0026983D01*
X0043906Y0026983D01*
X0044807Y0026082D01*
X0044807Y0025833D01*
X0044807Y0025833D01*
X0044807Y0026182D01*
X0045707Y0027083D01*
X0049606Y0027083D01*
X0050507Y0026182D01*
X0050507Y0022333D01*
X0095022Y0022333D01*
X0093886Y0023469D01*
X0093224Y0025068D01*
X0093224Y0026798D01*
X0093886Y0028397D01*
X0095110Y0029621D01*
X0095874Y0029937D01*
X0095874Y0030299D02*
X0094957Y0030299D01*
X0094957Y0031097D02*
X0095874Y0031097D01*
X0095833Y0031896D02*
X0094947Y0031896D01*
X0095035Y0032694D02*
X0094148Y0032694D01*
X0094236Y0033493D02*
X0092501Y0033493D01*
X0091857Y0034291D02*
X0093438Y0034291D01*
X0092639Y0035090D02*
X0091857Y0035090D01*
X0088457Y0035090D02*
X0088421Y0035090D01*
X0088457Y0034291D02*
X0087047Y0034291D01*
X0085657Y0033493D02*
X0088457Y0033493D01*
X0088491Y0032694D02*
X0085271Y0032694D01*
X0084472Y0031896D02*
X0089290Y0031896D01*
X0090088Y0031097D02*
X0083037Y0031097D01*
X0082239Y0030299D02*
X0090357Y0030299D01*
X0090837Y0029500D02*
X0081440Y0029500D01*
X0080642Y0028702D02*
X0091635Y0028702D01*
X0093678Y0028702D02*
X0094191Y0028702D01*
X0094477Y0029500D02*
X0094989Y0029500D01*
X0093682Y0027903D02*
X0079843Y0027903D01*
X0077990Y0031283D02*
X0071519Y0031283D01*
X0071519Y0037725D01*
X0070875Y0038369D01*
X0067601Y0038369D01*
X0067269Y0038038D01*
X0066938Y0038369D01*
X0066901Y0038369D01*
X0066901Y0038730D01*
X0067698Y0039527D01*
X0067698Y0040711D01*
X0088457Y0061470D01*
X0088457Y0040140D01*
X0088029Y0040568D01*
X0086756Y0041095D01*
X0085379Y0041095D01*
X0084107Y0040568D01*
X0083133Y0039594D01*
X0082606Y0038322D01*
X0082606Y0036944D01*
X0082859Y0036333D01*
X0082404Y0036333D01*
X0081057Y0034986D01*
X0081057Y0034349D01*
X0077990Y0031283D01*
X0078603Y0031896D02*
X0071519Y0031896D01*
X0071519Y0032694D02*
X0079402Y0032694D01*
X0080200Y0033493D02*
X0071519Y0033493D01*
X0071519Y0034291D02*
X0080999Y0034291D01*
X0081161Y0035090D02*
X0071519Y0035090D01*
X0071519Y0035888D02*
X0081959Y0035888D01*
X0082712Y0036687D02*
X0071519Y0036687D01*
X0071519Y0037485D02*
X0082606Y0037485D01*
X0082606Y0038284D02*
X0070960Y0038284D01*
X0067516Y0038284D02*
X0067023Y0038284D01*
X0067253Y0039082D02*
X0082921Y0039082D01*
X0083419Y0039881D02*
X0067698Y0039881D01*
X0067698Y0040679D02*
X0084375Y0040679D01*
X0087760Y0040679D02*
X0088457Y0040679D01*
X0088457Y0041478D02*
X0068464Y0041478D01*
X0069263Y0042277D02*
X0088457Y0042277D01*
X0088457Y0043075D02*
X0070061Y0043075D01*
X0070860Y0043874D02*
X0088457Y0043874D01*
X0088457Y0044672D02*
X0071658Y0044672D01*
X0072457Y0045471D02*
X0088457Y0045471D01*
X0088457Y0046269D02*
X0073255Y0046269D01*
X0074054Y0047068D02*
X0088457Y0047068D01*
X0088457Y0047866D02*
X0074852Y0047866D01*
X0075651Y0048665D02*
X0088457Y0048665D01*
X0088457Y0049463D02*
X0076449Y0049463D01*
X0077248Y0050262D02*
X0088457Y0050262D01*
X0088457Y0051060D02*
X0078046Y0051060D01*
X0078845Y0051859D02*
X0088457Y0051859D01*
X0088457Y0052657D02*
X0079644Y0052657D01*
X0080442Y0053456D02*
X0088457Y0053456D01*
X0088457Y0054254D02*
X0081241Y0054254D01*
X0082039Y0055053D02*
X0088457Y0055053D01*
X0088457Y0055851D02*
X0082838Y0055851D01*
X0083636Y0056650D02*
X0088457Y0056650D01*
X0088457Y0057448D02*
X0084435Y0057448D01*
X0085233Y0058247D02*
X0088457Y0058247D01*
X0088457Y0059045D02*
X0086032Y0059045D01*
X0086830Y0059844D02*
X0088457Y0059844D01*
X0088457Y0060642D02*
X0087629Y0060642D01*
X0088427Y0061441D02*
X0088457Y0061441D01*
X0083896Y0064635D02*
X0071707Y0064635D01*
X0071707Y0065082D02*
X0070806Y0065983D01*
X0066907Y0065983D01*
X0066007Y0065082D01*
X0066007Y0062687D01*
X0065707Y0062387D01*
X0065707Y0065082D01*
X0064806Y0065983D01*
X0064557Y0065983D01*
X0064806Y0065983D01*
X0065707Y0066884D01*
X0065707Y0070782D01*
X0064806Y0071683D01*
X0060907Y0071683D01*
X0060007Y0070782D01*
X0060007Y0070533D01*
X0050161Y0070533D01*
X0043511Y0077183D01*
X0043803Y0077183D01*
X0048053Y0072933D01*
X0060007Y0072933D01*
X0060007Y0072684D01*
X0060907Y0071783D01*
X0064806Y0071783D01*
X0065707Y0072684D01*
X0065707Y0076582D01*
X0064806Y0077483D01*
X0060907Y0077483D01*
X0064806Y0077483D01*
X0065707Y0078384D01*
X0065707Y0082282D01*
X0064806Y0083183D01*
X0062411Y0083183D01*
X0061611Y0083983D01*
X0051257Y0083983D01*
X0051257Y0086739D01*
X0050612Y0087383D01*
X0047101Y0087383D01*
X0046457Y0086739D01*
X0046457Y0079337D01*
X0046257Y0079537D01*
X0046257Y0086739D01*
X0045762Y0087234D01*
X0048757Y0090229D01*
X0048757Y0092729D01*
X0051761Y0095733D01*
X0059907Y0095733D01*
X0059907Y0095484D01*
X0060807Y0094583D01*
X0059907Y0093682D01*
X0059907Y0089784D01*
X0060807Y0088883D01*
X0064706Y0088883D01*
X0065607Y0089784D01*
X0065607Y0093682D01*
X0064706Y0094583D01*
X0064457Y0094583D01*
X0064706Y0094583D01*
X0065607Y0095484D01*
X0065607Y0098020D01*
X0066819Y0099233D01*
X0071994Y0099233D01*
X0072807Y0098420D01*
X0072807Y0094584D01*
X0073707Y0093683D01*
X0077606Y0093683D01*
X0078507Y0094584D01*
X0078507Y0098482D01*
X0077606Y0099383D01*
X0076369Y0099383D01*
X0074257Y0101496D01*
X0073419Y0102333D01*
X0165453Y0102333D01*
X0164657Y0101537D01*
X0163953Y0100833D01*
X0108453Y0100833D01*
X0106103Y0098483D01*
X0103707Y0098483D01*
X0102807Y0097582D01*
X0102807Y0094887D01*
X0102303Y0095391D01*
X0101256Y0095391D01*
X0101256Y0095896D01*
X0100612Y0096541D01*
X0095201Y0096541D01*
X0094556Y0095896D01*
X0094556Y0091485D01*
X0095180Y0090861D01*
X0074853Y0070533D01*
X0071707Y0070533D01*
X0071707Y0070782D01*
X0070806Y0071683D01*
X0066907Y0071683D01*
X0066007Y0070782D01*
X0066007Y0066884D01*
X0066907Y0065983D01*
X0070806Y0065983D01*
X0071707Y0066884D01*
X0071707Y0067133D01*
X0076261Y0067133D01*
X0093708Y0084580D01*
X0093708Y0078488D01*
X0094352Y0077843D01*
X0096456Y0077843D01*
X0096456Y0077195D01*
X0064507Y0045246D01*
X0064507Y0047982D01*
X0063606Y0048883D01*
X0059707Y0048883D01*
X0058807Y0047982D01*
X0058807Y0045587D01*
X0051507Y0038287D01*
X0051507Y0041282D01*
X0050606Y0042183D01*
X0048611Y0042183D01*
X0048311Y0042483D01*
X0050606Y0042483D01*
X0051507Y0043384D01*
X0051507Y0047282D01*
X0050606Y0048183D01*
X0049957Y0048183D01*
X0049957Y0049094D01*
X0050897Y0048154D01*
X0052603Y0047447D01*
X0054450Y0047447D01*
X0056157Y0048154D01*
X0057463Y0049460D01*
X0057825Y0050333D01*
X0058807Y0050333D01*
X0058807Y0050084D01*
X0059707Y0049183D01*
X0063606Y0049183D01*
X0064507Y0050084D01*
X0064507Y0053982D01*
X0063606Y0054883D01*
X0059707Y0054883D01*
X0058807Y0053982D01*
X0058807Y0053733D01*
X0057872Y0053733D01*
X0057463Y0054721D01*
X0056157Y0056027D01*
X0054450Y0056734D01*
X0052603Y0056734D01*
X0051257Y0056176D01*
X0051257Y0063629D01*
X0057153Y0057733D01*
X0065861Y0057733D01*
X0066857Y0058729D01*
X0068411Y0060283D01*
X0070806Y0060283D01*
X0071707Y0061184D01*
X0071707Y0065082D01*
X0071356Y0065433D02*
X0084694Y0065433D01*
X0085493Y0066232D02*
X0071055Y0066232D01*
X0071707Y0067030D02*
X0086291Y0067030D01*
X0087090Y0067829D02*
X0076957Y0067829D01*
X0077755Y0068627D02*
X0087888Y0068627D01*
X0088687Y0069426D02*
X0078554Y0069426D01*
X0079352Y0070224D02*
X0089485Y0070224D01*
X0090284Y0071023D02*
X0080151Y0071023D01*
X0080949Y0071821D02*
X0091082Y0071821D01*
X0091881Y0072620D02*
X0081748Y0072620D01*
X0082546Y0073418D02*
X0092679Y0073418D01*
X0093478Y0074217D02*
X0083345Y0074217D01*
X0084143Y0075015D02*
X0094276Y0075015D01*
X0095075Y0075814D02*
X0084942Y0075814D01*
X0085740Y0076612D02*
X0095873Y0076612D01*
X0096456Y0077411D02*
X0086539Y0077411D01*
X0087337Y0078210D02*
X0093986Y0078210D01*
X0093708Y0079008D02*
X0088136Y0079008D01*
X0088934Y0079807D02*
X0093708Y0079807D01*
X0093708Y0080605D02*
X0089733Y0080605D01*
X0090531Y0081404D02*
X0093708Y0081404D01*
X0093708Y0082202D02*
X0091330Y0082202D01*
X0092128Y0083001D02*
X0093708Y0083001D01*
X0093708Y0083799D02*
X0092927Y0083799D01*
X0095077Y0085949D02*
X0099606Y0090479D01*
X0099606Y0090841D01*
X0100612Y0090841D01*
X0101256Y0091485D01*
X0101256Y0091629D01*
X0102807Y0090079D01*
X0102807Y0087684D01*
X0103707Y0086783D01*
X0104033Y0086783D01*
X0104033Y0085949D01*
X0102029Y0085949D01*
X0101895Y0085814D01*
X0101760Y0085949D01*
X0099470Y0085949D01*
X0099335Y0085814D01*
X0099201Y0085949D01*
X0096911Y0085949D01*
X0096776Y0085814D01*
X0096641Y0085949D01*
X0095077Y0085949D01*
X0095322Y0086195D02*
X0104033Y0086195D01*
X0103497Y0086993D02*
X0096121Y0086993D01*
X0096919Y0087792D02*
X0102807Y0087792D01*
X0102807Y0088590D02*
X0097718Y0088590D01*
X0098516Y0089389D02*
X0102807Y0089389D01*
X0102698Y0090187D02*
X0099315Y0090187D01*
X0100757Y0090986D02*
X0101900Y0090986D01*
X0102716Y0094978D02*
X0102807Y0094978D01*
X0102807Y0095777D02*
X0101256Y0095777D01*
X0102807Y0096575D02*
X0093256Y0096575D01*
X0093256Y0095777D02*
X0094556Y0095777D01*
X0094556Y0094978D02*
X0093009Y0094978D01*
X0093256Y0095225D02*
X0093256Y0099636D01*
X0092612Y0100281D01*
X0087201Y0100281D01*
X0086556Y0099636D01*
X0086556Y0097337D01*
X0084507Y0095287D01*
X0084507Y0098482D01*
X0083606Y0099383D01*
X0079707Y0099383D01*
X0078807Y0098482D01*
X0078807Y0095946D01*
X0078739Y0095878D01*
X0078739Y0093904D01*
X0078039Y0093204D01*
X0078039Y0091298D01*
X0079278Y0090059D01*
X0076953Y0087733D01*
X0071707Y0087733D01*
X0071707Y0087982D01*
X0070806Y0088883D01*
X0066907Y0088883D01*
X0066007Y0087982D01*
X0066007Y0084084D01*
X0066907Y0083183D01*
X0066007Y0082282D01*
X0066007Y0078384D01*
X0066907Y0077483D01*
X0066007Y0076582D01*
X0066007Y0072684D01*
X0066907Y0071783D01*
X0070806Y0071783D01*
X0071580Y0072557D01*
X0071904Y0072233D01*
X0073809Y0072233D01*
X0075157Y0073580D01*
X0075157Y0075486D01*
X0073809Y0076833D01*
X0071904Y0076833D01*
X0071680Y0076609D01*
X0070806Y0077483D01*
X0066907Y0077483D01*
X0070806Y0077483D01*
X0071707Y0078384D01*
X0071707Y0082282D01*
X0070806Y0083183D01*
X0070557Y0083183D01*
X0070806Y0083183D01*
X0071707Y0084084D01*
X0071707Y0084333D01*
X0078361Y0084333D01*
X0088609Y0094581D01*
X0092612Y0094581D01*
X0093256Y0095225D01*
X0094556Y0094180D02*
X0088208Y0094180D01*
X0087409Y0093381D02*
X0094556Y0093381D01*
X0094556Y0092583D02*
X0086611Y0092583D01*
X0085812Y0091784D02*
X0094556Y0091784D01*
X0095056Y0090986D02*
X0085013Y0090986D01*
X0084215Y0090187D02*
X0094507Y0090187D01*
X0093708Y0089389D02*
X0083416Y0089389D01*
X0082618Y0088590D02*
X0092910Y0088590D01*
X0092111Y0087792D02*
X0081819Y0087792D01*
X0081021Y0086993D02*
X0091313Y0086993D01*
X0090514Y0086195D02*
X0080222Y0086195D01*
X0079424Y0085396D02*
X0089716Y0085396D01*
X0088917Y0084598D02*
X0078625Y0084598D01*
X0077011Y0087792D02*
X0071707Y0087792D01*
X0071099Y0088590D02*
X0077810Y0088590D01*
X0078608Y0089389D02*
X0065212Y0089389D01*
X0065607Y0090187D02*
X0079150Y0090187D01*
X0078351Y0090986D02*
X0065607Y0090986D01*
X0065607Y0091784D02*
X0078039Y0091784D01*
X0078039Y0092583D02*
X0065607Y0092583D01*
X0065607Y0093381D02*
X0078217Y0093381D01*
X0078103Y0094180D02*
X0078739Y0094180D01*
X0078739Y0094978D02*
X0078507Y0094978D01*
X0078507Y0095777D02*
X0078739Y0095777D01*
X0078807Y0096575D02*
X0078507Y0096575D01*
X0078507Y0097374D02*
X0078807Y0097374D01*
X0078807Y0098172D02*
X0078507Y0098172D01*
X0078018Y0098971D02*
X0079295Y0098971D01*
X0075983Y0099769D02*
X0086689Y0099769D01*
X0086556Y0098971D02*
X0084018Y0098971D01*
X0084507Y0098172D02*
X0086556Y0098172D01*
X0086556Y0097374D02*
X0084507Y0097374D01*
X0084507Y0096575D02*
X0085795Y0096575D01*
X0084996Y0095777D02*
X0084507Y0095777D01*
X0093256Y0097374D02*
X0102807Y0097374D01*
X0103397Y0098172D02*
X0093256Y0098172D01*
X0093256Y0098971D02*
X0106590Y0098971D01*
X0107389Y0099769D02*
X0093123Y0099769D01*
X0108187Y0100568D02*
X0075185Y0100568D01*
X0074386Y0101366D02*
X0164486Y0101366D01*
X0165284Y0102165D02*
X0073588Y0102165D01*
X0072256Y0098971D02*
X0066557Y0098971D01*
X0065759Y0098172D02*
X0072807Y0098172D01*
X0072807Y0097374D02*
X0065607Y0097374D01*
X0065607Y0096575D02*
X0072807Y0096575D01*
X0072807Y0095777D02*
X0065607Y0095777D01*
X0065101Y0094978D02*
X0072807Y0094978D01*
X0073211Y0094180D02*
X0065109Y0094180D01*
X0064457Y0094583D02*
X0064457Y0094583D01*
X0061057Y0094583D02*
X0060807Y0094583D01*
X0061057Y0094583D01*
X0061057Y0094583D01*
X0060412Y0094978D02*
X0051006Y0094978D01*
X0050208Y0094180D02*
X0060404Y0094180D01*
X0059907Y0093381D02*
X0049409Y0093381D01*
X0048757Y0092583D02*
X0059907Y0092583D01*
X0059907Y0091784D02*
X0048757Y0091784D01*
X0048757Y0090986D02*
X0059907Y0090986D01*
X0059907Y0090187D02*
X0048715Y0090187D01*
X0047916Y0089389D02*
X0060302Y0089389D01*
X0066007Y0087792D02*
X0046319Y0087792D01*
X0046002Y0086993D02*
X0046711Y0086993D01*
X0046457Y0086195D02*
X0046257Y0086195D01*
X0046257Y0085396D02*
X0046457Y0085396D01*
X0046457Y0084598D02*
X0046257Y0084598D01*
X0046257Y0083799D02*
X0046457Y0083799D01*
X0046457Y0083001D02*
X0046257Y0083001D01*
X0046257Y0082202D02*
X0046457Y0082202D01*
X0046457Y0081404D02*
X0046257Y0081404D01*
X0046257Y0080605D02*
X0046457Y0080605D01*
X0046457Y0079807D02*
X0046257Y0079807D01*
X0048611Y0077183D02*
X0050612Y0077183D01*
X0051257Y0077827D01*
X0051257Y0080583D01*
X0060007Y0080583D01*
X0060007Y0078384D01*
X0060907Y0077483D01*
X0060007Y0076582D01*
X0060007Y0076333D01*
X0049461Y0076333D01*
X0048611Y0077183D01*
X0049181Y0076612D02*
X0060037Y0076612D01*
X0060835Y0077411D02*
X0050840Y0077411D01*
X0051257Y0078210D02*
X0060181Y0078210D01*
X0060007Y0079008D02*
X0051257Y0079008D01*
X0051257Y0079807D02*
X0060007Y0079807D01*
X0064878Y0077411D02*
X0066835Y0077411D01*
X0066181Y0078210D02*
X0065532Y0078210D01*
X0065707Y0079008D02*
X0066007Y0079008D01*
X0066007Y0079807D02*
X0065707Y0079807D01*
X0065707Y0080605D02*
X0066007Y0080605D01*
X0066007Y0081404D02*
X0065707Y0081404D01*
X0065707Y0082202D02*
X0066007Y0082202D01*
X0066725Y0083001D02*
X0064989Y0083001D01*
X0066291Y0083799D02*
X0061795Y0083799D01*
X0066007Y0084598D02*
X0051257Y0084598D01*
X0051257Y0085396D02*
X0066007Y0085396D01*
X0066007Y0086195D02*
X0051257Y0086195D01*
X0051002Y0086993D02*
X0066007Y0086993D01*
X0066614Y0088590D02*
X0047118Y0088590D01*
X0045681Y0094461D02*
X0045209Y0094933D01*
X0043304Y0094933D01*
X0043180Y0094809D01*
X0042406Y0095583D01*
X0038507Y0095583D01*
X0037657Y0094732D01*
X0036806Y0095583D01*
X0032907Y0095583D01*
X0032057Y0094732D01*
X0031206Y0095583D01*
X0029111Y0095583D01*
X0028811Y0095883D01*
X0031206Y0095883D01*
X0032107Y0096784D01*
X0032107Y0100682D01*
X0031557Y0101232D01*
X0031557Y0102333D01*
X0065394Y0102333D01*
X0063344Y0100283D01*
X0060807Y0100283D01*
X0059907Y0099382D01*
X0059907Y0099133D01*
X0050353Y0099133D01*
X0045681Y0094461D01*
X0046198Y0094978D02*
X0043011Y0094978D01*
X0046996Y0095777D02*
X0028917Y0095777D01*
X0031811Y0094978D02*
X0032303Y0094978D01*
X0031898Y0096575D02*
X0047795Y0096575D01*
X0048593Y0097374D02*
X0032107Y0097374D01*
X0032107Y0098172D02*
X0049392Y0098172D01*
X0050190Y0098971D02*
X0032107Y0098971D01*
X0032107Y0099769D02*
X0060294Y0099769D01*
X0063629Y0100568D02*
X0032107Y0100568D01*
X0031557Y0101366D02*
X0064427Y0101366D01*
X0065226Y0102165D02*
X0031557Y0102165D01*
X0037411Y0094978D02*
X0037903Y0094978D01*
X0066907Y0083183D02*
X0067157Y0083183D01*
X0066907Y0083183D01*
X0067157Y0083183D02*
X0067157Y0083183D01*
X0070557Y0083183D02*
X0070557Y0083183D01*
X0070989Y0083001D02*
X0087320Y0083001D01*
X0088119Y0083799D02*
X0071422Y0083799D01*
X0071707Y0082202D02*
X0086522Y0082202D01*
X0085723Y0081404D02*
X0071707Y0081404D01*
X0071707Y0080605D02*
X0084925Y0080605D01*
X0084126Y0079807D02*
X0071707Y0079807D01*
X0071707Y0079008D02*
X0083327Y0079008D01*
X0082529Y0078210D02*
X0071532Y0078210D01*
X0070878Y0077411D02*
X0081730Y0077411D01*
X0080932Y0076612D02*
X0074030Y0076612D01*
X0074828Y0075814D02*
X0080133Y0075814D01*
X0079335Y0075015D02*
X0075157Y0075015D01*
X0075157Y0074217D02*
X0078536Y0074217D01*
X0077738Y0073418D02*
X0074995Y0073418D01*
X0074196Y0072620D02*
X0076939Y0072620D01*
X0076141Y0071821D02*
X0070844Y0071821D01*
X0071466Y0071023D02*
X0075342Y0071023D01*
X0066869Y0071821D02*
X0064844Y0071821D01*
X0065466Y0071023D02*
X0066247Y0071023D01*
X0066007Y0070224D02*
X0065707Y0070224D01*
X0065707Y0069426D02*
X0066007Y0069426D01*
X0066007Y0068627D02*
X0065707Y0068627D01*
X0065707Y0067829D02*
X0066007Y0067829D01*
X0066007Y0067030D02*
X0065707Y0067030D01*
X0065055Y0066232D02*
X0066659Y0066232D01*
X0066358Y0065433D02*
X0065356Y0065433D01*
X0065707Y0064635D02*
X0066007Y0064635D01*
X0066007Y0063836D02*
X0065707Y0063836D01*
X0065707Y0063038D02*
X0066007Y0063038D01*
X0060358Y0065433D02*
X0054261Y0065433D01*
X0055059Y0064635D02*
X0060007Y0064635D01*
X0060007Y0065082D02*
X0060007Y0061184D01*
X0060057Y0061133D01*
X0058561Y0061133D01*
X0052561Y0067133D01*
X0060007Y0067133D01*
X0060007Y0066884D01*
X0060907Y0065983D01*
X0061157Y0065983D01*
X0061157Y0065983D01*
X0060907Y0065983D01*
X0060007Y0065082D01*
X0060007Y0063836D02*
X0055858Y0063836D01*
X0056656Y0063038D02*
X0060007Y0063038D01*
X0060007Y0062239D02*
X0057455Y0062239D01*
X0058253Y0061441D02*
X0060007Y0061441D01*
X0055840Y0059045D02*
X0051257Y0059045D01*
X0051257Y0058247D02*
X0056639Y0058247D01*
X0055042Y0059844D02*
X0051257Y0059844D01*
X0051257Y0060642D02*
X0054243Y0060642D01*
X0053445Y0061441D02*
X0051257Y0061441D01*
X0051257Y0062239D02*
X0052646Y0062239D01*
X0051848Y0063038D02*
X0051257Y0063038D01*
X0047001Y0064933D02*
X0046457Y0064389D01*
X0046457Y0057037D01*
X0046257Y0056837D01*
X0046257Y0064389D01*
X0045612Y0065033D01*
X0042101Y0065033D01*
X0041457Y0064389D01*
X0041457Y0055477D01*
X0042101Y0054833D01*
X0042157Y0054833D01*
X0042157Y0054132D01*
X0041806Y0054483D01*
X0040557Y0054483D01*
X0040557Y0054833D01*
X0040612Y0054833D01*
X0041257Y0055477D01*
X0041257Y0064389D01*
X0040811Y0064835D01*
X0041157Y0065180D01*
X0041157Y0067086D01*
X0039809Y0068433D01*
X0037904Y0068433D01*
X0037304Y0067833D01*
X0030661Y0067833D01*
X0030557Y0067937D01*
X0030557Y0073080D01*
X0030904Y0072733D01*
X0032809Y0072733D01*
X0033409Y0073333D01*
X0038053Y0073333D01*
X0046453Y0064933D01*
X0047001Y0064933D01*
X0046703Y0064635D02*
X0046011Y0064635D01*
X0045952Y0065433D02*
X0041157Y0065433D01*
X0041157Y0066232D02*
X0045154Y0066232D01*
X0044355Y0067030D02*
X0041157Y0067030D01*
X0040414Y0067829D02*
X0043557Y0067829D01*
X0042758Y0068627D02*
X0030557Y0068627D01*
X0030557Y0069426D02*
X0041960Y0069426D01*
X0041161Y0070224D02*
X0030557Y0070224D01*
X0030557Y0071023D02*
X0040363Y0071023D01*
X0039564Y0071821D02*
X0030557Y0071821D01*
X0030557Y0072620D02*
X0038766Y0072620D01*
X0044880Y0075814D02*
X0045172Y0075814D01*
X0045678Y0075015D02*
X0045970Y0075015D01*
X0046477Y0074217D02*
X0046769Y0074217D01*
X0047275Y0073418D02*
X0047567Y0073418D01*
X0048074Y0072620D02*
X0060070Y0072620D01*
X0060869Y0071821D02*
X0048873Y0071821D01*
X0049671Y0071023D02*
X0060247Y0071023D01*
X0065643Y0072620D02*
X0066070Y0072620D01*
X0066007Y0073418D02*
X0065707Y0073418D01*
X0065707Y0074217D02*
X0066007Y0074217D01*
X0066007Y0075015D02*
X0065707Y0075015D01*
X0065707Y0075814D02*
X0066007Y0075814D01*
X0066037Y0076612D02*
X0065677Y0076612D01*
X0071677Y0076612D02*
X0071683Y0076612D01*
X0064557Y0065983D02*
X0064557Y0065983D01*
X0060659Y0066232D02*
X0053462Y0066232D01*
X0052664Y0067030D02*
X0060007Y0067030D01*
X0067972Y0059844D02*
X0079105Y0059844D01*
X0079903Y0060642D02*
X0071165Y0060642D01*
X0071707Y0061441D02*
X0080702Y0061441D01*
X0081500Y0062239D02*
X0071707Y0062239D01*
X0071707Y0063038D02*
X0082299Y0063038D01*
X0083097Y0063836D02*
X0071707Y0063836D01*
X0067173Y0059045D02*
X0078306Y0059045D01*
X0077508Y0058247D02*
X0066375Y0058247D01*
X0064235Y0054254D02*
X0073515Y0054254D01*
X0072717Y0053456D02*
X0064507Y0053456D01*
X0064507Y0052657D02*
X0071918Y0052657D01*
X0071120Y0051859D02*
X0064507Y0051859D01*
X0064507Y0051060D02*
X0070321Y0051060D01*
X0069523Y0050262D02*
X0064507Y0050262D01*
X0063886Y0049463D02*
X0068724Y0049463D01*
X0067926Y0048665D02*
X0063825Y0048665D01*
X0064507Y0047866D02*
X0067127Y0047866D01*
X0066328Y0047068D02*
X0064507Y0047068D01*
X0064507Y0046269D02*
X0065530Y0046269D01*
X0064731Y0045471D02*
X0064507Y0045471D01*
X0062336Y0043075D02*
X0061103Y0043075D01*
X0061537Y0042277D02*
X0060304Y0042277D01*
X0059749Y0041478D02*
X0059506Y0041478D01*
X0059064Y0040679D02*
X0058707Y0040679D01*
X0059064Y0039881D02*
X0057909Y0039881D01*
X0057110Y0039082D02*
X0059064Y0039082D01*
X0059642Y0038284D02*
X0056312Y0038284D01*
X0055513Y0037485D02*
X0059083Y0037485D01*
X0059083Y0036687D02*
X0054715Y0036687D01*
X0053916Y0035888D02*
X0059083Y0035888D01*
X0059083Y0035090D02*
X0053118Y0035090D01*
X0052319Y0034291D02*
X0059083Y0034291D01*
X0059083Y0033493D02*
X0049957Y0033493D01*
X0049995Y0032694D02*
X0059083Y0032694D01*
X0059083Y0031896D02*
X0050507Y0031896D01*
X0050507Y0031097D02*
X0059083Y0031097D01*
X0059495Y0030299D02*
X0050507Y0030299D01*
X0050507Y0029500D02*
X0067954Y0029500D01*
X0067369Y0030299D02*
X0067169Y0030299D01*
X0068753Y0028702D02*
X0050507Y0028702D01*
X0050126Y0027903D02*
X0069551Y0027903D01*
X0063432Y0030299D02*
X0063232Y0030299D01*
X0050383Y0026306D02*
X0093224Y0026306D01*
X0093224Y0025508D02*
X0050507Y0025508D01*
X0050507Y0024709D02*
X0093373Y0024709D01*
X0093703Y0023911D02*
X0050507Y0023911D01*
X0050507Y0023112D02*
X0094243Y0023112D01*
X0093351Y0027105D02*
X0036389Y0027105D01*
X0032379Y0026306D02*
X0028268Y0026306D01*
X0028368Y0026547D02*
X0028368Y0029068D01*
X0027484Y0031202D01*
X0033307Y0025379D01*
X0033307Y0022333D01*
X0025375Y0022333D01*
X0025620Y0022435D01*
X0027403Y0024217D01*
X0028368Y0026547D01*
X0028368Y0027105D02*
X0031581Y0027105D01*
X0030782Y0027903D02*
X0028368Y0027903D01*
X0028368Y0028702D02*
X0029984Y0028702D01*
X0029185Y0029500D02*
X0028188Y0029500D01*
X0028387Y0030299D02*
X0027858Y0030299D01*
X0027588Y0031097D02*
X0027527Y0031097D01*
X0021042Y0034144D02*
X0020557Y0034629D01*
X0020557Y0034629D01*
X0019503Y0035683D01*
X0017107Y0035683D01*
X0016557Y0036234D01*
X0016557Y0031151D01*
X0016658Y0031397D01*
X0018441Y0033179D01*
X0020770Y0034144D01*
X0021042Y0034144D01*
X0020894Y0034291D02*
X0016557Y0034291D01*
X0016557Y0033493D02*
X0019198Y0033493D01*
X0017956Y0032694D02*
X0016557Y0032694D01*
X0016557Y0031896D02*
X0017158Y0031896D01*
X0016557Y0035090D02*
X0020096Y0035090D01*
X0016902Y0035888D02*
X0016557Y0035888D01*
X0021907Y0038087D02*
X0021907Y0040482D01*
X0021006Y0041383D01*
X0017107Y0041383D01*
X0016557Y0040832D01*
X0016557Y0042034D01*
X0017107Y0041483D01*
X0021006Y0041483D01*
X0021907Y0042384D01*
X0021907Y0046282D01*
X0021006Y0047183D01*
X0020757Y0047183D01*
X0020757Y0047283D01*
X0021006Y0047283D01*
X0021907Y0048184D01*
X0021907Y0052082D01*
X0021006Y0052983D01*
X0020757Y0052983D01*
X0020757Y0053080D01*
X0021357Y0053680D01*
X0021357Y0055586D01*
X0021257Y0055686D01*
X0021257Y0064389D01*
X0020612Y0065033D01*
X0017101Y0065033D01*
X0016557Y0064489D01*
X0016557Y0077727D01*
X0017101Y0077183D01*
X0018803Y0077183D01*
X0022653Y0073333D01*
X0024404Y0073333D01*
X0025004Y0072733D01*
X0026909Y0072733D01*
X0027157Y0072980D01*
X0027157Y0065033D01*
X0027101Y0065033D01*
X0026457Y0064389D01*
X0026457Y0055477D01*
X0027101Y0054833D01*
X0027157Y0054833D01*
X0027157Y0052832D01*
X0027006Y0052983D01*
X0025557Y0052983D01*
X0025557Y0054833D01*
X0025612Y0054833D01*
X0026257Y0055477D01*
X0026257Y0064389D01*
X0025612Y0065033D01*
X0022101Y0065033D01*
X0021457Y0064389D01*
X0021457Y0055477D01*
X0022101Y0054833D01*
X0022157Y0054833D01*
X0022157Y0050629D01*
X0022207Y0050579D01*
X0022207Y0048184D01*
X0023107Y0047283D01*
X0023357Y0047283D01*
X0023357Y0047183D01*
X0023107Y0047183D01*
X0022207Y0046282D01*
X0022207Y0042384D01*
X0023107Y0041483D01*
X0023357Y0041483D01*
X0023357Y0041383D01*
X0023107Y0041383D01*
X0022207Y0040482D01*
X0022207Y0037787D01*
X0021907Y0038087D01*
X0021907Y0038284D02*
X0022207Y0038284D01*
X0022207Y0039082D02*
X0021907Y0039082D01*
X0021907Y0039881D02*
X0022207Y0039881D01*
X0022404Y0040679D02*
X0021710Y0040679D01*
X0021799Y0042277D02*
X0022314Y0042277D01*
X0022207Y0043075D02*
X0021907Y0043075D01*
X0021907Y0043874D02*
X0022207Y0043874D01*
X0022207Y0044672D02*
X0021907Y0044672D01*
X0021907Y0045471D02*
X0022207Y0045471D01*
X0022207Y0046269D02*
X0021907Y0046269D01*
X0021122Y0047068D02*
X0022992Y0047068D01*
X0022524Y0047866D02*
X0021589Y0047866D01*
X0021907Y0048665D02*
X0022207Y0048665D01*
X0022207Y0049463D02*
X0021907Y0049463D01*
X0021907Y0050262D02*
X0022207Y0050262D01*
X0022157Y0051060D02*
X0021907Y0051060D01*
X0021907Y0051859D02*
X0022157Y0051859D01*
X0022157Y0052657D02*
X0021332Y0052657D01*
X0021132Y0053456D02*
X0022157Y0053456D01*
X0022157Y0054254D02*
X0021357Y0054254D01*
X0021357Y0055053D02*
X0021881Y0055053D01*
X0021457Y0055851D02*
X0021257Y0055851D01*
X0021257Y0056650D02*
X0021457Y0056650D01*
X0021457Y0057448D02*
X0021257Y0057448D01*
X0021257Y0058247D02*
X0021457Y0058247D01*
X0021457Y0059045D02*
X0021257Y0059045D01*
X0021257Y0059844D02*
X0021457Y0059844D01*
X0021457Y0060642D02*
X0021257Y0060642D01*
X0021257Y0061441D02*
X0021457Y0061441D01*
X0021457Y0062239D02*
X0021257Y0062239D01*
X0021257Y0063038D02*
X0021457Y0063038D01*
X0021457Y0063836D02*
X0021257Y0063836D01*
X0021011Y0064635D02*
X0021703Y0064635D01*
X0026011Y0064635D02*
X0026703Y0064635D01*
X0026457Y0063836D02*
X0026257Y0063836D01*
X0026257Y0063038D02*
X0026457Y0063038D01*
X0026457Y0062239D02*
X0026257Y0062239D01*
X0026257Y0061441D02*
X0026457Y0061441D01*
X0026457Y0060642D02*
X0026257Y0060642D01*
X0026257Y0059844D02*
X0026457Y0059844D01*
X0026457Y0059045D02*
X0026257Y0059045D01*
X0026257Y0058247D02*
X0026457Y0058247D01*
X0026457Y0057448D02*
X0026257Y0057448D01*
X0026257Y0056650D02*
X0026457Y0056650D01*
X0026457Y0055851D02*
X0026257Y0055851D01*
X0025832Y0055053D02*
X0026881Y0055053D01*
X0027157Y0054254D02*
X0025557Y0054254D01*
X0025557Y0053456D02*
X0027157Y0053456D01*
X0030557Y0053456D02*
X0037007Y0053456D01*
X0037007Y0053582D02*
X0037007Y0049684D01*
X0037907Y0048783D01*
X0041806Y0048783D01*
X0042157Y0049134D01*
X0042157Y0048183D01*
X0041107Y0048183D01*
X0040207Y0047282D01*
X0040207Y0043384D01*
X0041107Y0042483D01*
X0043503Y0042483D01*
X0043803Y0042183D01*
X0041107Y0042183D01*
X0040207Y0041282D01*
X0040207Y0038887D01*
X0040207Y0038887D01*
X0040207Y0041282D01*
X0039306Y0042183D01*
X0037111Y0042183D01*
X0034407Y0044887D01*
X0034407Y0047282D01*
X0033506Y0048183D01*
X0031111Y0048183D01*
X0030557Y0048737D01*
X0030557Y0054833D01*
X0030612Y0054833D01*
X0031257Y0055477D01*
X0031257Y0064389D01*
X0031212Y0064433D01*
X0036501Y0064433D01*
X0036457Y0064389D01*
X0036457Y0055477D01*
X0037101Y0054833D01*
X0037157Y0054833D01*
X0037157Y0053732D01*
X0037007Y0053582D01*
X0037157Y0054254D02*
X0030557Y0054254D01*
X0030832Y0055053D02*
X0036881Y0055053D01*
X0036457Y0055851D02*
X0031257Y0055851D01*
X0031257Y0056650D02*
X0036457Y0056650D01*
X0036457Y0057448D02*
X0031257Y0057448D01*
X0031257Y0058247D02*
X0036457Y0058247D01*
X0036457Y0059045D02*
X0031257Y0059045D01*
X0031257Y0059844D02*
X0036457Y0059844D01*
X0036457Y0060642D02*
X0031257Y0060642D01*
X0031257Y0061441D02*
X0036457Y0061441D01*
X0036457Y0062239D02*
X0031257Y0062239D01*
X0031257Y0063038D02*
X0036457Y0063038D01*
X0036457Y0063836D02*
X0031257Y0063836D01*
X0027157Y0065433D02*
X0016557Y0065433D01*
X0016557Y0064635D02*
X0016703Y0064635D01*
X0016557Y0066232D02*
X0027157Y0066232D01*
X0027157Y0067030D02*
X0016557Y0067030D01*
X0016557Y0067829D02*
X0027157Y0067829D01*
X0027157Y0068627D02*
X0016557Y0068627D01*
X0016557Y0069426D02*
X0027157Y0069426D01*
X0027157Y0070224D02*
X0016557Y0070224D01*
X0016557Y0071023D02*
X0027157Y0071023D01*
X0027157Y0071821D02*
X0016557Y0071821D01*
X0016557Y0072620D02*
X0027157Y0072620D01*
X0022567Y0073418D02*
X0016557Y0073418D01*
X0016557Y0074217D02*
X0021769Y0074217D01*
X0020970Y0075015D02*
X0016557Y0075015D01*
X0016557Y0075814D02*
X0020172Y0075814D01*
X0019373Y0076612D02*
X0016557Y0076612D01*
X0016557Y0077411D02*
X0016873Y0077411D01*
X0041011Y0064635D02*
X0041703Y0064635D01*
X0041457Y0063836D02*
X0041257Y0063836D01*
X0041257Y0063038D02*
X0041457Y0063038D01*
X0041457Y0062239D02*
X0041257Y0062239D01*
X0041257Y0061441D02*
X0041457Y0061441D01*
X0041457Y0060642D02*
X0041257Y0060642D01*
X0041257Y0059844D02*
X0041457Y0059844D01*
X0041457Y0059045D02*
X0041257Y0059045D01*
X0041257Y0058247D02*
X0041457Y0058247D01*
X0041457Y0057448D02*
X0041257Y0057448D01*
X0041257Y0056650D02*
X0041457Y0056650D01*
X0041457Y0055851D02*
X0041257Y0055851D01*
X0040832Y0055053D02*
X0041881Y0055053D01*
X0042035Y0054254D02*
X0042157Y0054254D01*
X0046257Y0057448D02*
X0046457Y0057448D01*
X0046457Y0058247D02*
X0046257Y0058247D01*
X0046257Y0059045D02*
X0046457Y0059045D01*
X0046457Y0059844D02*
X0046257Y0059844D01*
X0046257Y0060642D02*
X0046457Y0060642D01*
X0046457Y0061441D02*
X0046257Y0061441D01*
X0046257Y0062239D02*
X0046457Y0062239D01*
X0046457Y0063038D02*
X0046257Y0063038D01*
X0046257Y0063836D02*
X0046457Y0063836D01*
X0051257Y0057448D02*
X0076709Y0057448D01*
X0075911Y0056650D02*
X0054654Y0056650D01*
X0056333Y0055851D02*
X0075112Y0055851D01*
X0074314Y0055053D02*
X0057131Y0055053D01*
X0057656Y0054254D02*
X0059078Y0054254D01*
X0052400Y0056650D02*
X0051257Y0056650D01*
X0057795Y0050262D02*
X0058807Y0050262D01*
X0059427Y0049463D02*
X0057464Y0049463D01*
X0056667Y0048665D02*
X0059489Y0048665D01*
X0058807Y0047866D02*
X0055462Y0047866D01*
X0058807Y0047068D02*
X0051507Y0047068D01*
X0051507Y0046269D02*
X0058807Y0046269D01*
X0058690Y0045471D02*
X0051507Y0045471D01*
X0051507Y0044672D02*
X0057892Y0044672D01*
X0057093Y0043874D02*
X0051507Y0043874D01*
X0051198Y0043075D02*
X0056295Y0043075D01*
X0055496Y0042277D02*
X0048517Y0042277D01*
X0051311Y0041478D02*
X0054697Y0041478D01*
X0053899Y0040679D02*
X0051507Y0040679D01*
X0051507Y0039881D02*
X0053100Y0039881D01*
X0052302Y0039082D02*
X0051507Y0039082D01*
X0043709Y0042277D02*
X0037017Y0042277D01*
X0036219Y0043075D02*
X0040515Y0043075D01*
X0040207Y0043874D02*
X0035420Y0043874D01*
X0034622Y0044672D02*
X0040207Y0044672D01*
X0040207Y0045471D02*
X0034407Y0045471D01*
X0034407Y0046269D02*
X0040207Y0046269D01*
X0040207Y0047068D02*
X0034407Y0047068D01*
X0033823Y0047866D02*
X0040790Y0047866D01*
X0042157Y0048665D02*
X0030629Y0048665D01*
X0030557Y0049463D02*
X0037227Y0049463D01*
X0037007Y0050262D02*
X0030557Y0050262D01*
X0030557Y0051060D02*
X0037007Y0051060D01*
X0037007Y0051859D02*
X0030557Y0051859D01*
X0030557Y0052657D02*
X0037007Y0052657D01*
X0049957Y0048665D02*
X0050386Y0048665D01*
X0050923Y0047866D02*
X0051592Y0047866D01*
X0040402Y0041478D02*
X0040011Y0041478D01*
X0040207Y0040679D02*
X0040207Y0040679D01*
X0040207Y0039881D02*
X0040207Y0039881D01*
X0040207Y0039082D02*
X0040207Y0039082D01*
X0038397Y0035888D02*
X0035615Y0035888D01*
X0034816Y0035090D02*
X0039196Y0035090D01*
X0039994Y0034291D02*
X0035151Y0034291D01*
X0035557Y0033493D02*
X0040257Y0033493D01*
X0039719Y0032694D02*
X0038395Y0032694D01*
X0039007Y0031896D02*
X0039107Y0031896D01*
X0039107Y0031097D02*
X0039007Y0031097D01*
X0039007Y0030299D02*
X0039107Y0030299D01*
X0039107Y0029500D02*
X0039007Y0029500D01*
X0039007Y0028702D02*
X0039107Y0028702D01*
X0039387Y0027903D02*
X0038726Y0027903D01*
X0038783Y0026306D02*
X0039331Y0026306D01*
X0044583Y0026306D02*
X0044931Y0026306D01*
X0045187Y0027903D02*
X0044526Y0027903D01*
X0044807Y0028702D02*
X0044807Y0028702D01*
X0044807Y0029500D02*
X0044807Y0029500D01*
X0044807Y0030299D02*
X0044807Y0030299D01*
X0044807Y0031097D02*
X0044807Y0031097D01*
X0044807Y0031896D02*
X0044807Y0031896D01*
X0045319Y0032694D02*
X0044195Y0032694D01*
X0043657Y0033493D02*
X0045357Y0033493D01*
X0044394Y0034291D02*
X0043657Y0034291D01*
X0033178Y0025508D02*
X0027937Y0025508D01*
X0027607Y0024709D02*
X0033307Y0024709D01*
X0033307Y0023911D02*
X0027096Y0023911D01*
X0026298Y0023112D02*
X0033307Y0023112D01*
X0023357Y0041478D02*
X0016557Y0041478D01*
X0044081Y0076612D02*
X0044373Y0076612D01*
X0094228Y0053833D02*
X0094352Y0053709D01*
X0096641Y0053709D01*
X0096776Y0053844D01*
X0096911Y0053709D01*
X0097929Y0053709D01*
X0096494Y0052274D01*
X0096494Y0040676D01*
X0096233Y0040568D01*
X0095259Y0039594D01*
X0094732Y0038322D01*
X0094732Y0037806D01*
X0094228Y0038309D01*
X0094228Y0053833D01*
X0094228Y0053456D02*
X0097675Y0053456D01*
X0096877Y0052657D02*
X0094228Y0052657D01*
X0094228Y0051859D02*
X0096494Y0051859D01*
X0096494Y0051060D02*
X0094228Y0051060D01*
X0094228Y0050262D02*
X0096494Y0050262D01*
X0096494Y0049463D02*
X0094228Y0049463D01*
X0094228Y0048665D02*
X0096494Y0048665D01*
X0096494Y0047866D02*
X0094228Y0047866D01*
X0094228Y0047068D02*
X0096494Y0047068D01*
X0096494Y0046269D02*
X0094228Y0046269D01*
X0094228Y0045471D02*
X0096494Y0045471D01*
X0096494Y0044672D02*
X0094228Y0044672D01*
X0094228Y0043874D02*
X0096494Y0043874D01*
X0096494Y0043075D02*
X0094228Y0043075D01*
X0094228Y0042277D02*
X0096494Y0042277D01*
X0096494Y0041478D02*
X0094228Y0041478D01*
X0094228Y0040679D02*
X0096494Y0040679D01*
X0095545Y0039881D02*
X0094228Y0039881D01*
X0094228Y0039082D02*
X0095047Y0039082D01*
X0094732Y0038284D02*
X0094253Y0038284D01*
X0099894Y0040679D02*
X0103906Y0040679D01*
X0104705Y0039881D02*
X0100842Y0039881D01*
X0099894Y0041478D02*
X0103108Y0041478D01*
X0099914Y0042277D02*
X0099894Y0042277D01*
X0104722Y0047068D02*
X0114606Y0047068D01*
X0111624Y0047866D02*
X0111189Y0047866D01*
X0111407Y0048084D02*
X0111407Y0048183D01*
X0111407Y0048084D01*
X0111407Y0048183D02*
X0111407Y0048183D01*
X0105924Y0047866D02*
X0105189Y0047866D01*
X0105407Y0048665D02*
X0105707Y0048665D01*
X0105707Y0049463D02*
X0105407Y0049463D01*
X0105407Y0050262D02*
X0105707Y0050262D01*
X0105707Y0051060D02*
X0105407Y0051060D01*
X0105407Y0051859D02*
X0105707Y0051859D01*
X0106381Y0052657D02*
X0104874Y0052657D01*
X0104874Y0053456D02*
X0111560Y0053456D01*
X0111560Y0054254D02*
X0109981Y0054254D01*
X0110081Y0055053D02*
X0111560Y0055053D01*
X0111560Y0055851D02*
X0110081Y0055851D01*
X0110081Y0056650D02*
X0111560Y0056650D01*
X0111560Y0057448D02*
X0110081Y0057448D01*
X0110081Y0058247D02*
X0111560Y0058247D01*
X0111621Y0059045D02*
X0110081Y0059045D01*
X0110081Y0059844D02*
X0111621Y0059844D01*
X0111621Y0060642D02*
X0110081Y0060642D01*
X0109811Y0061441D02*
X0111891Y0061441D01*
X0111560Y0052657D02*
X0110732Y0052657D01*
X0119424Y0044672D02*
X0133443Y0044672D01*
X0133183Y0043874D02*
X0119424Y0043874D01*
X0119424Y0043075D02*
X0132836Y0043075D01*
X0132037Y0042277D02*
X0119424Y0042277D01*
X0119424Y0041478D02*
X0131239Y0041478D01*
X0186105Y0032694D02*
X0188922Y0032694D01*
X0188922Y0031896D02*
X0186904Y0031896D01*
X0187527Y0031097D02*
X0188922Y0031097D01*
X0188922Y0030299D02*
X0187858Y0030299D01*
X0188188Y0029500D02*
X0188922Y0029500D01*
X0188922Y0028702D02*
X0188368Y0028702D01*
X0188368Y0027903D02*
X0188922Y0027903D01*
X0188922Y0027105D02*
X0188368Y0027105D01*
X0188268Y0026306D02*
X0188922Y0026306D01*
X0188922Y0025508D02*
X0187937Y0025508D01*
X0187607Y0024709D02*
X0188922Y0024709D01*
X0188922Y0023911D02*
X0187096Y0023911D01*
X0186298Y0023112D02*
X0188922Y0023112D01*
X0111363Y0077843D02*
X0108853Y0075333D01*
X0102215Y0075333D01*
X0102215Y0077843D01*
X0104319Y0077843D01*
X0104454Y0077978D01*
X0104588Y0077843D01*
X0106878Y0077843D01*
X0107013Y0077978D01*
X0107148Y0077843D01*
X0109437Y0077843D01*
X0109542Y0077949D01*
X0109648Y0077843D01*
X0111363Y0077843D01*
X0110930Y0077411D02*
X0102215Y0077411D01*
X0102215Y0076612D02*
X0110132Y0076612D01*
X0109333Y0075814D02*
X0102215Y0075814D01*
X0120258Y0081404D02*
X0130357Y0081404D01*
X0130357Y0082202D02*
X0120258Y0082202D01*
X0120258Y0083001D02*
X0130357Y0083001D01*
X0130357Y0083799D02*
X0120258Y0083799D01*
X0120258Y0084598D02*
X0130357Y0084598D01*
X0130357Y0085396D02*
X0120167Y0085396D01*
X0116641Y0087792D02*
X0130357Y0087792D01*
X0130357Y0088590D02*
X0119834Y0088590D01*
X0120230Y0089389D02*
X0130357Y0089389D01*
X0130357Y0090187D02*
X0120230Y0090187D01*
X0120230Y0090986D02*
X0130357Y0090986D01*
X0130357Y0091784D02*
X0120230Y0091784D01*
X0120230Y0092583D02*
X0130357Y0092583D01*
X0130357Y0093381D02*
X0119732Y0093381D01*
X0115027Y0093381D02*
X0112235Y0093381D01*
X0112940Y0094180D02*
X0130357Y0094180D01*
X0130357Y0094978D02*
X0113270Y0094978D01*
X0113307Y0095777D02*
X0130357Y0095777D01*
X0130357Y0096575D02*
X0113151Y0096575D01*
X0112746Y0097374D02*
X0130012Y0097374D01*
X0134102Y0097374D02*
X0166987Y0097374D01*
X0166987Y0098172D02*
X0166100Y0098172D01*
X0166899Y0098971D02*
X0166987Y0098971D01*
X0177906Y0099769D02*
X0179447Y0099769D01*
X0178698Y0094978D02*
X0178576Y0094978D01*
X0157382Y0083001D02*
X0157240Y0083001D01*
X0157382Y0082202D02*
X0156442Y0082202D01*
X0155758Y0081404D02*
X0157382Y0081404D01*
X0156000Y0086993D02*
X0155269Y0086993D01*
X0167883Y0079807D02*
X0169077Y0079807D01*
X0168279Y0079008D02*
X0168243Y0079008D01*
X0130357Y0086195D02*
X0115051Y0086195D01*
X0115842Y0086993D02*
X0130357Y0086993D01*
X0114530Y0090986D02*
X0114357Y0090986D01*
X0114530Y0091784D02*
X0114058Y0091784D01*
X0114530Y0092583D02*
X0113260Y0092583D01*
D25*
X0112057Y0090533D03*
X0099457Y0087433D03*
X0080339Y0092251D03*
X0103457Y0076433D03*
X0100157Y0064933D03*
X0118557Y0062033D03*
X0116060Y0053683D03*
X0095457Y0047433D03*
X0086357Y0046433D03*
X0081357Y0046433D03*
X0076357Y0046433D03*
X0065398Y0040480D03*
X0061364Y0039840D03*
X0057357Y0035533D03*
X0047657Y0033433D03*
X0033257Y0032933D03*
X0033707Y0037233D03*
X0017457Y0034433D03*
X0030457Y0025433D03*
X0052057Y0024633D03*
X0062457Y0024533D03*
X0073057Y0024333D03*
X0083357Y0034033D03*
X0092657Y0030933D03*
X0102457Y0028433D03*
X0102457Y0023433D03*
X0112157Y0029333D03*
X0124457Y0033433D03*
X0138357Y0040233D03*
X0135483Y0043460D03*
X0145457Y0047433D03*
X0173857Y0040533D03*
X0186457Y0040433D03*
X0186457Y0044433D03*
X0186457Y0048433D03*
X0177657Y0057733D03*
X0177057Y0061333D03*
X0170357Y0077833D03*
X0174457Y0091733D03*
X0187757Y0101233D03*
X0072857Y0074533D03*
X0058457Y0063433D03*
X0052457Y0060433D03*
X0038857Y0066133D03*
X0038457Y0070433D03*
X0031857Y0075033D03*
X0025957Y0075033D03*
X0024457Y0070433D03*
X0024457Y0066433D03*
X0019057Y0054633D03*
X0036457Y0048433D03*
X0047657Y0048933D03*
X0044257Y0092633D03*
X0045057Y0097733D03*
X0029257Y0101433D03*
X0140657Y0025933D03*
D26*
X0132957Y0034469D02*
X0132772Y0034653D01*
X0118857Y0046716D02*
X0117574Y0045433D01*
X0117574Y0046716D02*
X0118857Y0046716D01*
X0128239Y0046716D01*
X0132057Y0050533D01*
X0132057Y0097733D01*
X0130657Y0099133D01*
X0133457Y0099133D01*
X0132057Y0097733D01*
X0133457Y0099133D02*
X0164657Y0099133D01*
X0166357Y0100833D01*
X0172043Y0100833D01*
X0175876Y0096999D01*
X0130657Y0099133D02*
X0109157Y0099133D01*
X0105657Y0095633D01*
X0101599Y0093691D02*
X0097906Y0093691D01*
X0097906Y0091183D01*
X0075557Y0068833D01*
X0068857Y0068833D01*
X0062857Y0068833D02*
X0062857Y0063133D01*
X0065157Y0059433D02*
X0057857Y0059433D01*
X0050657Y0066633D01*
X0047157Y0066633D01*
X0038757Y0075033D01*
X0031857Y0075033D01*
X0025957Y0075033D02*
X0023357Y0075033D01*
X0018857Y0079533D01*
X0018857Y0082283D01*
X0018857Y0091833D01*
X0017957Y0092733D01*
X0023557Y0092733D02*
X0017957Y0098333D01*
X0017957Y0098733D01*
X0023557Y0098733D02*
X0029257Y0093033D01*
X0029257Y0092733D01*
X0023857Y0092433D02*
X0023857Y0082283D01*
X0028857Y0082283D02*
X0028857Y0067233D01*
X0029957Y0066133D01*
X0028857Y0065033D01*
X0028857Y0059933D01*
X0028857Y0048033D01*
X0031557Y0045333D01*
X0037357Y0039533D01*
X0037357Y0039333D02*
X0041957Y0034733D01*
X0041957Y0030133D01*
X0047657Y0030233D02*
X0047657Y0033433D01*
X0045157Y0035933D02*
X0043057Y0038033D01*
X0043057Y0039333D01*
X0048657Y0039733D02*
X0043057Y0045333D01*
X0043857Y0046133D01*
X0043857Y0059933D01*
X0048857Y0059933D02*
X0048857Y0057033D01*
X0047657Y0055833D01*
X0047657Y0048933D01*
X0047657Y0046333D01*
X0048657Y0045333D01*
X0039857Y0051633D02*
X0038857Y0052633D01*
X0038857Y0059933D01*
X0038857Y0066133D01*
X0029957Y0066133D01*
X0028857Y0067233D02*
X0028857Y0065033D01*
X0023857Y0059933D02*
X0023857Y0051333D01*
X0025057Y0050133D01*
X0025057Y0044333D01*
X0025057Y0038533D01*
X0025757Y0035333D02*
X0022257Y0035333D01*
X0019057Y0038533D01*
X0025757Y0035333D02*
X0036157Y0024933D01*
X0036157Y0024133D01*
X0041957Y0024133D01*
X0047557Y0024133D01*
X0047657Y0024233D01*
X0036157Y0030133D02*
X0033357Y0032933D01*
X0033257Y0032933D01*
X0045157Y0035933D02*
X0051557Y0035933D01*
X0061657Y0046033D01*
X0061657Y0052033D02*
X0053584Y0052033D01*
X0053527Y0052091D01*
X0065157Y0059433D02*
X0068857Y0063133D01*
X0062857Y0068833D02*
X0049457Y0068833D01*
X0038857Y0079433D01*
X0038857Y0082283D01*
X0043857Y0082283D02*
X0043857Y0079533D01*
X0048757Y0074633D01*
X0062857Y0074633D01*
X0068857Y0074633D02*
X0072757Y0074633D01*
X0072857Y0074533D01*
X0068857Y0080333D02*
X0068857Y0086033D01*
X0077657Y0086033D01*
X0089054Y0097431D01*
X0089906Y0097431D01*
X0101599Y0093691D02*
X0105657Y0089633D01*
X0105733Y0089557D01*
X0105733Y0081896D01*
X0113351Y0081896D02*
X0113351Y0086906D01*
X0117380Y0090935D01*
X0115910Y0081896D02*
X0115910Y0076787D01*
X0110657Y0071533D01*
X0102244Y0071533D01*
X0092528Y0061818D01*
X0092528Y0037605D01*
X0097574Y0032559D01*
X0097574Y0025933D01*
X0092657Y0030933D02*
X0090157Y0033433D01*
X0090157Y0062133D01*
X0101657Y0073633D01*
X0109557Y0073633D01*
X0113351Y0077428D01*
X0113351Y0081896D01*
X0118557Y0062033D02*
X0118528Y0062005D01*
X0118528Y0057762D01*
X0115969Y0057762D02*
X0115969Y0053774D01*
X0116060Y0053683D01*
X0103174Y0050650D02*
X0102557Y0050033D01*
X0102557Y0044433D01*
X0109357Y0037633D01*
X0110320Y0037633D01*
X0098194Y0037633D02*
X0098194Y0051570D01*
X0100615Y0053991D01*
X0100615Y0057762D01*
X0103174Y0057762D02*
X0103174Y0050650D01*
X0062857Y0080333D02*
X0060907Y0082283D01*
X0048857Y0082283D01*
X0043857Y0082283D02*
X0043857Y0087733D01*
X0047057Y0090933D01*
X0047057Y0093433D01*
X0051057Y0097433D01*
X0062757Y0097433D01*
X0062757Y0091733D01*
X0034857Y0092733D02*
X0028857Y0086733D01*
X0028857Y0082283D01*
X0023857Y0092433D02*
X0023557Y0092733D01*
X0029257Y0098733D02*
X0029257Y0101433D01*
X0019057Y0059733D02*
X0019057Y0054633D01*
X0019057Y0050133D01*
X0019057Y0044333D01*
X0160869Y0043460D02*
X0167983Y0043460D01*
X0168357Y0043833D01*
X0168030Y0037760D02*
X0160869Y0037760D01*
X0168030Y0037760D02*
X0168357Y0037433D01*
X0177657Y0057733D02*
X0184783Y0057733D01*
X0184860Y0057809D01*
X0178533Y0062809D02*
X0177057Y0061333D01*
X0178533Y0062809D02*
X0184860Y0062809D01*
D27*
X0154869Y0043460D02*
X0135483Y0043460D01*
X0132772Y0040749D01*
X0132772Y0038233D01*
X0132772Y0034653D01*
X0132772Y0034218D01*
X0136709Y0034218D02*
X0136709Y0038586D01*
X0138357Y0040233D01*
X0152396Y0040233D01*
X0154869Y0037760D01*
X0100615Y0075891D02*
X0065301Y0040577D01*
X0065301Y0040383D01*
X0065301Y0036333D01*
X0065301Y0034218D01*
X0061364Y0034218D02*
X0061364Y0039840D01*
X0098056Y0076532D01*
X0098056Y0081896D01*
X0100615Y0081896D02*
X0100615Y0075891D01*
X0108292Y0081896D02*
X0108292Y0085969D01*
X0109257Y0086933D01*
X0109257Y0094433D01*
X0110457Y0095633D01*
X0112057Y0090533D02*
X0111457Y0089933D01*
X0111457Y0085133D01*
X0110792Y0084469D01*
X0110792Y0081896D01*
X0080339Y0092251D02*
X0080339Y0095215D01*
X0081657Y0096533D01*
X0075657Y0096533D02*
X0075657Y0097833D01*
X0072657Y0100833D01*
X0066157Y0100833D01*
X0062757Y0097433D01*
X0019057Y0059733D02*
X0018857Y0059933D01*
X0037357Y0039533D02*
X0037357Y0039333D01*
X0048657Y0039333D02*
X0048657Y0039733D01*
X0065301Y0040383D02*
X0065398Y0040480D01*
D28*
X0069238Y0034218D02*
X0069238Y0030833D01*
X0070638Y0029433D01*
X0078757Y0029433D01*
X0083357Y0034033D01*
X0086068Y0036744D01*
X0086068Y0037633D01*
X0108557Y0050033D02*
X0114257Y0050033D01*
X0117574Y0046716D01*
X0117574Y0045433D01*
X0117574Y0025933D01*
X0140646Y0025943D02*
X0140657Y0025933D01*
X0140646Y0025943D02*
X0140646Y0034218D01*
X0168357Y0040633D02*
X0173757Y0040633D01*
X0173857Y0040533D01*
X0153349Y0060419D02*
X0155739Y0062809D01*
X0162813Y0062809D01*
X0162813Y0067809D02*
X0154965Y0067809D01*
X0153301Y0066146D01*
X0153301Y0072146D02*
X0153965Y0072809D01*
X0162813Y0072809D01*
X0162749Y0077746D02*
X0153301Y0077746D01*
X0162749Y0077746D02*
X0162813Y0077809D01*
X0162813Y0082809D02*
X0167033Y0082809D01*
X0169837Y0085613D01*
X0169837Y0097039D01*
X0175837Y0097039D02*
X0175876Y0096999D01*
X0181476Y0096999D01*
X0184860Y0093616D01*
X0184860Y0087809D01*
X0162813Y0087809D02*
X0159433Y0087809D01*
X0155369Y0083746D01*
X0153301Y0083746D01*
X0113410Y0057762D02*
X0113410Y0050880D01*
X0114257Y0050033D01*
X0044257Y0092633D02*
X0044157Y0092733D01*
X0040457Y0092733D01*
X0033857Y0086133D01*
X0033857Y0082283D01*
X0031557Y0039333D02*
X0033657Y0037233D01*
X0033707Y0037233D01*
D29*
X0153920Y0052091D02*
X0159639Y0057809D01*
X0162813Y0057809D01*
X0170380Y0077809D02*
X0170357Y0077833D01*
X0170380Y0077809D02*
X0184860Y0077809D01*
M02*
