G75*
%MOIN*%
%OFA0B0*%
%FSLAX25Y25*%
%IPPOS*%
%LPD*%
%AMOC8*
5,1,8,0,0,1.08239X$1,22.5*
%
%ADD10C,0.00000*%
%ADD11R,0.06500X0.06500*%
%ADD12C,0.06500*%
%ADD13C,0.07087*%
%ADD14C,0.00800*%
%ADD15C,0.02400*%
%ADD16C,0.01200*%
%ADD17C,0.01000*%
%ADD18C,0.02000*%
%ADD19C,0.01500*%
D10*
X0014157Y0019933D02*
X0014157Y0104733D01*
X0191322Y0104733D01*
X0191322Y0019933D01*
X0014157Y0019933D01*
X0018094Y0027807D02*
X0018096Y0027932D01*
X0018102Y0028057D01*
X0018112Y0028181D01*
X0018126Y0028305D01*
X0018143Y0028429D01*
X0018165Y0028552D01*
X0018191Y0028674D01*
X0018220Y0028796D01*
X0018253Y0028916D01*
X0018291Y0029035D01*
X0018331Y0029154D01*
X0018376Y0029270D01*
X0018424Y0029385D01*
X0018476Y0029499D01*
X0018532Y0029611D01*
X0018591Y0029721D01*
X0018653Y0029829D01*
X0018719Y0029936D01*
X0018788Y0030040D01*
X0018861Y0030141D01*
X0018936Y0030241D01*
X0019015Y0030338D01*
X0019097Y0030432D01*
X0019182Y0030524D01*
X0019269Y0030613D01*
X0019360Y0030699D01*
X0019453Y0030782D01*
X0019549Y0030863D01*
X0019647Y0030940D01*
X0019747Y0031014D01*
X0019850Y0031085D01*
X0019955Y0031152D01*
X0020063Y0031217D01*
X0020172Y0031277D01*
X0020283Y0031335D01*
X0020396Y0031388D01*
X0020510Y0031438D01*
X0020626Y0031485D01*
X0020743Y0031527D01*
X0020862Y0031566D01*
X0020982Y0031602D01*
X0021103Y0031633D01*
X0021225Y0031661D01*
X0021347Y0031684D01*
X0021471Y0031704D01*
X0021595Y0031720D01*
X0021719Y0031732D01*
X0021844Y0031740D01*
X0021969Y0031744D01*
X0022093Y0031744D01*
X0022218Y0031740D01*
X0022343Y0031732D01*
X0022467Y0031720D01*
X0022591Y0031704D01*
X0022715Y0031684D01*
X0022837Y0031661D01*
X0022959Y0031633D01*
X0023080Y0031602D01*
X0023200Y0031566D01*
X0023319Y0031527D01*
X0023436Y0031485D01*
X0023552Y0031438D01*
X0023666Y0031388D01*
X0023779Y0031335D01*
X0023890Y0031277D01*
X0024000Y0031217D01*
X0024107Y0031152D01*
X0024212Y0031085D01*
X0024315Y0031014D01*
X0024415Y0030940D01*
X0024513Y0030863D01*
X0024609Y0030782D01*
X0024702Y0030699D01*
X0024793Y0030613D01*
X0024880Y0030524D01*
X0024965Y0030432D01*
X0025047Y0030338D01*
X0025126Y0030241D01*
X0025201Y0030141D01*
X0025274Y0030040D01*
X0025343Y0029936D01*
X0025409Y0029829D01*
X0025471Y0029721D01*
X0025530Y0029611D01*
X0025586Y0029499D01*
X0025638Y0029385D01*
X0025686Y0029270D01*
X0025731Y0029154D01*
X0025771Y0029035D01*
X0025809Y0028916D01*
X0025842Y0028796D01*
X0025871Y0028674D01*
X0025897Y0028552D01*
X0025919Y0028429D01*
X0025936Y0028305D01*
X0025950Y0028181D01*
X0025960Y0028057D01*
X0025966Y0027932D01*
X0025968Y0027807D01*
X0025966Y0027682D01*
X0025960Y0027557D01*
X0025950Y0027433D01*
X0025936Y0027309D01*
X0025919Y0027185D01*
X0025897Y0027062D01*
X0025871Y0026940D01*
X0025842Y0026818D01*
X0025809Y0026698D01*
X0025771Y0026579D01*
X0025731Y0026460D01*
X0025686Y0026344D01*
X0025638Y0026229D01*
X0025586Y0026115D01*
X0025530Y0026003D01*
X0025471Y0025893D01*
X0025409Y0025785D01*
X0025343Y0025678D01*
X0025274Y0025574D01*
X0025201Y0025473D01*
X0025126Y0025373D01*
X0025047Y0025276D01*
X0024965Y0025182D01*
X0024880Y0025090D01*
X0024793Y0025001D01*
X0024702Y0024915D01*
X0024609Y0024832D01*
X0024513Y0024751D01*
X0024415Y0024674D01*
X0024315Y0024600D01*
X0024212Y0024529D01*
X0024107Y0024462D01*
X0023999Y0024397D01*
X0023890Y0024337D01*
X0023779Y0024279D01*
X0023666Y0024226D01*
X0023552Y0024176D01*
X0023436Y0024129D01*
X0023319Y0024087D01*
X0023200Y0024048D01*
X0023080Y0024012D01*
X0022959Y0023981D01*
X0022837Y0023953D01*
X0022715Y0023930D01*
X0022591Y0023910D01*
X0022467Y0023894D01*
X0022343Y0023882D01*
X0022218Y0023874D01*
X0022093Y0023870D01*
X0021969Y0023870D01*
X0021844Y0023874D01*
X0021719Y0023882D01*
X0021595Y0023894D01*
X0021471Y0023910D01*
X0021347Y0023930D01*
X0021225Y0023953D01*
X0021103Y0023981D01*
X0020982Y0024012D01*
X0020862Y0024048D01*
X0020743Y0024087D01*
X0020626Y0024129D01*
X0020510Y0024176D01*
X0020396Y0024226D01*
X0020283Y0024279D01*
X0020172Y0024337D01*
X0020062Y0024397D01*
X0019955Y0024462D01*
X0019850Y0024529D01*
X0019747Y0024600D01*
X0019647Y0024674D01*
X0019549Y0024751D01*
X0019453Y0024832D01*
X0019360Y0024915D01*
X0019269Y0025001D01*
X0019182Y0025090D01*
X0019097Y0025182D01*
X0019015Y0025276D01*
X0018936Y0025373D01*
X0018861Y0025473D01*
X0018788Y0025574D01*
X0018719Y0025678D01*
X0018653Y0025785D01*
X0018591Y0025893D01*
X0018532Y0026003D01*
X0018476Y0026115D01*
X0018424Y0026229D01*
X0018376Y0026344D01*
X0018331Y0026460D01*
X0018291Y0026579D01*
X0018253Y0026698D01*
X0018220Y0026818D01*
X0018191Y0026940D01*
X0018165Y0027062D01*
X0018143Y0027185D01*
X0018126Y0027309D01*
X0018112Y0027433D01*
X0018102Y0027557D01*
X0018096Y0027682D01*
X0018094Y0027807D01*
X0178094Y0027807D02*
X0178096Y0027932D01*
X0178102Y0028057D01*
X0178112Y0028181D01*
X0178126Y0028305D01*
X0178143Y0028429D01*
X0178165Y0028552D01*
X0178191Y0028674D01*
X0178220Y0028796D01*
X0178253Y0028916D01*
X0178291Y0029035D01*
X0178331Y0029154D01*
X0178376Y0029270D01*
X0178424Y0029385D01*
X0178476Y0029499D01*
X0178532Y0029611D01*
X0178591Y0029721D01*
X0178653Y0029829D01*
X0178719Y0029936D01*
X0178788Y0030040D01*
X0178861Y0030141D01*
X0178936Y0030241D01*
X0179015Y0030338D01*
X0179097Y0030432D01*
X0179182Y0030524D01*
X0179269Y0030613D01*
X0179360Y0030699D01*
X0179453Y0030782D01*
X0179549Y0030863D01*
X0179647Y0030940D01*
X0179747Y0031014D01*
X0179850Y0031085D01*
X0179955Y0031152D01*
X0180063Y0031217D01*
X0180172Y0031277D01*
X0180283Y0031335D01*
X0180396Y0031388D01*
X0180510Y0031438D01*
X0180626Y0031485D01*
X0180743Y0031527D01*
X0180862Y0031566D01*
X0180982Y0031602D01*
X0181103Y0031633D01*
X0181225Y0031661D01*
X0181347Y0031684D01*
X0181471Y0031704D01*
X0181595Y0031720D01*
X0181719Y0031732D01*
X0181844Y0031740D01*
X0181969Y0031744D01*
X0182093Y0031744D01*
X0182218Y0031740D01*
X0182343Y0031732D01*
X0182467Y0031720D01*
X0182591Y0031704D01*
X0182715Y0031684D01*
X0182837Y0031661D01*
X0182959Y0031633D01*
X0183080Y0031602D01*
X0183200Y0031566D01*
X0183319Y0031527D01*
X0183436Y0031485D01*
X0183552Y0031438D01*
X0183666Y0031388D01*
X0183779Y0031335D01*
X0183890Y0031277D01*
X0184000Y0031217D01*
X0184107Y0031152D01*
X0184212Y0031085D01*
X0184315Y0031014D01*
X0184415Y0030940D01*
X0184513Y0030863D01*
X0184609Y0030782D01*
X0184702Y0030699D01*
X0184793Y0030613D01*
X0184880Y0030524D01*
X0184965Y0030432D01*
X0185047Y0030338D01*
X0185126Y0030241D01*
X0185201Y0030141D01*
X0185274Y0030040D01*
X0185343Y0029936D01*
X0185409Y0029829D01*
X0185471Y0029721D01*
X0185530Y0029611D01*
X0185586Y0029499D01*
X0185638Y0029385D01*
X0185686Y0029270D01*
X0185731Y0029154D01*
X0185771Y0029035D01*
X0185809Y0028916D01*
X0185842Y0028796D01*
X0185871Y0028674D01*
X0185897Y0028552D01*
X0185919Y0028429D01*
X0185936Y0028305D01*
X0185950Y0028181D01*
X0185960Y0028057D01*
X0185966Y0027932D01*
X0185968Y0027807D01*
X0185966Y0027682D01*
X0185960Y0027557D01*
X0185950Y0027433D01*
X0185936Y0027309D01*
X0185919Y0027185D01*
X0185897Y0027062D01*
X0185871Y0026940D01*
X0185842Y0026818D01*
X0185809Y0026698D01*
X0185771Y0026579D01*
X0185731Y0026460D01*
X0185686Y0026344D01*
X0185638Y0026229D01*
X0185586Y0026115D01*
X0185530Y0026003D01*
X0185471Y0025893D01*
X0185409Y0025785D01*
X0185343Y0025678D01*
X0185274Y0025574D01*
X0185201Y0025473D01*
X0185126Y0025373D01*
X0185047Y0025276D01*
X0184965Y0025182D01*
X0184880Y0025090D01*
X0184793Y0025001D01*
X0184702Y0024915D01*
X0184609Y0024832D01*
X0184513Y0024751D01*
X0184415Y0024674D01*
X0184315Y0024600D01*
X0184212Y0024529D01*
X0184107Y0024462D01*
X0183999Y0024397D01*
X0183890Y0024337D01*
X0183779Y0024279D01*
X0183666Y0024226D01*
X0183552Y0024176D01*
X0183436Y0024129D01*
X0183319Y0024087D01*
X0183200Y0024048D01*
X0183080Y0024012D01*
X0182959Y0023981D01*
X0182837Y0023953D01*
X0182715Y0023930D01*
X0182591Y0023910D01*
X0182467Y0023894D01*
X0182343Y0023882D01*
X0182218Y0023874D01*
X0182093Y0023870D01*
X0181969Y0023870D01*
X0181844Y0023874D01*
X0181719Y0023882D01*
X0181595Y0023894D01*
X0181471Y0023910D01*
X0181347Y0023930D01*
X0181225Y0023953D01*
X0181103Y0023981D01*
X0180982Y0024012D01*
X0180862Y0024048D01*
X0180743Y0024087D01*
X0180626Y0024129D01*
X0180510Y0024176D01*
X0180396Y0024226D01*
X0180283Y0024279D01*
X0180172Y0024337D01*
X0180062Y0024397D01*
X0179955Y0024462D01*
X0179850Y0024529D01*
X0179747Y0024600D01*
X0179647Y0024674D01*
X0179549Y0024751D01*
X0179453Y0024832D01*
X0179360Y0024915D01*
X0179269Y0025001D01*
X0179182Y0025090D01*
X0179097Y0025182D01*
X0179015Y0025276D01*
X0178936Y0025373D01*
X0178861Y0025473D01*
X0178788Y0025574D01*
X0178719Y0025678D01*
X0178653Y0025785D01*
X0178591Y0025893D01*
X0178532Y0026003D01*
X0178476Y0026115D01*
X0178424Y0026229D01*
X0178376Y0026344D01*
X0178331Y0026460D01*
X0178291Y0026579D01*
X0178253Y0026698D01*
X0178220Y0026818D01*
X0178191Y0026940D01*
X0178165Y0027062D01*
X0178143Y0027185D01*
X0178126Y0027309D01*
X0178112Y0027433D01*
X0178102Y0027557D01*
X0178096Y0027682D01*
X0178094Y0027807D01*
D11*
X0117574Y0025933D03*
D12*
X0107574Y0025933D03*
X0097574Y0025933D03*
X0087574Y0025933D03*
D13*
X0053527Y0052091D03*
X0053527Y0091461D03*
X0153920Y0091461D03*
X0153920Y0052091D03*
D14*
X0149652Y0050262D02*
X0057795Y0050262D01*
X0058126Y0051060D02*
X0149321Y0051060D01*
X0149277Y0051167D02*
X0149984Y0049460D01*
X0151290Y0048154D01*
X0152997Y0047447D01*
X0154844Y0047447D01*
X0156551Y0048154D01*
X0157857Y0049460D01*
X0158564Y0051167D01*
X0158564Y0053014D01*
X0157857Y0054721D01*
X0156551Y0056027D01*
X0156536Y0056033D01*
X0176104Y0056033D01*
X0176704Y0055433D01*
X0178609Y0055433D01*
X0179957Y0056780D01*
X0179957Y0058686D01*
X0178809Y0059833D01*
X0179357Y0060380D01*
X0179357Y0062286D01*
X0178009Y0063633D01*
X0176104Y0063633D01*
X0174757Y0062286D01*
X0174757Y0061437D01*
X0174653Y0061333D01*
X0121661Y0061333D01*
X0120857Y0062137D01*
X0120857Y0062986D01*
X0119509Y0064333D01*
X0117604Y0064333D01*
X0116257Y0062986D01*
X0116257Y0061080D01*
X0117604Y0059733D01*
X0118453Y0059733D01*
X0119079Y0059106D01*
X0118410Y0058437D01*
X0115956Y0055983D01*
X0115108Y0055983D01*
X0113760Y0054636D01*
X0113760Y0052730D01*
X0115108Y0051383D01*
X0117013Y0051383D01*
X0118360Y0052730D01*
X0118360Y0053579D01*
X0120814Y0056033D01*
X0151305Y0056033D01*
X0151290Y0056027D01*
X0149984Y0054721D01*
X0149277Y0053014D01*
X0149277Y0051167D01*
X0149277Y0051859D02*
X0117488Y0051859D01*
X0118287Y0052657D02*
X0149277Y0052657D01*
X0149460Y0053456D02*
X0118360Y0053456D01*
X0119036Y0054254D02*
X0149791Y0054254D01*
X0150316Y0055053D02*
X0119834Y0055053D01*
X0120633Y0055851D02*
X0151115Y0055851D01*
X0156726Y0055851D02*
X0176286Y0055851D01*
X0179028Y0055851D02*
X0188922Y0055851D01*
X0188922Y0055053D02*
X0157525Y0055053D01*
X0158050Y0054254D02*
X0188922Y0054254D01*
X0188922Y0053456D02*
X0158381Y0053456D01*
X0158564Y0052657D02*
X0188922Y0052657D01*
X0188922Y0051859D02*
X0158564Y0051859D01*
X0158520Y0051060D02*
X0188922Y0051060D01*
X0188922Y0050262D02*
X0158189Y0050262D01*
X0157858Y0049463D02*
X0188922Y0049463D01*
X0188922Y0048665D02*
X0157061Y0048665D01*
X0155855Y0047866D02*
X0188922Y0047866D01*
X0188922Y0047068D02*
X0049357Y0047068D01*
X0049357Y0047380D02*
X0049957Y0047980D01*
X0049957Y0049094D01*
X0050897Y0048154D01*
X0052603Y0047447D01*
X0054450Y0047447D01*
X0056157Y0048154D01*
X0057463Y0049460D01*
X0058170Y0051167D01*
X0058170Y0053014D01*
X0057463Y0054721D01*
X0056157Y0056027D01*
X0054450Y0056734D01*
X0052603Y0056734D01*
X0050897Y0056027D01*
X0049590Y0054721D01*
X0048883Y0053014D01*
X0048883Y0051167D01*
X0049031Y0050812D01*
X0048609Y0051233D01*
X0046704Y0051233D01*
X0045357Y0049886D01*
X0045357Y0047980D01*
X0045957Y0047380D01*
X0045957Y0034986D01*
X0045357Y0034386D01*
X0045357Y0032480D01*
X0046554Y0031283D01*
X0042273Y0031283D01*
X0036007Y0037549D01*
X0036007Y0038186D01*
X0035557Y0038636D01*
X0035557Y0071017D01*
X0037207Y0072667D01*
X0037207Y0082967D01*
X0044573Y0090333D01*
X0045209Y0090333D01*
X0046557Y0091680D01*
X0046557Y0093586D01*
X0045209Y0094933D01*
X0043304Y0094933D01*
X0041957Y0093586D01*
X0041957Y0092949D01*
X0034590Y0085583D01*
X0033507Y0084499D01*
X0033507Y0076636D01*
X0032809Y0077333D01*
X0030904Y0077333D01*
X0030304Y0076733D01*
X0027509Y0076733D01*
X0026909Y0077333D01*
X0025004Y0077333D01*
X0023657Y0075986D01*
X0023657Y0074080D01*
X0025004Y0072733D01*
X0026909Y0072733D01*
X0027509Y0073333D01*
X0030304Y0073333D01*
X0030904Y0072733D01*
X0032040Y0072733D01*
X0031857Y0072549D01*
X0031857Y0038636D01*
X0031407Y0038186D01*
X0031407Y0037187D01*
X0020757Y0047837D01*
X0020757Y0053080D01*
X0021357Y0053680D01*
X0021357Y0055586D01*
X0020757Y0056186D01*
X0020757Y0090529D01*
X0029361Y0099133D01*
X0030209Y0099133D01*
X0031557Y0100480D01*
X0031557Y0102333D01*
X0188922Y0102333D01*
X0188922Y0022333D01*
X0185375Y0022333D01*
X0185620Y0022435D01*
X0187403Y0024217D01*
X0188368Y0026547D01*
X0188368Y0029068D01*
X0187403Y0031397D01*
X0185620Y0033179D01*
X0183291Y0034144D01*
X0180770Y0034144D01*
X0178441Y0033179D01*
X0176658Y0031397D01*
X0175694Y0029068D01*
X0175694Y0026547D01*
X0176658Y0024217D01*
X0178441Y0022435D01*
X0178687Y0022333D01*
X0121924Y0022333D01*
X0121924Y0024083D01*
X0139254Y0024083D01*
X0139704Y0023633D01*
X0141609Y0023633D01*
X0142059Y0024083D01*
X0145323Y0024083D01*
X0146407Y0025167D01*
X0159923Y0038683D01*
X0172454Y0038683D01*
X0172904Y0038233D01*
X0174809Y0038233D01*
X0176157Y0039580D01*
X0176157Y0041486D01*
X0174809Y0042833D01*
X0172904Y0042833D01*
X0172454Y0042383D01*
X0158390Y0042383D01*
X0143790Y0027783D01*
X0142059Y0027783D01*
X0141609Y0028233D01*
X0139704Y0028233D01*
X0139254Y0027783D01*
X0121924Y0027783D01*
X0121924Y0029639D01*
X0121280Y0030283D01*
X0118757Y0030283D01*
X0118757Y0032549D01*
X0117673Y0033633D01*
X0116507Y0034799D01*
X0115423Y0035883D01*
X0084759Y0035883D01*
X0084309Y0036333D01*
X0082404Y0036333D01*
X0081057Y0034986D01*
X0081057Y0034349D01*
X0077990Y0031283D01*
X0048759Y0031283D01*
X0049957Y0032480D01*
X0049957Y0034386D01*
X0049357Y0034986D01*
X0049357Y0047380D01*
X0049842Y0047866D02*
X0051592Y0047866D01*
X0050386Y0048665D02*
X0049957Y0048665D01*
X0049357Y0046269D02*
X0188922Y0046269D01*
X0188922Y0045471D02*
X0136725Y0045471D01*
X0136436Y0045760D02*
X0134531Y0045760D01*
X0133831Y0045060D01*
X0064321Y0045060D01*
X0061401Y0042140D01*
X0060411Y0042140D01*
X0059064Y0040793D01*
X0059064Y0038887D01*
X0060411Y0037540D01*
X0062316Y0037540D01*
X0063664Y0038887D01*
X0063664Y0038962D01*
X0064445Y0038180D01*
X0066351Y0038180D01*
X0066804Y0038633D01*
X0136704Y0038633D01*
X0137404Y0037933D01*
X0139309Y0037933D01*
X0140657Y0039280D01*
X0140657Y0041186D01*
X0139309Y0042533D01*
X0137783Y0042533D01*
X0137783Y0044413D01*
X0136436Y0045760D01*
X0137524Y0044672D02*
X0188922Y0044672D01*
X0188922Y0043874D02*
X0137783Y0043874D01*
X0137783Y0043075D02*
X0188922Y0043075D01*
X0188922Y0042277D02*
X0175366Y0042277D01*
X0176157Y0041478D02*
X0188922Y0041478D01*
X0188922Y0040679D02*
X0176157Y0040679D01*
X0176157Y0039881D02*
X0188922Y0039881D01*
X0188922Y0039082D02*
X0175659Y0039082D01*
X0174860Y0038284D02*
X0188922Y0038284D01*
X0188922Y0037485D02*
X0158725Y0037485D01*
X0157927Y0036687D02*
X0188922Y0036687D01*
X0188922Y0035888D02*
X0157128Y0035888D01*
X0156330Y0035090D02*
X0188922Y0035090D01*
X0188922Y0034291D02*
X0155531Y0034291D01*
X0154733Y0033493D02*
X0179198Y0033493D01*
X0177956Y0032694D02*
X0153934Y0032694D01*
X0153136Y0031896D02*
X0177158Y0031896D01*
X0176534Y0031097D02*
X0152337Y0031097D01*
X0151539Y0030299D02*
X0176204Y0030299D01*
X0175873Y0029500D02*
X0150740Y0029500D01*
X0149942Y0028702D02*
X0175694Y0028702D01*
X0175694Y0027903D02*
X0149143Y0027903D01*
X0148345Y0027105D02*
X0175694Y0027105D01*
X0175793Y0026306D02*
X0147546Y0026306D01*
X0146748Y0025508D02*
X0176124Y0025508D01*
X0176455Y0024709D02*
X0145949Y0024709D01*
X0141887Y0023911D02*
X0176965Y0023911D01*
X0177764Y0023112D02*
X0121924Y0023112D01*
X0121924Y0023911D02*
X0139426Y0023911D01*
X0139374Y0027903D02*
X0121924Y0027903D01*
X0121924Y0028702D02*
X0144709Y0028702D01*
X0145508Y0029500D02*
X0121924Y0029500D01*
X0118757Y0030299D02*
X0146306Y0030299D01*
X0147105Y0031097D02*
X0118757Y0031097D01*
X0118757Y0031896D02*
X0147903Y0031896D01*
X0148702Y0032694D02*
X0118612Y0032694D01*
X0117813Y0033493D02*
X0149500Y0033493D01*
X0150299Y0034291D02*
X0117015Y0034291D01*
X0116216Y0035090D02*
X0151097Y0035090D01*
X0151896Y0035888D02*
X0084754Y0035888D01*
X0081959Y0035888D02*
X0049357Y0035888D01*
X0049357Y0035090D02*
X0081161Y0035090D01*
X0080999Y0034291D02*
X0049957Y0034291D01*
X0049957Y0033493D02*
X0080200Y0033493D01*
X0079402Y0032694D02*
X0049957Y0032694D01*
X0049372Y0031896D02*
X0078603Y0031896D01*
X0081440Y0029500D02*
X0090837Y0029500D01*
X0090357Y0029980D02*
X0091704Y0028633D01*
X0093609Y0028633D01*
X0094209Y0029233D01*
X0094722Y0029233D01*
X0093886Y0028397D01*
X0093224Y0026798D01*
X0093224Y0025068D01*
X0093886Y0023469D01*
X0095022Y0022333D01*
X0025375Y0022333D01*
X0025620Y0022435D01*
X0027403Y0024217D01*
X0028368Y0026547D01*
X0028368Y0029068D01*
X0027403Y0031397D01*
X0025620Y0033179D01*
X0023291Y0034144D01*
X0020770Y0034144D01*
X0018441Y0033179D01*
X0016658Y0031397D01*
X0016557Y0031151D01*
X0016557Y0102333D01*
X0026957Y0102333D01*
X0026957Y0101537D01*
X0018353Y0092933D01*
X0017357Y0091937D01*
X0017357Y0056186D01*
X0016757Y0055586D01*
X0016757Y0053680D01*
X0017357Y0053080D01*
X0017357Y0046429D01*
X0018353Y0045433D01*
X0030957Y0032829D01*
X0030957Y0031980D01*
X0032304Y0030633D01*
X0034209Y0030633D01*
X0035557Y0031980D01*
X0035557Y0032767D01*
X0039657Y0028667D01*
X0040740Y0027583D01*
X0079523Y0027583D01*
X0080607Y0028667D01*
X0083673Y0031733D01*
X0084309Y0031733D01*
X0084759Y0032183D01*
X0090654Y0032183D01*
X0090357Y0031886D01*
X0090357Y0029980D01*
X0090357Y0030299D02*
X0082239Y0030299D01*
X0083037Y0031097D02*
X0090357Y0031097D01*
X0090367Y0031896D02*
X0084472Y0031896D01*
X0080642Y0028702D02*
X0091635Y0028702D01*
X0093678Y0028702D02*
X0094191Y0028702D01*
X0093682Y0027903D02*
X0079843Y0027903D01*
X0093224Y0026306D02*
X0028268Y0026306D01*
X0028368Y0027105D02*
X0093351Y0027105D01*
X0093224Y0025508D02*
X0027937Y0025508D01*
X0027607Y0024709D02*
X0093373Y0024709D01*
X0093703Y0023911D02*
X0027096Y0023911D01*
X0026298Y0023112D02*
X0094243Y0023112D01*
X0100126Y0022333D02*
X0101262Y0023469D01*
X0101924Y0025068D01*
X0101924Y0026798D01*
X0101262Y0028397D01*
X0100426Y0029233D01*
X0104722Y0029233D01*
X0103886Y0028397D01*
X0103224Y0026798D01*
X0103224Y0025068D01*
X0103886Y0023469D01*
X0105022Y0022333D01*
X0100126Y0022333D01*
X0100905Y0023112D02*
X0104243Y0023112D01*
X0103703Y0023911D02*
X0101445Y0023911D01*
X0101776Y0024709D02*
X0103373Y0024709D01*
X0103224Y0025508D02*
X0101924Y0025508D01*
X0101924Y0026306D02*
X0103224Y0026306D01*
X0103351Y0027105D02*
X0101797Y0027105D01*
X0101466Y0027903D02*
X0103682Y0027903D01*
X0104191Y0028702D02*
X0100957Y0028702D01*
X0107311Y0032183D02*
X0113890Y0032183D01*
X0115057Y0031017D01*
X0115057Y0030283D01*
X0113868Y0030283D01*
X0113224Y0029639D01*
X0113224Y0022333D01*
X0110126Y0022333D01*
X0111262Y0023469D01*
X0111924Y0025068D01*
X0111924Y0026798D01*
X0111262Y0028397D01*
X0110038Y0029621D01*
X0109274Y0029937D01*
X0109274Y0030220D01*
X0107857Y0031637D01*
X0107311Y0032183D01*
X0107598Y0031896D02*
X0114178Y0031896D01*
X0114976Y0031097D02*
X0108397Y0031097D01*
X0109195Y0030299D02*
X0115057Y0030299D01*
X0113224Y0029500D02*
X0110159Y0029500D01*
X0110957Y0028702D02*
X0113224Y0028702D01*
X0113224Y0027903D02*
X0111466Y0027903D01*
X0111797Y0027105D02*
X0113224Y0027105D01*
X0113224Y0026306D02*
X0111924Y0026306D01*
X0111924Y0025508D02*
X0113224Y0025508D01*
X0113224Y0024709D02*
X0111776Y0024709D01*
X0111445Y0023911D02*
X0113224Y0023911D01*
X0113224Y0023112D02*
X0110905Y0023112D01*
X0137053Y0038284D02*
X0066454Y0038284D01*
X0064341Y0038284D02*
X0063060Y0038284D01*
X0059667Y0038284D02*
X0049357Y0038284D01*
X0049357Y0039082D02*
X0059064Y0039082D01*
X0059064Y0039881D02*
X0049357Y0039881D01*
X0049357Y0040679D02*
X0059064Y0040679D01*
X0059749Y0041478D02*
X0049357Y0041478D01*
X0049357Y0042277D02*
X0061537Y0042277D01*
X0062336Y0043075D02*
X0049357Y0043075D01*
X0049357Y0043874D02*
X0063134Y0043874D01*
X0063933Y0044672D02*
X0049357Y0044672D01*
X0049357Y0045471D02*
X0134241Y0045471D01*
X0139566Y0042277D02*
X0158284Y0042277D01*
X0157485Y0041478D02*
X0140364Y0041478D01*
X0140657Y0040679D02*
X0156687Y0040679D01*
X0155888Y0039881D02*
X0140657Y0039881D01*
X0140459Y0039082D02*
X0155090Y0039082D01*
X0154291Y0038284D02*
X0139660Y0038284D01*
X0152694Y0036687D02*
X0049357Y0036687D01*
X0049357Y0037485D02*
X0153493Y0037485D01*
X0159524Y0038284D02*
X0172853Y0038284D01*
X0184863Y0033493D02*
X0188922Y0033493D01*
X0188922Y0032694D02*
X0186105Y0032694D01*
X0186904Y0031896D02*
X0188922Y0031896D01*
X0188922Y0031097D02*
X0187527Y0031097D01*
X0187858Y0030299D02*
X0188922Y0030299D01*
X0188922Y0029500D02*
X0188188Y0029500D01*
X0188368Y0028702D02*
X0188922Y0028702D01*
X0188922Y0027903D02*
X0188368Y0027903D01*
X0188368Y0027105D02*
X0188922Y0027105D01*
X0188922Y0026306D02*
X0188268Y0026306D01*
X0187937Y0025508D02*
X0188922Y0025508D01*
X0188922Y0024709D02*
X0187607Y0024709D01*
X0187096Y0023911D02*
X0188922Y0023911D01*
X0188922Y0023112D02*
X0186298Y0023112D01*
X0143911Y0027903D02*
X0141939Y0027903D01*
X0151986Y0047866D02*
X0055462Y0047866D01*
X0056667Y0048665D02*
X0150780Y0048665D01*
X0149983Y0049463D02*
X0057464Y0049463D01*
X0058170Y0051859D02*
X0114632Y0051859D01*
X0113833Y0052657D02*
X0058170Y0052657D01*
X0057987Y0053456D02*
X0113760Y0053456D01*
X0113760Y0054254D02*
X0057656Y0054254D01*
X0057131Y0055053D02*
X0114177Y0055053D01*
X0114976Y0055851D02*
X0056333Y0055851D01*
X0054654Y0056650D02*
X0116623Y0056650D01*
X0117421Y0057448D02*
X0035557Y0057448D01*
X0035557Y0056650D02*
X0052400Y0056650D01*
X0050721Y0055851D02*
X0035557Y0055851D01*
X0035557Y0055053D02*
X0049922Y0055053D01*
X0049397Y0054254D02*
X0035557Y0054254D01*
X0035557Y0053456D02*
X0049066Y0053456D01*
X0048883Y0052657D02*
X0035557Y0052657D01*
X0035557Y0051859D02*
X0048883Y0051859D01*
X0048928Y0051060D02*
X0048782Y0051060D01*
X0046531Y0051060D02*
X0035557Y0051060D01*
X0035557Y0050262D02*
X0045733Y0050262D01*
X0045357Y0049463D02*
X0035557Y0049463D01*
X0035557Y0048665D02*
X0045357Y0048665D01*
X0045471Y0047866D02*
X0035557Y0047866D01*
X0035557Y0047068D02*
X0045957Y0047068D01*
X0045957Y0046269D02*
X0035557Y0046269D01*
X0035557Y0045471D02*
X0045957Y0045471D01*
X0045957Y0044672D02*
X0035557Y0044672D01*
X0035557Y0043874D02*
X0045957Y0043874D01*
X0045957Y0043075D02*
X0035557Y0043075D01*
X0035557Y0042277D02*
X0045957Y0042277D01*
X0045957Y0041478D02*
X0035557Y0041478D01*
X0035557Y0040679D02*
X0045957Y0040679D01*
X0045957Y0039881D02*
X0035557Y0039881D01*
X0035557Y0039082D02*
X0045957Y0039082D01*
X0045957Y0038284D02*
X0035909Y0038284D01*
X0036071Y0037485D02*
X0045957Y0037485D01*
X0045957Y0036687D02*
X0036869Y0036687D01*
X0037668Y0035888D02*
X0045957Y0035888D01*
X0045957Y0035090D02*
X0038466Y0035090D01*
X0039265Y0034291D02*
X0045357Y0034291D01*
X0045357Y0033493D02*
X0040063Y0033493D01*
X0040862Y0032694D02*
X0045357Y0032694D01*
X0045941Y0031896D02*
X0041660Y0031896D01*
X0038823Y0029500D02*
X0028188Y0029500D01*
X0028368Y0028702D02*
X0039622Y0028702D01*
X0040420Y0027903D02*
X0028368Y0027903D01*
X0027858Y0030299D02*
X0038025Y0030299D01*
X0037226Y0031097D02*
X0034674Y0031097D01*
X0035472Y0031896D02*
X0036428Y0031896D01*
X0035629Y0032694D02*
X0035557Y0032694D01*
X0031840Y0031097D02*
X0027527Y0031097D01*
X0026904Y0031896D02*
X0031041Y0031896D01*
X0030957Y0032694D02*
X0026105Y0032694D01*
X0024863Y0033493D02*
X0030293Y0033493D01*
X0029494Y0034291D02*
X0016557Y0034291D01*
X0016557Y0033493D02*
X0019198Y0033493D01*
X0017956Y0032694D02*
X0016557Y0032694D01*
X0016557Y0031896D02*
X0017158Y0031896D01*
X0016557Y0035090D02*
X0028696Y0035090D01*
X0027897Y0035888D02*
X0016557Y0035888D01*
X0016557Y0036687D02*
X0027099Y0036687D01*
X0026300Y0037485D02*
X0016557Y0037485D01*
X0016557Y0038284D02*
X0025502Y0038284D01*
X0024703Y0039082D02*
X0016557Y0039082D01*
X0016557Y0039881D02*
X0023905Y0039881D01*
X0023106Y0040679D02*
X0016557Y0040679D01*
X0016557Y0041478D02*
X0022308Y0041478D01*
X0021509Y0042277D02*
X0016557Y0042277D01*
X0016557Y0043075D02*
X0020711Y0043075D01*
X0019912Y0043874D02*
X0016557Y0043874D01*
X0016557Y0044672D02*
X0019114Y0044672D01*
X0018315Y0045471D02*
X0016557Y0045471D01*
X0016557Y0046269D02*
X0017517Y0046269D01*
X0017357Y0047068D02*
X0016557Y0047068D01*
X0016557Y0047866D02*
X0017357Y0047866D01*
X0017357Y0048665D02*
X0016557Y0048665D01*
X0016557Y0049463D02*
X0017357Y0049463D01*
X0017357Y0050262D02*
X0016557Y0050262D01*
X0016557Y0051060D02*
X0017357Y0051060D01*
X0017357Y0051859D02*
X0016557Y0051859D01*
X0016557Y0052657D02*
X0017357Y0052657D01*
X0016981Y0053456D02*
X0016557Y0053456D01*
X0016557Y0054254D02*
X0016757Y0054254D01*
X0016757Y0055053D02*
X0016557Y0055053D01*
X0016557Y0055851D02*
X0017022Y0055851D01*
X0017357Y0056650D02*
X0016557Y0056650D01*
X0016557Y0057448D02*
X0017357Y0057448D01*
X0017357Y0058247D02*
X0016557Y0058247D01*
X0016557Y0059045D02*
X0017357Y0059045D01*
X0017357Y0059844D02*
X0016557Y0059844D01*
X0016557Y0060642D02*
X0017357Y0060642D01*
X0017357Y0061441D02*
X0016557Y0061441D01*
X0016557Y0062239D02*
X0017357Y0062239D01*
X0017357Y0063038D02*
X0016557Y0063038D01*
X0016557Y0063836D02*
X0017357Y0063836D01*
X0017357Y0064635D02*
X0016557Y0064635D01*
X0016557Y0065433D02*
X0017357Y0065433D01*
X0017357Y0066232D02*
X0016557Y0066232D01*
X0016557Y0067030D02*
X0017357Y0067030D01*
X0017357Y0067829D02*
X0016557Y0067829D01*
X0016557Y0068627D02*
X0017357Y0068627D01*
X0017357Y0069426D02*
X0016557Y0069426D01*
X0016557Y0070224D02*
X0017357Y0070224D01*
X0017357Y0071023D02*
X0016557Y0071023D01*
X0016557Y0071821D02*
X0017357Y0071821D01*
X0017357Y0072620D02*
X0016557Y0072620D01*
X0016557Y0073418D02*
X0017357Y0073418D01*
X0017357Y0074217D02*
X0016557Y0074217D01*
X0016557Y0075015D02*
X0017357Y0075015D01*
X0017357Y0075814D02*
X0016557Y0075814D01*
X0016557Y0076612D02*
X0017357Y0076612D01*
X0017357Y0077411D02*
X0016557Y0077411D01*
X0016557Y0078210D02*
X0017357Y0078210D01*
X0017357Y0079008D02*
X0016557Y0079008D01*
X0016557Y0079807D02*
X0017357Y0079807D01*
X0017357Y0080605D02*
X0016557Y0080605D01*
X0016557Y0081404D02*
X0017357Y0081404D01*
X0017357Y0082202D02*
X0016557Y0082202D01*
X0016557Y0083001D02*
X0017357Y0083001D01*
X0017357Y0083799D02*
X0016557Y0083799D01*
X0016557Y0084598D02*
X0017357Y0084598D01*
X0017357Y0085396D02*
X0016557Y0085396D01*
X0016557Y0086195D02*
X0017357Y0086195D01*
X0017357Y0086993D02*
X0016557Y0086993D01*
X0016557Y0087792D02*
X0017357Y0087792D01*
X0017357Y0088590D02*
X0016557Y0088590D01*
X0016557Y0089389D02*
X0017357Y0089389D01*
X0017357Y0090187D02*
X0016557Y0090187D01*
X0016557Y0090986D02*
X0017357Y0090986D01*
X0017357Y0091784D02*
X0016557Y0091784D01*
X0016557Y0092583D02*
X0018002Y0092583D01*
X0018801Y0093381D02*
X0016557Y0093381D01*
X0016557Y0094180D02*
X0019599Y0094180D01*
X0020398Y0094978D02*
X0016557Y0094978D01*
X0016557Y0095777D02*
X0021196Y0095777D01*
X0021995Y0096575D02*
X0016557Y0096575D01*
X0016557Y0097374D02*
X0022793Y0097374D01*
X0023592Y0098172D02*
X0016557Y0098172D01*
X0016557Y0098971D02*
X0024390Y0098971D01*
X0025189Y0099769D02*
X0016557Y0099769D01*
X0016557Y0100568D02*
X0025987Y0100568D01*
X0026786Y0101366D02*
X0016557Y0101366D01*
X0016557Y0102165D02*
X0026957Y0102165D01*
X0029199Y0098971D02*
X0188922Y0098971D01*
X0188922Y0099769D02*
X0030846Y0099769D01*
X0031557Y0100568D02*
X0188922Y0100568D01*
X0188922Y0101366D02*
X0031557Y0101366D01*
X0031557Y0102165D02*
X0188922Y0102165D01*
X0188922Y0098172D02*
X0028400Y0098172D01*
X0027602Y0097374D02*
X0188922Y0097374D01*
X0188922Y0096575D02*
X0026803Y0096575D01*
X0026005Y0095777D02*
X0152207Y0095777D01*
X0152997Y0096104D02*
X0151290Y0095397D01*
X0149984Y0094091D01*
X0149277Y0092384D01*
X0149277Y0090537D01*
X0149984Y0088830D01*
X0151290Y0087524D01*
X0152997Y0086817D01*
X0154844Y0086817D01*
X0155374Y0087037D01*
X0165448Y0076963D01*
X0166678Y0075733D01*
X0169204Y0075733D01*
X0169404Y0075533D01*
X0171309Y0075533D01*
X0172657Y0076880D01*
X0172657Y0078786D01*
X0171309Y0080133D01*
X0169404Y0080133D01*
X0169204Y0079933D01*
X0168418Y0079933D01*
X0158344Y0090007D01*
X0158564Y0090537D01*
X0158564Y0092384D01*
X0157857Y0094091D01*
X0156551Y0095397D01*
X0154844Y0096104D01*
X0152997Y0096104D01*
X0150871Y0094978D02*
X0025206Y0094978D01*
X0024408Y0094180D02*
X0042551Y0094180D01*
X0041957Y0093381D02*
X0023609Y0093381D01*
X0022811Y0092583D02*
X0041590Y0092583D01*
X0040792Y0091784D02*
X0022012Y0091784D01*
X0021213Y0090986D02*
X0039993Y0090986D01*
X0039195Y0090187D02*
X0020757Y0090187D01*
X0020757Y0089389D02*
X0038396Y0089389D01*
X0037598Y0088590D02*
X0020757Y0088590D01*
X0020757Y0087792D02*
X0036799Y0087792D01*
X0036000Y0086993D02*
X0020757Y0086993D01*
X0020757Y0086195D02*
X0035202Y0086195D01*
X0034403Y0085396D02*
X0020757Y0085396D01*
X0020757Y0084598D02*
X0033605Y0084598D01*
X0033507Y0083799D02*
X0020757Y0083799D01*
X0020757Y0083001D02*
X0033507Y0083001D01*
X0033507Y0082202D02*
X0020757Y0082202D01*
X0020757Y0081404D02*
X0033507Y0081404D01*
X0033507Y0080605D02*
X0020757Y0080605D01*
X0020757Y0079807D02*
X0033507Y0079807D01*
X0033507Y0079008D02*
X0020757Y0079008D01*
X0020757Y0078210D02*
X0033507Y0078210D01*
X0033507Y0077411D02*
X0020757Y0077411D01*
X0020757Y0076612D02*
X0024283Y0076612D01*
X0023657Y0075814D02*
X0020757Y0075814D01*
X0020757Y0075015D02*
X0023657Y0075015D01*
X0023657Y0074217D02*
X0020757Y0074217D01*
X0020757Y0073418D02*
X0024319Y0073418D01*
X0020757Y0072620D02*
X0031927Y0072620D01*
X0031857Y0071821D02*
X0020757Y0071821D01*
X0020757Y0071023D02*
X0031857Y0071023D01*
X0031857Y0070224D02*
X0020757Y0070224D01*
X0020757Y0069426D02*
X0031857Y0069426D01*
X0031857Y0068627D02*
X0020757Y0068627D01*
X0020757Y0067829D02*
X0031857Y0067829D01*
X0031857Y0067030D02*
X0020757Y0067030D01*
X0020757Y0066232D02*
X0031857Y0066232D01*
X0031857Y0065433D02*
X0020757Y0065433D01*
X0020757Y0064635D02*
X0031857Y0064635D01*
X0031857Y0063836D02*
X0020757Y0063836D01*
X0020757Y0063038D02*
X0031857Y0063038D01*
X0031857Y0062239D02*
X0020757Y0062239D01*
X0020757Y0061441D02*
X0031857Y0061441D01*
X0031857Y0060642D02*
X0020757Y0060642D01*
X0020757Y0059844D02*
X0031857Y0059844D01*
X0031857Y0059045D02*
X0020757Y0059045D01*
X0020757Y0058247D02*
X0031857Y0058247D01*
X0031857Y0057448D02*
X0020757Y0057448D01*
X0020757Y0056650D02*
X0031857Y0056650D01*
X0031857Y0055851D02*
X0021091Y0055851D01*
X0021357Y0055053D02*
X0031857Y0055053D01*
X0031857Y0054254D02*
X0021357Y0054254D01*
X0021132Y0053456D02*
X0031857Y0053456D01*
X0031857Y0052657D02*
X0020757Y0052657D01*
X0020757Y0051859D02*
X0031857Y0051859D01*
X0031857Y0051060D02*
X0020757Y0051060D01*
X0020757Y0050262D02*
X0031857Y0050262D01*
X0031857Y0049463D02*
X0020757Y0049463D01*
X0020757Y0048665D02*
X0031857Y0048665D01*
X0031857Y0047866D02*
X0020757Y0047866D01*
X0021526Y0047068D02*
X0031857Y0047068D01*
X0031857Y0046269D02*
X0022325Y0046269D01*
X0023123Y0045471D02*
X0031857Y0045471D01*
X0031857Y0044672D02*
X0023922Y0044672D01*
X0024720Y0043874D02*
X0031857Y0043874D01*
X0031857Y0043075D02*
X0025519Y0043075D01*
X0026317Y0042277D02*
X0031857Y0042277D01*
X0031857Y0041478D02*
X0027116Y0041478D01*
X0027914Y0040679D02*
X0031857Y0040679D01*
X0031857Y0039881D02*
X0028713Y0039881D01*
X0029511Y0039082D02*
X0031857Y0039082D01*
X0031505Y0038284D02*
X0030310Y0038284D01*
X0031108Y0037485D02*
X0031407Y0037485D01*
X0035557Y0058247D02*
X0118220Y0058247D01*
X0119018Y0059045D02*
X0035557Y0059045D01*
X0035557Y0059844D02*
X0117493Y0059844D01*
X0116695Y0060642D02*
X0035557Y0060642D01*
X0035557Y0061441D02*
X0116257Y0061441D01*
X0116257Y0062239D02*
X0035557Y0062239D01*
X0035557Y0063038D02*
X0116309Y0063038D01*
X0117107Y0063836D02*
X0039813Y0063836D01*
X0039809Y0063833D02*
X0040409Y0064433D01*
X0065161Y0064433D01*
X0066157Y0065429D01*
X0072961Y0072233D01*
X0073809Y0072233D01*
X0075157Y0073580D01*
X0075157Y0075486D01*
X0073809Y0076833D01*
X0071904Y0076833D01*
X0070557Y0075486D01*
X0070557Y0074637D01*
X0063753Y0067833D01*
X0040409Y0067833D01*
X0039809Y0068433D01*
X0037904Y0068433D01*
X0036557Y0067086D01*
X0036557Y0065180D01*
X0037904Y0063833D01*
X0039809Y0063833D01*
X0037901Y0063836D02*
X0035557Y0063836D01*
X0035557Y0064635D02*
X0037102Y0064635D01*
X0036557Y0065433D02*
X0035557Y0065433D01*
X0035557Y0066232D02*
X0036557Y0066232D01*
X0036557Y0067030D02*
X0035557Y0067030D01*
X0035557Y0067829D02*
X0037300Y0067829D01*
X0035557Y0068627D02*
X0064547Y0068627D01*
X0065345Y0069426D02*
X0035557Y0069426D01*
X0035557Y0070224D02*
X0066144Y0070224D01*
X0066942Y0071023D02*
X0035563Y0071023D01*
X0036361Y0071821D02*
X0067741Y0071821D01*
X0068539Y0072620D02*
X0037160Y0072620D01*
X0037207Y0073418D02*
X0069338Y0073418D01*
X0070136Y0074217D02*
X0037207Y0074217D01*
X0037207Y0075015D02*
X0070557Y0075015D01*
X0070885Y0075814D02*
X0037207Y0075814D01*
X0037207Y0076612D02*
X0071683Y0076612D01*
X0074030Y0076612D02*
X0165799Y0076612D01*
X0166597Y0075814D02*
X0074828Y0075814D01*
X0075157Y0075015D02*
X0188922Y0075015D01*
X0188922Y0074217D02*
X0075157Y0074217D01*
X0074995Y0073418D02*
X0188922Y0073418D01*
X0188922Y0072620D02*
X0074196Y0072620D01*
X0072549Y0071821D02*
X0188922Y0071821D01*
X0188922Y0071023D02*
X0071751Y0071023D01*
X0070952Y0070224D02*
X0188922Y0070224D01*
X0188922Y0069426D02*
X0070154Y0069426D01*
X0069355Y0068627D02*
X0188922Y0068627D01*
X0188922Y0067829D02*
X0068557Y0067829D01*
X0067758Y0067030D02*
X0188922Y0067030D01*
X0188922Y0066232D02*
X0066960Y0066232D01*
X0066161Y0065433D02*
X0188922Y0065433D01*
X0188922Y0064635D02*
X0065363Y0064635D01*
X0037207Y0077411D02*
X0165000Y0077411D01*
X0164202Y0078210D02*
X0037207Y0078210D01*
X0037207Y0079008D02*
X0163403Y0079008D01*
X0162605Y0079807D02*
X0037207Y0079807D01*
X0037207Y0080605D02*
X0161806Y0080605D01*
X0161008Y0081404D02*
X0037207Y0081404D01*
X0037207Y0082202D02*
X0160209Y0082202D01*
X0159411Y0083001D02*
X0037241Y0083001D01*
X0038039Y0083799D02*
X0158612Y0083799D01*
X0157814Y0084598D02*
X0038838Y0084598D01*
X0039636Y0085396D02*
X0157015Y0085396D01*
X0156217Y0086195D02*
X0040435Y0086195D01*
X0041233Y0086993D02*
X0152572Y0086993D01*
X0151023Y0087792D02*
X0042032Y0087792D01*
X0042830Y0088590D02*
X0110747Y0088590D01*
X0110404Y0088933D02*
X0111104Y0088233D01*
X0113009Y0088233D01*
X0114357Y0089580D01*
X0114357Y0091486D01*
X0113009Y0092833D01*
X0111104Y0092833D01*
X0110404Y0092133D01*
X0082719Y0092133D01*
X0082639Y0092214D01*
X0082639Y0093204D01*
X0081292Y0094551D01*
X0079386Y0094551D01*
X0078039Y0093204D01*
X0078039Y0091298D01*
X0079386Y0089951D01*
X0080376Y0089951D01*
X0080457Y0089870D01*
X0081394Y0088933D01*
X0110404Y0088933D01*
X0113366Y0088590D02*
X0150224Y0088590D01*
X0149753Y0089389D02*
X0114165Y0089389D01*
X0114357Y0090187D02*
X0149422Y0090187D01*
X0149277Y0090986D02*
X0114357Y0090986D01*
X0114058Y0091784D02*
X0149277Y0091784D01*
X0149359Y0092583D02*
X0113260Y0092583D01*
X0110854Y0092583D02*
X0082639Y0092583D01*
X0082461Y0093381D02*
X0149690Y0093381D01*
X0150073Y0094180D02*
X0081663Y0094180D01*
X0079015Y0094180D02*
X0045963Y0094180D01*
X0046557Y0093381D02*
X0078217Y0093381D01*
X0078039Y0092583D02*
X0046557Y0092583D01*
X0046557Y0091784D02*
X0078039Y0091784D01*
X0078351Y0090986D02*
X0045862Y0090986D01*
X0044427Y0090187D02*
X0079150Y0090187D01*
X0080457Y0089870D02*
X0080457Y0089870D01*
X0080938Y0089389D02*
X0043629Y0089389D01*
X0120006Y0063836D02*
X0188922Y0063836D01*
X0188922Y0063038D02*
X0178605Y0063038D01*
X0179357Y0062239D02*
X0188922Y0062239D01*
X0188922Y0061441D02*
X0179357Y0061441D01*
X0179357Y0060642D02*
X0188922Y0060642D01*
X0188922Y0059844D02*
X0178820Y0059844D01*
X0179597Y0059045D02*
X0188922Y0059045D01*
X0188922Y0058247D02*
X0179957Y0058247D01*
X0179957Y0057448D02*
X0188922Y0057448D01*
X0188922Y0056650D02*
X0179826Y0056650D01*
X0174757Y0061441D02*
X0121553Y0061441D01*
X0120857Y0062239D02*
X0174757Y0062239D01*
X0175509Y0063038D02*
X0120805Y0063038D01*
X0162955Y0085396D02*
X0188922Y0085396D01*
X0188922Y0084598D02*
X0163753Y0084598D01*
X0164552Y0083799D02*
X0188922Y0083799D01*
X0188922Y0083001D02*
X0165350Y0083001D01*
X0166149Y0082202D02*
X0188922Y0082202D01*
X0188922Y0081404D02*
X0166947Y0081404D01*
X0167746Y0080605D02*
X0188922Y0080605D01*
X0188922Y0079807D02*
X0171636Y0079807D01*
X0172434Y0079008D02*
X0188922Y0079008D01*
X0188922Y0078210D02*
X0172657Y0078210D01*
X0172657Y0077411D02*
X0188922Y0077411D01*
X0188922Y0076612D02*
X0172389Y0076612D01*
X0171590Y0075814D02*
X0188922Y0075814D01*
X0188922Y0086195D02*
X0162156Y0086195D01*
X0161358Y0086993D02*
X0188922Y0086993D01*
X0188922Y0087792D02*
X0160559Y0087792D01*
X0159761Y0088590D02*
X0188922Y0088590D01*
X0188922Y0089389D02*
X0158962Y0089389D01*
X0158419Y0090187D02*
X0188922Y0090187D01*
X0188922Y0090986D02*
X0158564Y0090986D01*
X0158564Y0091784D02*
X0188922Y0091784D01*
X0188922Y0092583D02*
X0158482Y0092583D01*
X0158151Y0093381D02*
X0188922Y0093381D01*
X0188922Y0094180D02*
X0157768Y0094180D01*
X0156969Y0094978D02*
X0188922Y0094978D01*
X0188922Y0095777D02*
X0155634Y0095777D01*
X0155418Y0086993D02*
X0155269Y0086993D01*
D15*
X0170357Y0077833D03*
X0174457Y0091733D03*
X0187757Y0101233D03*
X0177057Y0061333D03*
X0177657Y0057733D03*
X0186457Y0048433D03*
X0186457Y0044433D03*
X0186457Y0040433D03*
X0173857Y0040533D03*
X0145457Y0047433D03*
X0135483Y0043460D03*
X0138357Y0040233D03*
X0124457Y0033433D03*
X0112157Y0029333D03*
X0102457Y0028433D03*
X0092657Y0030933D03*
X0083357Y0034033D03*
X0073057Y0024333D03*
X0062457Y0024533D03*
X0052057Y0024633D03*
X0047657Y0033433D03*
X0057357Y0035533D03*
X0061364Y0039840D03*
X0065398Y0040480D03*
X0076357Y0046433D03*
X0081357Y0046433D03*
X0086357Y0046433D03*
X0095457Y0047433D03*
X0116060Y0053683D03*
X0118557Y0062033D03*
X0100157Y0064933D03*
X0103457Y0076433D03*
X0099457Y0087433D03*
X0112057Y0090533D03*
X0080339Y0092251D03*
X0072857Y0074533D03*
X0058457Y0063433D03*
X0052457Y0060433D03*
X0038857Y0066133D03*
X0038457Y0070433D03*
X0031857Y0075033D03*
X0025957Y0075033D03*
X0024457Y0070433D03*
X0024457Y0066433D03*
X0019057Y0054633D03*
X0036457Y0048433D03*
X0047657Y0048933D03*
X0033707Y0037233D03*
X0033257Y0032933D03*
X0030457Y0025433D03*
X0017457Y0034433D03*
X0102457Y0023433D03*
X0140657Y0025933D03*
X0044257Y0092633D03*
X0045057Y0097733D03*
X0029257Y0101433D03*
D16*
X0019057Y0091233D01*
X0019057Y0054633D01*
X0019057Y0047133D01*
X0033257Y0032933D01*
X0047657Y0033433D02*
X0047657Y0048933D01*
X0038857Y0066133D02*
X0064457Y0066133D01*
X0072857Y0074533D01*
X0031857Y0075033D02*
X0025957Y0075033D01*
X0092657Y0030933D02*
X0106157Y0030933D01*
X0107574Y0029516D01*
X0107574Y0025933D01*
X0116060Y0053683D02*
X0120110Y0057733D01*
X0177657Y0057733D01*
X0175357Y0059633D02*
X0120957Y0059633D01*
X0118557Y0062033D01*
X0175357Y0059633D02*
X0177057Y0061333D01*
D17*
X0138357Y0040233D02*
X0065645Y0040233D01*
X0065398Y0040480D01*
X0064983Y0043460D02*
X0061364Y0039840D01*
X0064983Y0043460D02*
X0135483Y0043460D01*
X0112057Y0090533D02*
X0082057Y0090533D01*
X0080339Y0092251D01*
D18*
X0153920Y0091461D02*
X0167548Y0077833D01*
X0170357Y0077833D01*
D19*
X0173857Y0040533D02*
X0159157Y0040533D01*
X0144557Y0025933D01*
X0140657Y0025933D01*
X0117574Y0025933D01*
X0116907Y0026600D01*
X0116907Y0031783D01*
X0114657Y0034033D01*
X0083357Y0034033D01*
X0078757Y0029433D01*
X0041507Y0029433D01*
X0033707Y0037233D01*
X0033707Y0071783D01*
X0035357Y0073433D01*
X0035357Y0083733D01*
X0044257Y0092633D01*
M02*
